<svg xmlns="http://www.w3.org/2000/svg" viewBox="-10 -10 70 70" enable-background="new 0 0 50 50" width="70" height="70"><path fill="#231F20" d="M41.7 13.7l-16.6-7.2-16.7 7.2c-.4.2-.7.6-.6 1.1.1.5.5.8 1 .8h1.2c0 .2-.1.4-.1.5 0 1 .7 1.8 1.7 1.9v14.7c-.9.1-1.7 1-1.7 1.9 0 .3.1.7.3 1-1 .1-1.8.9-1.8 1.9v1.9h33.2v-1.9c0-1-.8-1.9-1.8-1.9.2-.3.3-.6.3-.9 0-1-.8-1.8-1.7-1.9v-14.7c1-.1 1.7-.9 1.7-1.9 0-.2 0-.4-.1-.5h1.3c.5 0 .9-.3 1-.8.1-.5-.1-1-.6-1.2zm-16.6-5.6l14.1 6.1h-28.2l14.1-6.1zm10.2 24.7v-14.7h1.7v14.7h-1.7zm-1.4 0h-2.8v-14.7h2.8v14.7zm-4.2 0h-1.7v-14.7h1.7v14.7zm-3.1 0h-3.4v-14.7h3.4v14.7zm-4.7 0h-1.7v-14.7h1.7v14.7zm-3.1 0h-2.7v-14.7h2.7v14.7zm-4.1-14.7v14.7h-1.7v-14.7h1.7zm25.6 19.5v.5h-30.4v-.5c0-.3.2-.5.5-.5h29.4c.3 0 .5.2.5.5zm-1.6-2.8c0 .3-.2.6-.6.6h-26.2c-.3 0-.6-.2-.6-.6 0-.3.2-.6.6-.6h26.3c.3 0 .5.3.5.6zm0-18.6c0 .3-.2.6-.6.6h-26.299999999999997c-.3 0-.6-.2-.6-.6 0-.3.2-.5.5-.5h26.3c.5 0 .7.2.7.5z"/></svg>