<svg xmlns="http://www.w3.org/2000/svg" viewBox="-10 -10 70 70" enable-background="new 0 0 50 50" width="70" height="70"><g fill="#231F20"><path d="M41.1 32.6c0 1-.4 1.9-1.1 2.6-.7.7-1.6 1.1-2.6 1.1s-1.9-.4-2.6-1.1c-.7-.7-1.1-1.6-1.1-2.6 0-.7.2-1.3.6-1.9l.4-.6c.3-.4.5-.7.7-1.1.2-.3.4-.7.7-1.3.3-.5.5-1 .6-1.4 0-.1.1-.3.2-.3.1-.1.2-.1.4-.1.1 0 .2 0 .4.1.1.1.2.2.2.3.1.4.3.9.6 1.4.3.5.5.9.7 1.3.2.3.4.7.7 1.1.3.4.4.6.4.6.6.5.8 1.2.8 1.9z"/><path d="M37.5 14.9h-10.7c.3-.8.4-1.6.4-2.5 0-1.6-.5-2.9-1.6-3.8-1.1-.9-2.4-1.3-4.1-1.3-.5 0-1 .1-1.4.3-.4.2-.8.6-1.1 1-.3.4-.6.8-.8 1.3-.2.4-.5.9-.7 1.4-.3.5-.5 1-.7 1.2-.5.7-1.1 1.6-2 2.6 0 0-.1.2-.3.3l-.4.4-.4.4c-.2.2-.3.3-.5.4-.1.1-.3.2-.4.4l-.5.3c-.2.1-.3.1-.4.1h-2.9v2.6h3c.9 0 1.9-.4 2.8-1.1.4-.3 1.1-1 2-2.1 1-1.1 1.7-2 2.2-2.9.2-.3.4-.7.7-1.3.9-1.8 1.5-2.8 1.8-2.8.9 0 1.7.2 2.3.6.6.4.9 1.1.9 1.9 0 .6-.1 1.1-.3 1.7-.2.6-.4 1-.7 1.4l-.7 1.1c-.2.4-.3.7-.3 1h14.899999999999999c1.1 0 2 .9 2 2s-.9 2-2 2h-9.8c.2.2.4.5.5.9.1.4.2.8.2 1.1 0 .9-.4 1.7-1.1 2.4.2.4.4.9.4 1.4 0 .5-.1 1-.3 1.5-.2.5-.5.8-.9 1 .1.4.1.8.1 1.1 0 2.2-1.3 3.3-3.8 3.3-1.1 0-2.3-.2-3.6-.6-1.3-.4-2.6-.8-3.8-1.3-1.3-.4-2.4-.6-3.3-.6h-3.2v2.5h3c.8 0 2.3.4 4.4 1.2 2.5.9 4.6 1.4 6.4 1.4 1.9 0 3.4-.5 4.5-1.6s1.7-2.5 1.7-4.4c.8-1 1.2-2.2 1.2-3.5 0-.3 0-.6-.1-.9.4-.8.7-1.5.7-2.4h6.7c2.5 0 4.5-2.1 4.5-4.6.1-2.4-1.9-4.4-4.5-4.5z"/></g></svg>