<svg xmlns="http://www.w3.org/2000/svg" viewBox="-10 -10 70 70" enable-background="new 0 0 50 50" width="70" height="70"><path fill="#231F20" d="M46.4 25.4c0 .5-.2 1-.5 1.6-2.1 3.5-5 6.3-8.6 8.4-3.6 2.1-7.4 3.2-11.4 3.2s-7.8-1.1-11.4-3.2c-3.5-2.2-6.3-5-8.5-8.5-.3-.5-.5-1.1-.5-1.6s.2-1 .5-1.6c2.1-3.5 5-6.3 8.6-8.4 3.6-2.1 7.4-3.2 11.4-3.2s7.8 1.1 11.4 3.2c3.6 2.1 6.5 4.9 8.6 8.4.3.6.4 1.2.4 1.7zm-2.9 0c-2.3-3.6-5.2-6.3-8.7-8.1.9 1.6 1.4 3.3 1.4 5.1 0 2.8-1 5.2-3 7.2s-4.4 3-7.2 3-5.2-1-7.2-3-3-4.4-3-7.2c0-1.8.5-3.6 1.4-5.1-3.5 1.8-6.4 4.5-8.7 8.1 2 3.1 4.6 5.6 7.6 7.4 3 1.8 6.4 2.8 9.9 2.8s6.9-.9 9.9-2.8c3.1-1.8 5.6-4.3 7.6-7.4zm-16.7-8c.2-.2.3-.5.3-.8 0-.3-.1-.6-.3-.8-.2-.2-.5-.3-.8-.3-1.9 0-3.5.7-4.9 2-1.4 1.4-2 3-2 4.9 0 .3.1.6.3.8.2.2.5.3.8.3.3 0 .6-.1.8-.3.2-.2.3-.5.3-.8 0-1.3.5-2.4 1.4-3.4s2-1.4 3.4-1.4c.2.1.5 0 .7-.2z"/></svg>