<svg xmlns="http://www.w3.org/2000/svg" viewBox="-10 -10 70 70" enable-background="new 0 0 50 50" width="70" height="70"><g fill="#231F20"><path d="M22.2 21.9c1.4 0 2.7-.1 3.9-.7 1.2-.6 6.8-4.8 6.4-6.2-.4-1.8-6.6-1.5-7.9-1.8-2.7-.5-6-1.5-9-1.5-.5 0-1 0-1.4.1-6.9 1-7.4 8.1-7.6 13.8v-.2.7c0 1.8.8 2.4 1.8 2.4.9 0 2-.4 3-.9 2.8-1.2 5.5-2.7 7.9-4.6 1.2-.9 1.5-1.1 2.9-1.1z"/><path d="M30 7.1h-3.6c0 1.4-.1 2.9 0 4.4 1.2.1 2.5.1 3.6.3-.3-1.6 0-3.4 0-4.7z"/><path d="M40 14.4c-2-.5-3.8.3-5.6.4.2 1.4-.8 2.9-3.3 5l-.2.3c.9 2.5.8 5.2-1.5 7.3-4 3.6-6.5-1-10.2-1.2-.4 0-.8 0-1.2.1-.6.4-1.3.8-1.9 1.1-2.4 2.7-1.8 9.1-1.8 11.8h3.9c0-2.1-.5-4.6.2-6.7 1-3 4.4 1.6 6.3 3.4 4.7 4.7 12.8.5 16.9-4.2 3.2-3.7 5.3-15.5-1.6-17.3z"/></g></svg>