<svg xmlns="http://www.w3.org/2000/svg" viewBox="-10 -10 70 70" enable-background="new 0 0 50 50" width="70" height="70"><path fill="#231F20" d="M25.1 7.6c-9.6 0-17.4 7.8-17.4 17.4s7.8 17.4 17.4 17.4c9.6 0 17.4-7.8 17.4-17.4s-7.8-17.4-17.4-17.4zm-12.2 10.7h6.7v6.2h-6.7v-6.2zm7.5 20c-1.6 0-2.9-1.3-2.9-2.9 0-1.6 1.3-2.9 2.9-2.9 1.6 0 2.9 1.3 2.9 2.9 0 1.6-1.3 2.9-2.9 2.9zm4.2-8.6c-1.6 0-2.9-1.3-2.9-2.9 0-1.6 1.3-2.9 2.9-2.9 1.6 0 2.9 1.3 2.9 2.9 0 1.7-1.3 2.9-2.9 2.9zm2.9-13.4c-1.6 0-2.9-1.3-2.9-2.9 0-1.6 1.3-2.9 2.9-2.9 1.6 0 2.9 1.3 2.9 2.9-.1 1.6-1.4 2.9-2.9 2.9zm5.7 19.2c-1.6 0-2.9-1.3-2.9-2.9 0-1.6 1.3-2.9 2.9-2.9 1.6 0 2.9 1.3 2.9 2.9-.1 1.6-1.3 2.9-2.9 2.9zm1.3-10.4c-1.6 0-2.9-1.3-2.9-2.9 0-1.6 1.3-2.9 2.9-2.9 1.6 0 2.9 1.3 2.9 2.9 0 1.6-1.3 2.9-2.9 2.9z"/></svg>