<svg xmlns="http://www.w3.org/2000/svg" viewBox="-10 -10 70 70" enable-background="new 0 0 50 50" width="70" height="70"><g fill="#231F20"><g><path d="M32.9 8.4c-.3-1 .3-2.1 1.3-2.4 1-.3 2.1.3 2.4 1.3.3 1-.3 2.1-1.3 2.4l-1.9.6-.5-1.9zM23.6 6.7c-.8-.7-.8-2-.1-2.7.7-.8 2-.8 2.7-.1.8.7.8 2 .1 2.7l-1.3 1.4-1.4-1.3zM14.6 9.8c-1-.2-1.7-1.3-1.4-2.3.2-1 1.3-1.7 2.3-1.4 1 .2 1.7 1.3 1.4 2.3l-.4 1.9-1.9-.5zM8.4 17.1c-1 .3-2.1-.3-2.4-1.3-.3-1 .3-2.1 1.3-2.4 1-.3 2.1.3 2.4 1.3l.6 1.9-1.9.5zM6.7 26.4c-.7.8-2 .8-2.7.1-.8-.7-.8-2-.1-2.7.7-.8 2-.8 2.7-.1l1.4 1.3-1.3 1.4zM9.8 35.4c-.2 1-1.3 1.7-2.3 1.4-1-.2-1.7-1.3-1.4-2.3.2-1 1.3-1.7 2.3-1.4l1.9.4-.5 1.9zM17.1 41.6c.3 1-.3 2.1-1.3 2.4-1 .3-2.1-.3-2.4-1.3-.3-1 .3-2.1 1.3-2.4l1.8-.6.6 1.9zM26.4 43.3c.8.7.8 2 .1 2.7-.7.8-2 .8-2.7.1-.8-.7-.8-2-.1-2.7l1.3-1.4 1.4 1.3zM35.4 40.2c1 .2 1.7 1.3 1.4 2.3-.2 1-1.3 1.7-2.3 1.4-1-.2-1.7-1.3-1.4-2.3l.4-1.9 1.9.5zM41.6 32.9c1-.3 2.1.3 2.4 1.3.3 1-.3 2.1-1.3 2.4-1 .3-2.1-.3-2.4-1.3l-.6-1.8 1.9-.6zM43.3 23.6c.7-.8 2-.8 2.7-.1.8.7.8 2 .1 2.7-.7.8-2 .8-2.7.1l-1.4-1.3 1.3-1.4zM40.2 14.6c.2-1 1.3-1.7 2.3-1.4 1 .2 1.7 1.3 1.4 2.3-.2 1-1.3 1.7-2.3 1.4l-1.9-.4.5-1.9zM32.9 8.4c-.3-1 .3-2.1 1.3-2.4 1-.3 2.1.3 2.4 1.3.3 1-.3 2.1-1.3 2.4l-1.9.6-.5-1.9zM23.6 6.7c-.8-.7-.8-2-.1-2.7.7-.8 2-.8 2.7-.1.8.7.8 2 .1 2.7l-1.3 1.4-1.4-1.3zM14.6 9.8c-1-.2-1.7-1.3-1.4-2.3.2-1 1.3-1.7 2.3-1.4 1 .2 1.7 1.3 1.4 2.3l-.4 1.9-1.9-.5zM8.4 17.1c-1 .3-2.1-.3-2.4-1.3-.3-1 .3-2.1 1.3-2.4 1-.3 2.1.3 2.4 1.3l.6 1.9-1.9.5zM6.7 26.4c-.7.8-2 .8-2.7.1-.8-.7-.8-2-.1-2.7.7-.8 2-.8 2.7-.1l1.4 1.3-1.3 1.4zM9.8 35.4c-.2 1-1.3 1.7-2.3 1.4-1-.2-1.7-1.3-1.4-2.3.2-1 1.3-1.7 2.3-1.4l1.9.4-.5 1.9zM17.1 41.6c.3 1-.3 2.1-1.3 2.4-1 .3-2.1-.3-2.4-1.3-.3-1 .3-2.1 1.3-2.4l1.8-.6.6 1.9zM26.4 43.3c.8.7.8 2 .1 2.7-.7.8-2 .8-2.7.1-.8-.7-.8-2-.1-2.7l1.3-1.4 1.4 1.3zM35.4 40.2c1 .2 1.7 1.3 1.4 2.3-.2 1-1.3 1.7-2.3 1.4-1-.2-1.7-1.3-1.4-2.3l.4-1.9 1.9.5z"/></g><g><path d="M30.7 33.9h-11.3c-2.1 0-3.5-1.2-3.5-3.4 0-2.6.5-6.6 3.6-7.3-.2.5-.3 1-.3 1.6v2.6c-1 .4-1.7 1.3-1.7 2.3 0 1.4 1.1 2.5 2.5 2.5s2.5-1.1 2.5-2.5c0-1-.7-2-1.7-2.3v-2.6c0-.4 0-.9.3-1.2 1.1.9 2.4 1.3 3.8 1.3s2.7-.5 3.8-1.3c.3.3.3.8.3 1.2v.8c-1.8 0-3.3 1.5-3.3 3.3v1.2c-.3.2-.4.6-.4.9 0 .7.6 1.2 1.2 1.2.7 0 1.2-.6 1.2-1.2 0-.3-.2-.7-.4-.9v-1.2c0-.9.8-1.7 1.7-1.7.9 0 1.7.7 1.7 1.7v1.2c-.3.2-.4.6-.4.9 0 .7.6 1.2 1.2 1.2.7 0 1.2-.6 1.2-1.2 0-.3-.2-.7-.4-.9v-1.2c0-1.2-.6-2.3-1.7-2.9 0-.9.1-2-.3-2.8 3.1.7 3.6 4.7 3.6 7.3.3 2.1-1.1 3.4-3.2 3.4zM20.1 30.6c-.5 0-.8-.4-.8-.8 0-.5.4-.8.8-.8.5 0 .8.4.8.8.1.4-.3.8-.8.8z"/><circle cx="25.1" cy="19" r="5"/></g></g></svg>