<svg xmlns="http://www.w3.org/2000/svg" xmlns:xlink="http://www.w3.org/1999/xlink" width="70" height="910" viewBox="0 0 70 910"><svg viewBox="-10 -10 70 70" enable-background="new 0 0 50 50" width="70" height="70" id="PracticeUpdate" y="0"><path fill="#231F20" d="M42.5 28.1v-20.2h-20.2l5.3 5.3-18.5 18.5c2.3 4 5.6 7.4 9.7 9.6l18.4-18.5 5.3 5.3z"/></svg><svg viewBox="-10 -10 70 70" enable-background="new 0 0 50 50" width="70" height="70" id="cardiology" y="70"><path fill="#231F20" d="M44.6 19.4c0-5.3-4.3-9.6-9.7-9.6-3.5 0-6.6 1.9-8.3 4.7-1.7-2.8-4.8-4.7-8.3-4.7-5.3 0-9.7 4.3-9.7 9.6 0 2.8 1.2 5.3 3.1 7l13.8 13.2c.3.3.6.5 1.1.5.4 0 .8-.2 1-.4l13.9-13.3c1.9-1.7 3.1-4.2 3.1-7"/></svg><svg viewBox="-10 -10 70 70" enable-background="new 0 0 50 50" width="70" height="70" id="coe" y="140"><path fill="#231F20" d="M41.7 13.7l-16.6-7.2-16.7 7.2c-.4.2-.7.6-.6 1.1.1.5.5.8 1 .8h1.2c0 .2-.1.4-.1.5 0 1 .7 1.8 1.7 1.9v14.7c-.9.1-1.7 1-1.7 1.9 0 .3.1.7.3 1-1 .1-1.8.9-1.8 1.9v1.9h33.2v-1.9c0-1-.8-1.9-1.8-1.9.2-.3.3-.6.3-.9 0-1-.8-1.8-1.7-1.9v-14.7c1-.1 1.7-.9 1.7-1.9 0-.2 0-.4-.1-.5h1.3c.5 0 .9-.3 1-.8.1-.5-.1-1-.6-1.2zm-16.6-5.6l14.1 6.1h-28.2l14.1-6.1zm10.2 24.7v-14.7h1.7v14.7h-1.7zm-1.4 0h-2.8v-14.7h2.8v14.7zm-4.2 0h-1.7v-14.7h1.7v14.7zm-3.1 0h-3.4v-14.7h3.4v14.7zm-4.7 0h-1.7v-14.7h1.7v14.7zm-3.1 0h-2.7v-14.7h2.7v14.7zm-4.1-14.7v14.7h-1.7v-14.7h1.7zm25.6 19.5v.5h-30.4v-.5c0-.3.2-.5.5-.5h29.4c.3 0 .5.2.5.5zm-1.6-2.8c0 .3-.2.6-.6.6h-26.2c-.3 0-.6-.2-.6-.6 0-.3.2-.6.6-.6h26.3c.3 0 .5.3.5.6zm0-18.6c0 .3-.2.6-.6.6h-26.299999999999997c-.3 0-.6-.2-.6-.6 0-.3.2-.5.5-.5h26.3c.5 0 .7.2.7.5z"/></svg><svg viewBox="-10 -10 70 70" enable-background="new 0 0 50 50" width="70" height="70" id="coe-fill" y="210"><path fill="#231F20" d="M41.7 13.7l-16.6-7.2-16.7 7.2c-.4.2-.7.6-.6 1.1.1.5.5.8 1 .8h1.2c0 .2-.1.4-.1.5 0 1 .7 1.8 1.7 1.9v14.7c-.9.1-1.7 1-1.7 1.9 0 .3.1.7.3 1-1 .1-1.8.9-1.8 1.9v1.9h33.2v-1.9c0-1-.8-1.9-1.8-1.9.2-.3.3-.6.3-.9 0-1-.8-1.8-1.7-1.9v-14.7c1-.1 1.7-.9 1.7-1.9 0-.2 0-.4-.1-.5h1.3c.5 0 .9-.3 1-.8.1-.5-.1-1-.6-1.2zm-7.8 19.1h-2.8v-14.7h2.8v14.7zm-7.3 0h-3.4v-14.7h3.4v14.7zm-7.8 0h-2.7v-14.7h2.7v14.7z"/></svg><svg viewBox="-10 -10 70 70" enable-background="new 0 0 50 50" width="70" height="70" id="dermatology" y="280"><g fill-rule="evenodd" clip-rule="evenodd" fill="#231F20"><path d="M25.3 31.6c1.3-1.8 1.2-2.9-.4-3.6.5-1 .6-2-.4-2.7-1.1-.8-2-.2-2.8.6-.3-.6-.7-1.1-1.4-1.3-.7-.2-1.3 0-1.8.5-.4.3-.7.7-1 1-.4.5-.9.6-1.5.6-.9-.1-1.3-.7-1-1.5.8-2.1 1.7-4.2 2.5-6.4.3-.8.3-1.6.4-2.5.2-1.3.4-2.5.9-3.7.7-1.4 1.6-2.7 2.7-3.8 1.8-1.8 4-3 6.5-3.5 3.6-.7 6.9-.1 10 1.9 2.7 1.8 4.5 4.2 5.3 7.3 1.4 5.3 0 9.9-4.1 13.5-.3.2-.4.4-.4.8v10.6h-13.9v-3.5c0-.1.1-.3.2-.4l.8-.8c1.2-1 .9-2.5-.6-3.1zm10.7-9.8c0-1.9-1.6-3.6-3.5-3.8-.3 0-.5.1-.5.4 0 .4.1.6.5.6 1.9.3 3 2.3 2.1 4-.5.9-1.2 1.4-2.2 1.5-.5.1-.5.3-.4.7 0 .4.3.4.6.3 1.9-.1 3.4-1.8 3.4-3.7zm-13.6-2.4c0-.8-.7-1.4-1.4-1.4-.8 0-1.5.7-1.5 1.5s.7 1.4 1.5 1.4 1.4-.7 1.4-1.5zm7.4 10.9c0-.5-.5-1-.9-1-.5 0-.9.5-1 .9 0 .5.4 1 .9 1 .6.1 1-.4 1-.9zm-.1-4.9c-.5 0-.9.4-.9.9s.4.9 1 .9c.5 0 .9-.4.9-1 0-.4-.4-.8-1-.8zm-1.3-.6c-.2-.1-.4-.4-.6-.4-.2 0-.5.3-.6.6-.1.3.1.6.6.6.4 0 .5-.2.6-.8zm-.9 2.3h-.3c-.2.2-.4.5-.4.7 0 .4.3.6.6.6.2-.1.5-.4.6-.6 0-.2-.3-.5-.5-.7zm4.3 1.5c-.1-.1-.4-.4-.6-.5-.2 0-.5.3-.6.5-.1.4.1.6.5.7.4.1.6-.1.7-.7z"/><path d="M11.8 32.9c.1-.1.2-.2.4-.3l6.8-6.8.4-.4c.4-.3 1-.2 1.3.2.3.3.3 1-.1 1.3l-2.7 2.7-2.8 2.8c-.5.5.2.5.4.9l2.3-2.4 4.9-4.9c.6-.6 1.2-.5 1.7.1.3.5.2.9-.2 1.3-.7.8-1.5 1.5-2.2 2.2-1.6 1.6-3.2 3.3-4.9 4.9 0 0-.1.1-.1.2l.5.5 1.6-1.5 4.1-4.1.6-.6c.4-.4 1.1-.4 1.4-.1.4.4.5 1 0 1.5-1.5 1.5-3 3-4.4 4.5-.6.6-1.2 1.2-1.9 1.8l.6.7c.7-.7 1.3-1.3 1.9-2l2.7-2.7c.4-.4 1-.4 1.4 0 .4.4.4 1 0 1.4-1.1 1.2-2.3 2.3-3.5 3.5-.6.6-1.1 1.1-1.7 1.6-.2.2-.4.3-.7.3h-10.8c-.4 0-.5-.1-.5-.5.3-2.9.6-5.7.8-8.6.1-.6.1-1.2.2-1.9 0-.4.2-.5.6-.4.8.2 1.7.7 1.6 1.9v2.7c.2.1.2.1.3.2z"/></g></svg><svg viewBox="-10 -10 70 70" enable-background="new 0 0 50 50" width="70" height="70" id="diabetes" y="350"><g fill="#231F20"><path d="M41.1 32.6c0 1-.4 1.9-1.1 2.6-.7.7-1.6 1.1-2.6 1.1s-1.9-.4-2.6-1.1c-.7-.7-1.1-1.6-1.1-2.6 0-.7.2-1.3.6-1.9l.4-.6c.3-.4.5-.7.7-1.1.2-.3.4-.7.7-1.3.3-.5.5-1 .6-1.4 0-.1.1-.3.2-.3.1-.1.2-.1.4-.1.1 0 .2 0 .4.1.1.1.2.2.2.3.1.4.3.9.6 1.4.3.5.5.9.7 1.3.2.3.4.7.7 1.1.3.4.4.6.4.6.6.5.8 1.2.8 1.9z"/><path d="M37.5 14.9h-10.7c.3-.8.4-1.6.4-2.5 0-1.6-.5-2.9-1.6-3.8-1.1-.9-2.4-1.3-4.1-1.3-.5 0-1 .1-1.4.3-.4.2-.8.6-1.1 1-.3.4-.6.8-.8 1.3-.2.4-.5.9-.7 1.4-.3.5-.5 1-.7 1.2-.5.7-1.1 1.6-2 2.6 0 0-.1.2-.3.3l-.4.4-.4.4c-.2.2-.3.3-.5.4-.1.1-.3.2-.4.4l-.5.3c-.2.1-.3.1-.4.1h-2.9v2.6h3c.9 0 1.9-.4 2.8-1.1.4-.3 1.1-1 2-2.1 1-1.1 1.7-2 2.2-2.9.2-.3.4-.7.7-1.3.9-1.8 1.5-2.8 1.8-2.8.9 0 1.7.2 2.3.6.6.4.9 1.1.9 1.9 0 .6-.1 1.1-.3 1.7-.2.6-.4 1-.7 1.4l-.7 1.1c-.2.4-.3.7-.3 1h14.899999999999999c1.1 0 2 .9 2 2s-.9 2-2 2h-9.8c.2.2.4.5.5.9.1.4.2.8.2 1.1 0 .9-.4 1.7-1.1 2.4.2.4.4.9.4 1.4 0 .5-.1 1-.3 1.5-.2.5-.5.8-.9 1 .1.4.1.8.1 1.1 0 2.2-1.3 3.3-3.8 3.3-1.1 0-2.3-.2-3.6-.6-1.3-.4-2.6-.8-3.8-1.3-1.3-.4-2.4-.6-3.3-.6h-3.2v2.5h3c.8 0 2.3.4 4.4 1.2 2.5.9 4.6 1.4 6.4 1.4 1.9 0 3.4-.5 4.5-1.6s1.7-2.5 1.7-4.4c.8-1 1.2-2.2 1.2-3.5 0-.3 0-.6-.1-.9.4-.8.7-1.5.7-2.4h6.7c2.5 0 4.5-2.1 4.5-4.6.1-2.4-1.9-4.4-4.5-4.5z"/></g></svg><svg viewBox="-10 -10 70 70" enable-background="new 0 0 50 50" width="70" height="70" id="eyecare" y="420"><path fill="#231F20" d="M46.4 25.4c0 .5-.2 1-.5 1.6-2.1 3.5-5 6.3-8.6 8.4-3.6 2.1-7.4 3.2-11.4 3.2s-7.8-1.1-11.4-3.2c-3.5-2.2-6.3-5-8.5-8.5-.3-.5-.5-1.1-.5-1.6s.2-1 .5-1.6c2.1-3.5 5-6.3 8.6-8.4 3.6-2.1 7.4-3.2 11.4-3.2s7.8 1.1 11.4 3.2c3.6 2.1 6.5 4.9 8.6 8.4.3.6.4 1.2.4 1.7zm-2.9 0c-2.3-3.6-5.2-6.3-8.7-8.1.9 1.6 1.4 3.3 1.4 5.1 0 2.8-1 5.2-3 7.2s-4.4 3-7.2 3-5.2-1-7.2-3-3-4.4-3-7.2c0-1.8.5-3.6 1.4-5.1-3.5 1.8-6.4 4.5-8.7 8.1 2 3.1 4.6 5.6 7.6 7.4 3 1.8 6.4 2.8 9.9 2.8s6.9-.9 9.9-2.8c3.1-1.8 5.6-4.3 7.6-7.4zm-16.7-8c.2-.2.3-.5.3-.8 0-.3-.1-.6-.3-.8-.2-.2-.5-.3-.8-.3-1.9 0-3.5.7-4.9 2-1.4 1.4-2 3-2 4.9 0 .3.1.6.3.8.2.2.5.3.8.3.3 0 .6-.1.8-.3.2-.2.3-.5.3-.8 0-1.3.5-2.4 1.4-3.4s2-1.4 3.4-1.4c.2.1.5 0 .7-.2z"/></svg><svg viewBox="-10 -10 70 70" enable-background="new 0 0 50 50" width="70" height="70" id="gastroenterology" y="490"><g fill="#231F20"><path d="M22.2 21.9c1.4 0 2.7-.1 3.9-.7 1.2-.6 6.8-4.8 6.4-6.2-.4-1.8-6.6-1.5-7.9-1.8-2.7-.5-6-1.5-9-1.5-.5 0-1 0-1.4.1-6.9 1-7.4 8.1-7.6 13.8v-.2.7c0 1.8.8 2.4 1.8 2.4.9 0 2-.4 3-.9 2.8-1.2 5.5-2.7 7.9-4.6 1.2-.9 1.5-1.1 2.9-1.1z"/><path d="M30 7.1h-3.6c0 1.4-.1 2.9 0 4.4 1.2.1 2.5.1 3.6.3-.3-1.6 0-3.4 0-4.7z"/><path d="M40 14.4c-2-.5-3.8.3-5.6.4.2 1.4-.8 2.9-3.3 5l-.2.3c.9 2.5.8 5.2-1.5 7.3-4 3.6-6.5-1-10.2-1.2-.4 0-.8 0-1.2.1-.6.4-1.3.8-1.9 1.1-2.4 2.7-1.8 9.1-1.8 11.8h3.9c0-2.1-.5-4.6.2-6.7 1-3 4.4 1.6 6.3 3.4 4.7 4.7 12.8.5 16.9-4.2 3.2-3.7 5.3-15.5-1.6-17.3z"/></g></svg><svg viewBox="-10 -10 70 70" enable-background="new 0 0 50 50" width="70" height="70" id="neurology" y="560"><path fill="#231F20" d="M24.2 9.5c2.7-1.6 5.3-1.3 7.7.6.5-.1 1-.1 1.6-.1 1.6 0 3 .6 4.2 1.8.5.5.9 1 1.2 1.6.1.2.2.3.4.4.5.2.9.4 1.4.7l.9.7c1 1 1.6 2.1 1.8 3.5.1.9.1 1.7-.1 2.6 2 2.8 1.5 6-.4 8.1-.1.5-.2 1.1-.4 1.6-.2.7-.6 1.3-1 1.8-.6.7-1.3 1.3-2.2 1.7-.6.3-1.1.7-1.6 1.1-.6.5-1.1 1.1-1.5 1.7-.6.8-1 1.7-1.3 2.7-.1.4-.2.9-.3 1.4 0 .1 0 .2-.2.3h-2.1c-.1-.1-.1-.2-.1-.3v-6.4c0-.8.1-1.5.3-2.3.2-1 .8-1.7 1.6-2.3.5-.4 1.2-.7 1.6-1.2.3 0 .5.2.8.3.7.4 1.3 1 1.7 1.7.2.3.4.5.8.5.5-.2.7-.4.7-.8 0-.1-.1-.2-.1-.4-.5-.8-1.1-1.4-1.8-2-.3-.2-.6-.4-1-.6.4-.8.7-1.6.8-2.4.1-.9.1-1.7-.2-2.6.7-.3 1.4-.4 2-.8.6-.4 1.1-.8 1.6-1.4.1-.2 0-.4 0-.6-.4-.6-.8-.6-1.3-.1-.7.7-1.4 1.1-2.3 1.3-.2 0-.4.1-.6 0-.5-.8-1.2-1.6-2-2.1s-1.7-.9-2.8-1c.2-1.1.5-1.9 1.2-2.7l.2-.2c.3-.3.2-.7 0-1-.3-.2-.7-.2-1 0l-.8.9c-.5.7-.8 1.6-1 2.5 0 .1 0 .2-.1.3-.4 0-.7-.1-1.1-.3-1.1-.5-2-1.2-2.5-2.4-.3-.6-.5-1.1-.5-1.7 0-.2 0-.3-.1-.5-.1-.4-.4-.7-.8-.7s-.7.4-.6.8c0 .3 0 .7.1 1-.4.4-.9.7-1.4.9-1.5.6-3 .4-4.4-.4l-.9-.7c-.1-.1-.3-.2-.4-.2-.2 0-.3.1-.5.2-.3.3-.4.7-.1 1 .2.2.3.4.6.5.4.3.8.6 1.2.8.2 1-1 3.2-2.3 3.7-.9-1.3-2.1-2.1-3.5-2.5-.4.1-.4.1-.7.4-.1.6 0 .8.6 1 .8.3 1.6.8 2.2 1.5 0 0 .1.1.1.2-.2.1-.5.2-.7.2-.6 0-1.2.1-1.8.2-1.1.2-2 .7-2.8 1.4l-.2.2c-.5.4-.4 1 .2 1.3.1 0 .1 0 .2.1.3 0 .5-.2.7-.4.7-.7 1.6-1.1 2.6-1.2.7-.1 1.5 0 2.2-.2 1.2-.3 2.3-.9 3.2-1.8.9-.9 1.5-2 1.7-3.3 0 0 0-.1.1-.1 1.8.4 3.4-.1 4.9-1 .5.8 1 1.6 1.7 2.2-.7.9-1.2 2-1.3 3.1-.3.1-.5.1-.7.1-1.1-.1-2.1.2-3.1.7 0 0-.1 0-.2.1-.3.2-.5.5-.3.9.1.3.5.5.8.4l.7-.3c.9-.4 1.8-.5 2.7-.3.1.2.1.5.2.8.3 1 .8 1.9 1.4 2.7.2.2.4.3.6.4.4 0 .7-.3.8-.7 0-.3-.2-.5-.4-.7-.6-.6-.9-1.4-1.1-2.2-.3-1.3 0-2.6.7-3.7.1-.2.2-.3.4-.4l1.1.4c.5.1 1 .2 1.6.2 1 0 1.9.2 2.7.8.4.3.8.6 1.2 1 .6.7.9 1.4 1.1 2.2l.1.8c-.1.1-.3 0-.4 0-1.1-.2-2.3-.1-3.3.3l-.4.2c-.3.3-.3.5-.1.9.2.3.4.4.8.3.4-.1.8-.3 1.2-.3.6-.1 1.2-.1 1.8.1l.2.1c-.1.5-.3 1-.6 1.4-.5.7-1.2 1.2-1.9 1.6-1.3.8-2.1 1.9-2.5 3.4-.3.9-.3 1.8-.3 2.7v6.6h-1.8c-.1 0-.2 0-.3-.1-.1-.1 0-.3 0-.5v-6.1c0-1-.2-1.9-.7-2.7-.7-1.5-1.8-2.5-3.4-3.2-.6-.3-1.2-.7-1.7-1.1-.1-.1-.2-.3-.5-.4-2.3 1.4-4.7 1.4-7 0-.1 0-.2 0-.3.1-.8.5-1.7.7-2.6.9-1.3.2-2.4-.1-3.6-.6-1.2-.6-2.1-1.5-2.7-2.7-.4-.8-.6-1.6-.7-2.5-.1-1.1.1-2.2.6-3.2.4-1 1.1-1.7 1.9-2.4.3-.2.6-.5 1-.6.2-.1.4-.2.4-.5.1-.4.2-.8.4-1.1.1-.3.3-.6.5-.8.2-.2.3-.5.6-.7 1-1 2.2-1.6 3.5-1.9.3-.1.6 0 1 0h.5c1.8-2.9 5.3-3.6 8.1-2.2z"/></svg><svg viewBox="-10 -10 70 70" enable-background="new 0 0 50 50" width="70" height="70" id="oncology" y="630"><path fill="#231F20" d="M25.1 7.6c-9.6 0-17.4 7.8-17.4 17.4s7.8 17.4 17.4 17.4c9.6 0 17.4-7.8 17.4-17.4s-7.8-17.4-17.4-17.4zm-12.2 10.7h6.7v6.2h-6.7v-6.2zm7.5 20c-1.6 0-2.9-1.3-2.9-2.9 0-1.6 1.3-2.9 2.9-2.9 1.6 0 2.9 1.3 2.9 2.9 0 1.6-1.3 2.9-2.9 2.9zm4.2-8.6c-1.6 0-2.9-1.3-2.9-2.9 0-1.6 1.3-2.9 2.9-2.9 1.6 0 2.9 1.3 2.9 2.9 0 1.7-1.3 2.9-2.9 2.9zm2.9-13.4c-1.6 0-2.9-1.3-2.9-2.9 0-1.6 1.3-2.9 2.9-2.9 1.6 0 2.9 1.3 2.9 2.9-.1 1.6-1.4 2.9-2.9 2.9zm5.7 19.2c-1.6 0-2.9-1.3-2.9-2.9 0-1.6 1.3-2.9 2.9-2.9 1.6 0 2.9 1.3 2.9 2.9-.1 1.6-1.3 2.9-2.9 2.9zm1.3-10.4c-1.6 0-2.9-1.3-2.9-2.9 0-1.6 1.3-2.9 2.9-2.9 1.6 0 2.9 1.3 2.9 2.9 0 1.6-1.3 2.9-2.9 2.9z"/></svg><svg viewBox="-10 -10 70 70" enable-background="new 0 0 50 50" width="70" height="70" id="primarycare" y="700"><g fill="#231F20"><g><path d="M32.9 8.4c-.3-1 .3-2.1 1.3-2.4 1-.3 2.1.3 2.4 1.3.3 1-.3 2.1-1.3 2.4l-1.9.6-.5-1.9zM23.6 6.7c-.8-.7-.8-2-.1-2.7.7-.8 2-.8 2.7-.1.8.7.8 2 .1 2.7l-1.3 1.4-1.4-1.3zM14.6 9.8c-1-.2-1.7-1.3-1.4-2.3.2-1 1.3-1.7 2.3-1.4 1 .2 1.7 1.3 1.4 2.3l-.4 1.9-1.9-.5zM8.4 17.1c-1 .3-2.1-.3-2.4-1.3-.3-1 .3-2.1 1.3-2.4 1-.3 2.1.3 2.4 1.3l.6 1.9-1.9.5zM6.7 26.4c-.7.8-2 .8-2.7.1-.8-.7-.8-2-.1-2.7.7-.8 2-.8 2.7-.1l1.4 1.3-1.3 1.4zM9.8 35.4c-.2 1-1.3 1.7-2.3 1.4-1-.2-1.7-1.3-1.4-2.3.2-1 1.3-1.7 2.3-1.4l1.9.4-.5 1.9zM17.1 41.6c.3 1-.3 2.1-1.3 2.4-1 .3-2.1-.3-2.4-1.3-.3-1 .3-2.1 1.3-2.4l1.8-.6.6 1.9zM26.4 43.3c.8.7.8 2 .1 2.7-.7.8-2 .8-2.7.1-.8-.7-.8-2-.1-2.7l1.3-1.4 1.4 1.3zM35.4 40.2c1 .2 1.7 1.3 1.4 2.3-.2 1-1.3 1.7-2.3 1.4-1-.2-1.7-1.3-1.4-2.3l.4-1.9 1.9.5zM41.6 32.9c1-.3 2.1.3 2.4 1.3.3 1-.3 2.1-1.3 2.4-1 .3-2.1-.3-2.4-1.3l-.6-1.8 1.9-.6zM43.3 23.6c.7-.8 2-.8 2.7-.1.8.7.8 2 .1 2.7-.7.8-2 .8-2.7.1l-1.4-1.3 1.3-1.4zM40.2 14.6c.2-1 1.3-1.7 2.3-1.4 1 .2 1.7 1.3 1.4 2.3-.2 1-1.3 1.7-2.3 1.4l-1.9-.4.5-1.9zM32.9 8.4c-.3-1 .3-2.1 1.3-2.4 1-.3 2.1.3 2.4 1.3.3 1-.3 2.1-1.3 2.4l-1.9.6-.5-1.9zM23.6 6.7c-.8-.7-.8-2-.1-2.7.7-.8 2-.8 2.7-.1.8.7.8 2 .1 2.7l-1.3 1.4-1.4-1.3zM14.6 9.8c-1-.2-1.7-1.3-1.4-2.3.2-1 1.3-1.7 2.3-1.4 1 .2 1.7 1.3 1.4 2.3l-.4 1.9-1.9-.5zM8.4 17.1c-1 .3-2.1-.3-2.4-1.3-.3-1 .3-2.1 1.3-2.4 1-.3 2.1.3 2.4 1.3l.6 1.9-1.9.5zM6.7 26.4c-.7.8-2 .8-2.7.1-.8-.7-.8-2-.1-2.7.7-.8 2-.8 2.7-.1l1.4 1.3-1.3 1.4zM9.8 35.4c-.2 1-1.3 1.7-2.3 1.4-1-.2-1.7-1.3-1.4-2.3.2-1 1.3-1.7 2.3-1.4l1.9.4-.5 1.9zM17.1 41.6c.3 1-.3 2.1-1.3 2.4-1 .3-2.1-.3-2.4-1.3-.3-1 .3-2.1 1.3-2.4l1.8-.6.6 1.9zM26.4 43.3c.8.7.8 2 .1 2.7-.7.8-2 .8-2.7.1-.8-.7-.8-2-.1-2.7l1.3-1.4 1.4 1.3zM35.4 40.2c1 .2 1.7 1.3 1.4 2.3-.2 1-1.3 1.7-2.3 1.4-1-.2-1.7-1.3-1.4-2.3l.4-1.9 1.9.5z"/></g><g><path d="M30.7 33.9h-11.3c-2.1 0-3.5-1.2-3.5-3.4 0-2.6.5-6.6 3.6-7.3-.2.5-.3 1-.3 1.6v2.6c-1 .4-1.7 1.3-1.7 2.3 0 1.4 1.1 2.5 2.5 2.5s2.5-1.1 2.5-2.5c0-1-.7-2-1.7-2.3v-2.6c0-.4 0-.9.3-1.2 1.1.9 2.4 1.3 3.8 1.3s2.7-.5 3.8-1.3c.3.3.3.8.3 1.2v.8c-1.8 0-3.3 1.5-3.3 3.3v1.2c-.3.2-.4.6-.4.9 0 .7.6 1.2 1.2 1.2.7 0 1.2-.6 1.2-1.2 0-.3-.2-.7-.4-.9v-1.2c0-.9.8-1.7 1.7-1.7.9 0 1.7.7 1.7 1.7v1.2c-.3.2-.4.6-.4.9 0 .7.6 1.2 1.2 1.2.7 0 1.2-.6 1.2-1.2 0-.3-.2-.7-.4-.9v-1.2c0-1.2-.6-2.3-1.7-2.9 0-.9.1-2-.3-2.8 3.1.7 3.6 4.7 3.6 7.3.3 2.1-1.1 3.4-3.2 3.4zM20.1 30.6c-.5 0-.8-.4-.8-.8 0-.5.4-.8.8-.8.5 0 .8.4.8.8.1.4-.3.8-.8.8z"/><circle cx="25.1" cy="19" r="5"/></g></g></svg><svg viewBox="-10 -10 70 70" enable-background="new 0 0 50 50" width="70" height="70" id="teardrop" y="770"><symbol id="la" viewBox="0 -50 50 50"><path fill="#231F20" d="M25 0c-13.8 0-25-11.2-25-25s11.2-25 25-25 25 11.2 25 25v25h-25z"/></symbol><use xlink:href="#la" width="50" height="50" y="-50" transform="scale(1 -1)" overflow="visible"/></svg><svg viewBox="-10 -10 70 70" enable-background="new 0 0 50 50" width="70" height="70" id="urology" y="840"><g fill="#231F20"><path d="M23.4 20c0-.4-.4-.7-.9-.7s-.9.3-.9.7l-.3 5.2c-.3-.8-.7-1.5-2.3-3-.3-.4-.9-1.5-.7-2.5 0 0 4.9-.8 2-6.6-.4-.9-3.4-3.1-7.5-1.6-.3.1-6 1.8-7.2 9 0 .4-1.7 6 1.6 11.4.1.4 3.3 6.5 9 3.7.5-.2 5.1-1.8 3.1-7.3-.1-.4-1.5-1.6-.8-2.1.3 0 1.1-.2 2.2 2.4.2.5 0 2.8.7 4.1 0 .1.1 3.6.1 3.6 0 .4.4.7.9.7s.9-.3.9-.7l.1-16.3z"/><path d="M27.5 20c0-.4.4-.7.9-.7s.9.3.9.7l.3 5.2c.3-.8.7-1.5 2.3-3 .3-.4.9-1.5.7-2.5 0 0-4.9-.8-2-6.6.4-.9 3.4-3.1 7.5-1.6.3.1 6 1.8 7.2 9 0 .4 1.7 6-1.6 11.4-.1.4-3.3 6.5-9 3.7-.5-.2-5.1-1.8-3.1-7.3.1-.4 1.5-1.6.8-2.1-.3 0-1.1-.2-2.2 2.4-.2.5 0 2.8-.7 4.1 0 .1-.1 3.6-.1 3.6 0 .4-.4.7-.9.7s-.9-.3-.9-.7l-.1-16.3z"/></g></svg></svg>