<svg xmlns="http://www.w3.org/2000/svg" xmlns:sketch="http://www.bohemiancoding.com/sketch/ns" width="68" height="68" viewBox="-10 -10 68 68"><title>coe</title><desc>Created with Sketch.</desc><g sketch:type="MSLayerGroup" transform="translate(1 2)" fill="#000"><path d="M45.543 9.092v3.12h-3.032c0 .852-.736 1.562-1.635 1.562h-36.174c-.902 0-1.635-.706-1.635-1.562h-3.032v-3.12l22.756-9.364 22.752 9.364zM45.543 40.617v2.809h-45.512v-2.809c0-1.163.736-1.873 1.937-1.873h41.638c1.201 0 1.937.706 1.937 1.873zM12.457 15.332v18.874h2.817v-18.874h5.634v18.874h3.756v-18.874h5.634v18.874h2.817v-18.874h6.573v18.874h.939c1.145-.143 1.878.563 1.878.993v1.987h-39.436v-1.987c0-.427.736-1.137 1.878-.993h.939v-18.874h6.573z" sketch:type="MSShapeGroup"/></g></svg>