<svg xmlns="http://www.w3.org/2000/svg" xmlns:sketch="http://www.bohemiancoding.com/sketch/ns" width="68" height="68" viewBox="-10 -10 68 68"><title>dermatology</title><desc>Created with Sketch.</desc><g sketch:type="MSLayerGroup" transform="translate(6 7)" fill="#231F20"><path d="M17.3 26.6c1.3-1.8 1.2-2.9-.4-3.6.5-1 .6-2-.4-2.7-1.1-.8-2-.2-2.8.6-.3-.6-.7-1.1-1.4-1.3-.7-.2-1.3 0-1.8.5-.4.3-.7.7-1 1-.4.5-.9.6-1.5.6-.9-.1-1.3-.7-1-1.5.8-2.1 1.7-4.2 2.5-6.4.3-.8.3-1.6.4-2.5.2-1.3.4-2.5.9-3.7.7-1.4 1.6-2.7 2.7-3.8 1.8-1.8 4-3 6.5-3.5 3.6-.7 6.9-.1 10 1.9 2.7 1.8 4.5 4.2 5.3 7.3 1.4 5.3 0 9.9-4.1 13.5-.3.2-.4.4-.4.8v10.6h-13.9v-3.5c0-.1.1-.3.2-.4l.8-.8c1.2-1 .9-2.5-.6-3.1zm10.7-9.8c0-1.9-1.6-3.6-3.5-3.8-.3 0-.5.1-.5.4 0 .4.1.6.5.6 1.9.3 3 2.3 2.1 4-.5.9-1.2 1.4-2.2 1.5-.5.1-.5.3-.4.7 0 .4.3.4.6.3 1.9-.1 3.4-1.8 3.4-3.7zm-13.6-2.4c0-.8-.7-1.4-1.4-1.4-.8 0-1.5.7-1.5 1.5s.7 1.4 1.5 1.4 1.4-.7 1.4-1.5zm7.4 10.9c0-.5-.5-1-.9-1-.5 0-.9.5-1 .9 0 .5.4 1 .9 1 .6.1 1-.4 1-.9zm-.1-4.9c-.5 0-.9.4-.9.9s.4.9 1 .9c.5 0 .9-.4.9-1 0-.4-.4-.8-1-.8zm-1.3-.6c-.2-.1-.4-.4-.6-.4-.2 0-.5.3-.6.6-.1.3.1.6.6.6.4 0 .5-.2.6-.8zm-.9 2.3h-.3c-.2.2-.4.5-.4.7 0 .4.3.6.6.6.2-.1.5-.4.6-.6 0-.2-.3-.5-.5-.7zm4.3 1.5c-.1-.1-.4-.4-.6-.5-.2 0-.5.3-.6.5-.1.4.1.6.5.7.4.1.6-.1.7-.7z" sketch:type="MSShapeGroup"/><path d="M3.8 27.9c.1-.1.2-.2.4-.3l6.8-6.8.4-.4c.4-.3 1-.2 1.3.2.3.3.3 1-.1 1.3l-2.7 2.7-2.8 2.8c-.5.5.2.5.4.9l2.3-2.4 4.9-4.9c.6-.6 1.2-.5 1.7.1.3.5.2.9-.2 1.3-.7.8-1.5 1.5-2.2 2.2-1.6 1.6-3.2 3.3-4.9 4.9 0 0-.1.1-.1.2l.5.5 1.6-1.5 4.1-4.1.6-.6c.4-.4 1.1-.4 1.4-.1.4.4.5 1 0 1.5-1.5 1.5-3 3-4.4 4.5-.6.6-1.2 1.2-1.9 1.8l.6.7c.7-.7 1.3-1.3 1.9-2l2.7-2.7c.4-.4 1-.4 1.4 0 .4.4.4 1 0 1.4-1.1 1.2-2.3 2.3-3.5 3.5-.6.6-1.1 1.1-1.7 1.6-.2.2-.4.3-.7.3h-10.8c-.4 0-.5-.1-.5-.5.3-2.9.6-5.7.8-8.6.1-.6.1-1.2.2-1.9 0-.4.2-.5.6-.4.8.2 1.7.7 1.6 1.9v2.7c.2.1.2.1.3.2z" sketch:type="MSShapeGroup"/></g></svg>