<svg xmlns="http://www.w3.org/2000/svg" xmlns:sketch="http://www.bohemiancoding.com/sketch/ns" width="68" height="68" viewBox="-10 -10 68 68"><title>elsevier-author</title><desc>Created with Sketch.</desc><path d="M7.687 41.017c2.001-.213 3.299-.571 3.892-1.076.593-.505.89-1.784.89-3.839v-24.204c0-1.931-.292-3.193-.877-3.786s-1.886-.961-3.906-1.103v-1.01h28.906l.186 7.811h-1.382c-.461-2.409-1.151-3.968-2.072-4.676-.921-.708-2.976-1.063-6.164-1.063h-7.386c-.797 0-1.289.128-1.475.385-.186.257-.279.739-.279 1.448v12.142h8.369c2.32 0 3.799-.345 4.437-1.036.638-.691 1.151-2.09 1.541-4.198h1.275v12.593h-1.275c-.407-2.108-.93-3.503-1.568-4.185-.638-.682-2.108-1.023-4.41-1.023h-8.369v13.47c0 1.08.341 1.718 1.023 1.913.682.195 2.723.292 6.124.292 3.684 0 6.403-.403 8.156-1.209 1.754-.806 3.33-2.759 4.729-5.858h1.514l-2.471 9.193h-29.411v-.983z" sketch:type="MSShapeGroup" fill="#262626"/></svg>