<svg xmlns="http://www.w3.org/2000/svg" xmlns:sketch="http://www.bohemiancoding.com/sketch/ns" width="68" height="68" viewBox="-10 -10 68 68"><title>neurology</title><desc>Created with Sketch.</desc><path d="M30.9 10.1c.5-.1 1-.1 1.6-.1 1.6 0 3 .6 4.2 1.8.5.5.9 1 1.2 1.6.1.2.2.3.4.4.5.2.9.4 1.4.7l.9.7c1 1 1.6 2.1 1.8 3.5.1.9.1 1.7-.1 2.6 2 2.8 1.5 6-.4 8.1-.1.5-.2 1.1-.4 1.6-.2.7-.6 1.3-1 1.8-.6.7-1.3 1.3-2.2 1.7-.6.3-1.1.7-1.6 1.1-.6.5-1.1 1.1-1.5 1.7-.6.8-1 1.7-1.3 2.7-.1.4-.2.9-.3 1.4 0 .1 0 .2-.2.3h-2.1c-.1-.1-.1-.2-.1-.3v-6.4c0-.8.1-1.5.3-2.3.2-1 .8-1.7 1.6-2.3.5-.4 1.2-.7 1.6-1.2.3 0 .5.2.8.3.7.4 1.3 1 1.7 1.7.2.3.4.5.8.5.5-.2.7-.4.7-.8 0-.1-.1-.2-.1-.4-.5-.8-1.1-1.4-1.8-2-.3-.2-.6-.4-1-.6.4-.8.7-1.6.8-2.4.1-.9.1-1.7-.2-2.6.7-.3 1.4-.4 2-.8.6-.4 1.1-.8 1.6-1.4.1-.2 0-.4 0-.6-.4-.6-.8-.6-1.3-.1-.7.7-1.4 1.1-2.3 1.3-.2 0-.4.1-.6 0-.5-.8-1.2-1.6-2-2.1s-1.7-.9-2.8-1c.2-1.1.5-1.9 1.2-2.7l.2-.2c.3-.3.2-.7 0-1-.3-.2-.7-.2-1 0l-.8.9c-.5.7-.8 1.6-1 2.5 0 .1 0 .2-.1.3-.4 0-.7-.1-1.1-.3-1.1-.5-2-1.2-2.5-2.4-.3-.6-.5-1.1-.5-1.7 0-.2 0-.3-.1-.5-.1-.4-.4-.7-.8-.7s-.7.4-.6.8c0 .3 0 .7.1 1-.4.4-.9.7-1.4.9-1.5.6-3 .4-4.4-.4l-.9-.7c-.1-.1-.3-.2-.4-.2-.2 0-.3.1-.5.2-.3.3-.4.7-.1 1 .2.2.3.4.6.5.4.3.8.6 1.2.8.2 1-1 3.2-2.3 3.7-.9-1.3-2.1-2.1-3.5-2.5-.4.1-.4.1-.7.4-.1.6 0 .8.6 1 .8.3 1.6.8 2.2 1.5 0 0 .1.1.1.2-.2.1-.5.2-.7.2-.6 0-1.2.1-1.8.2-1.1.2-2 .7-2.8 1.4l-.2.2c-.5.4-.4 1 .2 1.3.1 0 .1 0 .2.1.3 0 .5-.2.7-.4.7-.7 1.6-1.1 2.6-1.2.7-.1 1.5 0 2.2-.2 1.2-.3 2.3-.9 3.2-1.8.9-.9 1.5-2 1.7-3.3 0 0 0-.1.1-.1 1.8.4 3.4-.1 4.9-1 .5.8 1 1.6 1.7 2.2-.7.9-1.2 2-1.3 3.1-.3.1-.5.1-.7.1-1.1-.1-2.1.2-3.1.7 0 0-.1 0-.2.1-.3.2-.5.5-.3.9.1.3.5.5.8.4l.7-.3c.9-.4 1.8-.5 2.7-.3.1.2.1.5.2.8.3 1 .8 1.9 1.4 2.7.2.2.4.3.6.4.4 0 .7-.3.8-.7 0-.3-.2-.5-.4-.7-.6-.6-.9-1.4-1.1-2.2-.3-1.3 0-2.6.7-3.7.1-.2.2-.3.4-.4l1.1.4c.5.1 1 .2 1.6.2 1 0 1.9.2 2.7.8.4.3.8.6 1.2 1 .6.7.9 1.4 1.1 2.2l.1.8c-.1.1-.3 0-.4 0-1.1-.2-2.3-.1-3.3.3l-.4.2c-.3.3-.3.5-.1.9.2.3.4.4.8.3.4-.1.8-.3 1.2-.3.6-.1 1.2-.1 1.8.1l.2.1c-.1.5-.3 1-.6 1.4-.5.7-1.2 1.2-1.9 1.6-1.3.8-2.1 1.9-2.5 3.4-.3.9-.3 1.8-.3 2.7v6.6h-1.8c-.1 0-.2 0-.3-.1-.1-.1 0-.3 0-.5v-6.1c0-1-.2-1.9-.7-2.7-.7-1.5-1.8-2.5-3.4-3.2-.6-.3-1.2-.7-1.7-1.1-.1-.1-.2-.3-.5-.4-2.3 1.4-4.7 1.4-7 0-.1 0-.2 0-.3.1-.8.5-1.7.7-2.6.9-1.3.2-2.4-.1-3.6-.6-1.2-.6-2.1-1.5-2.7-2.7-.4-.8-.6-1.6-.7-2.5-.1-1.1.1-2.2.6-3.2.4-1 1.1-1.7 1.9-2.4.3-.2.6-.5 1-.6.2-.1.4-.2.4-.5.1-.4.2-.8.4-1.1.1-.3.3-.6.5-.8.2-.2.3-.5.6-.7 1-1 2.2-1.6 3.5-1.9.3-.1.6 0 1 0h.5c1.8-2.9 5.3-3.6 8.1-2.2 2.7-1.6 5.3-1.3 7.7.6z" sketch:type="MSShapeGroup" fill="#231F20"/></svg>