<svg xmlns="http://www.w3.org/2000/svg" xmlns:sketch="http://www.bohemiancoding.com/sketch/ns" width="68" height="68" viewBox="-10 -10 68 68"><title>oncology</title><desc>Created with Sketch.</desc><path d="M24.1 6.6c-9.6 0-17.4 7.8-17.4 17.4 0 9.6 7.8 17.4 17.4 17.4 9.6 0 17.4-7.8 17.4-17.4 0-9.6-7.8-17.4-17.4-17.4zm-12.2 10.7h6.7v6.2h-6.7v-6.2zm7.5 20c-1.6 0-2.9-1.3-2.9-2.9 0-1.6 1.3-2.9 2.9-2.9 1.6 0 2.9 1.3 2.9 2.9 0 1.6-1.3 2.9-2.9 2.9zm4.2-8.6c-1.6 0-2.9-1.3-2.9-2.9 0-1.6 1.3-2.9 2.9-2.9 1.6 0 2.9 1.3 2.9 2.9 0 1.7-1.3 2.9-2.9 2.9zm2.9-13.4c-1.6 0-2.9-1.3-2.9-2.9 0-1.6 1.3-2.9 2.9-2.9 1.6 0 2.9 1.3 2.9 2.9-.1 1.6-1.4 2.9-2.9 2.9zm5.7 19.2c-1.6 0-2.9-1.3-2.9-2.9 0-1.6 1.3-2.9 2.9-2.9 1.6 0 2.9 1.3 2.9 2.9-.1 1.6-1.3 2.9-2.9 2.9zm1.3-10.4c-1.6 0-2.9-1.3-2.9-2.9 0-1.6 1.3-2.9 2.9-2.9 1.6 0 2.9 1.3 2.9 2.9 0 1.6-1.3 2.9-2.9 2.9z" sketch:type="MSShapeGroup" fill="#231F20"/></svg>