<svg xmlns="http://www.w3.org/2000/svg" xmlns:sketch="http://www.bohemiancoding.com/sketch/ns" width="68" height="68" viewBox="-10 -10 68 68"><title>primarycare</title><desc>Created with Sketch.</desc><g sketch:type="MSLayerGroup" transform="translate(2 2)" fill="#231F20"><g sketch:type="MSShapeGroup"><path d="M29.9 5.4c-.3-1 .3-2.1 1.3-2.4 1-.3 2.1.3 2.4 1.3.3 1-.3 2.1-1.3 2.4l-1.9.6-.5-1.9zM20.6 3.7c-.8-.7-.8-2-.1-2.7.7-.8 2-.8 2.7-.1.8.7.8 2 .1 2.7l-1.3 1.4-1.4-1.3zM11.6 6.8c-1-.2-1.7-1.3-1.4-2.3.2-1 1.3-1.7 2.3-1.4 1 .2 1.7 1.3 1.4 2.3l-.4 1.9-1.9-.5zM5.4 14.1c-1 .3-2.1-.3-2.4-1.3-.3-1 .3-2.1 1.3-2.4 1-.3 2.1.3 2.4 1.3l.6 1.9-1.9.5zM3.7 23.4c-.7.8-2 .8-2.7.1-.8-.7-.8-2-.1-2.7.7-.8 2-.8 2.7-.1l1.4 1.3-1.3 1.4zM6.8 32.4c-.2 1-1.3 1.7-2.3 1.4-1-.2-1.7-1.3-1.4-2.3.2-1 1.3-1.7 2.3-1.4l1.9.4-.5 1.9zM14.1 38.6c.3 1-.3 2.1-1.3 2.4-1 .3-2.1-.3-2.4-1.3-.3-1 .3-2.1 1.3-2.4l1.8-.6.6 1.9zM23.4 40.3c.8.7.8 2 .1 2.7-.7.8-2 .8-2.7.1-.8-.7-.8-2-.1-2.7l1.3-1.4 1.4 1.3zM32.4 37.2c1 .2 1.7 1.3 1.4 2.3-.2 1-1.3 1.7-2.3 1.4-1-.2-1.7-1.3-1.4-2.3l.4-1.9 1.9.5zM38.6 29.9c1-.3 2.1.3 2.4 1.3.3 1-.3 2.1-1.3 2.4-1 .3-2.1-.3-2.4-1.3l-.6-1.8 1.9-.6zM40.3 20.6c.7-.8 2-.8 2.7-.1.8.7.8 2 .1 2.7-.7.8-2 .8-2.7.1l-1.4-1.3 1.3-1.4zM37.2 11.6c.2-1 1.3-1.7 2.3-1.4 1 .2 1.7 1.3 1.4 2.3-.2 1-1.3 1.7-2.3 1.4l-1.9-.4.5-1.9zM29.9 5.4c-.3-1 .3-2.1 1.3-2.4 1-.3 2.1.3 2.4 1.3.3 1-.3 2.1-1.3 2.4l-1.9.6-.5-1.9zM20.6 3.7c-.8-.7-.8-2-.1-2.7.7-.8 2-.8 2.7-.1.8.7.8 2 .1 2.7l-1.3 1.4-1.4-1.3zM11.6 6.8c-1-.2-1.7-1.3-1.4-2.3.2-1 1.3-1.7 2.3-1.4 1 .2 1.7 1.3 1.4 2.3l-.4 1.9-1.9-.5zM5.4 14.1c-1 .3-2.1-.3-2.4-1.3-.3-1 .3-2.1 1.3-2.4 1-.3 2.1.3 2.4 1.3l.6 1.9-1.9.5zM3.7 23.4c-.7.8-2 .8-2.7.1-.8-.7-.8-2-.1-2.7.7-.8 2-.8 2.7-.1l1.4 1.3-1.3 1.4zM6.8 32.4c-.2 1-1.3 1.7-2.3 1.4-1-.2-1.7-1.3-1.4-2.3.2-1 1.3-1.7 2.3-1.4l1.9.4-.5 1.9zM14.1 38.6c.3 1-.3 2.1-1.3 2.4-1 .3-2.1-.3-2.4-1.3-.3-1 .3-2.1 1.3-2.4l1.8-.6.6 1.9zM23.4 40.3c.8.7.8 2 .1 2.7-.7.8-2 .8-2.7.1-.8-.7-.8-2-.1-2.7l1.3-1.4 1.4 1.3zM32.4 37.2c1 .2 1.7 1.3 1.4 2.3-.2 1-1.3 1.7-2.3 1.4-1-.2-1.7-1.3-1.4-2.3l.4-1.9 1.9.5z" id="Shape"/></g><g transform="translate(13 11)" sketch:type="MSShapeGroup"><path d="M14.7 19.9h-11.3c-2.1 0-3.5-1.2-3.5-3.4 0-2.6.5-6.6 3.6-7.3-.2.5-.3 1-.3 1.6v2.6c-1 .4-1.7 1.3-1.7 2.3 0 1.4 1.1 2.5 2.5 2.5s2.5-1.1 2.5-2.5c0-1-.7-2-1.7-2.3v-2.6c0-.4 0-.9.3-1.2 1.1.9 2.4 1.3 3.8 1.3s2.7-.5 3.8-1.3c.3.3.3.8.3 1.2v.8c-1.8 0-3.3 1.5-3.3 3.3v1.2c-.3.2-.4.6-.4.9 0 .7.6 1.2 1.2 1.2.7 0 1.2-.6 1.2-1.2 0-.3-.2-.7-.4-.9v-1.2c0-.9.8-1.7 1.7-1.7.9 0 1.7.7 1.7 1.7v1.2c-.3.2-.4.6-.4.9 0 .7.6 1.2 1.2 1.2.7 0 1.2-.6 1.2-1.2 0-.3-.2-.7-.4-.9v-1.2c0-1.2-.6-2.3-1.7-2.9 0-.9.1-2-.3-2.8 3.1.7 3.6 4.7 3.6 7.3.3 2.1-1.1 3.4-3.2 3.4zM4.1 16.6c-.5 0-.8-.4-.8-.8 0-.5.4-.8.8-.8.5 0 .8.4.8.8.1.4-.3.8-.8.8z"/><circle cx="9" cy="5" r="5"/></g></g></svg>