<svg xmlns="http://www.w3.org/2000/svg" xmlns:sketch="http://www.bohemiancoding.com/sketch/ns" width="68" height="68" viewBox="-10 -10 68 68"><title>urology</title><desc>Created with Sketch.</desc><g sketch:type="MSLayerGroup" transform="translate(4 11)" fill="#231F20"><path d="M18.4 9c0-.4-.4-.7-.9-.7s-.9.3-.9.7l-.3 5.2c-.3-.8-.7-1.5-2.3-3-.3-.4-.9-1.5-.7-2.5 0 0 4.9-.8 2-6.6-.4-.9-3.4-3.1-7.5-1.6-.3.1-6 1.8-7.2 9 0 .4-1.7 6 1.6 11.4.1.4 3.3 6.5 9 3.7.5-.2 5.1-1.8 3.1-7.3-.1-.4-1.5-1.6-.8-2.1.3 0 1.1-.2 2.2 2.4.2.5 0 2.8.7 4.1 0 .1.1 3.6.1 3.6 0 .4.4.7.9.7s.9-.3.9-.7l.1-16.3z" sketch:type="MSShapeGroup"/><path d="M22.5 9c0-.4.4-.7.9-.7s.9.3.9.7l.3 5.2c.3-.8.7-1.5 2.3-3 .3-.4.9-1.5.7-2.5 0 0-4.9-.8-2-6.6.4-.9 3.4-3.1 7.5-1.6.3.1 6 1.8 7.2 9 0 .4 1.7 6-1.6 11.4-.1.4-3.3 6.5-9 3.7-.5-.2-5.1-1.8-3.1-7.3.1-.4 1.5-1.6.8-2.1-.3 0-1.1-.2-2.2 2.4-.2.5 0 2.8-.7 4.1 0 .1-.1 3.6-.1 3.6 0 .4-.4.7-.9.7s-.9-.3-.9-.7l-.1-16.3z" sketch:type="MSShapeGroup"/></g></svg>