<svg><defs><g id="COE-1-open"> <g id="f673ba52d0375e43b8437d8989bf203copen"> <g id="f673ba52d0375e43b8437d8989bf203cCOE-1_1_"> <g> <path fill="#231F20" d="M41.7,13.7L25.1,6.5L8.4,13.7c-0.4,0.2-0.7,0.6-0.6,1.1c0.1,0.5,0.5,0.8,1,0.8h1.2C10,15.8,10,16,10,16.2
				c0,1,0.7,1.8,1.7,1.9v14.7c-0.9,0.1-1.7,1-1.7,1.9c0,0.3,0.1,0.7,0.3,0.9c-1,0.1-1.8,0.9-1.8,1.9v1.9h33.2v-1.9
				c0-1-0.8-1.9-1.8-1.9c0.2-0.3,0.3-0.6,0.3-0.9c0-1-0.8-1.8-1.7-1.9V18.1c1-0.1,1.7-0.9,1.7-1.9c0-0.2,0-0.4-0.1-0.5h1.3
				c0.5,0,0.9-0.3,1-0.8C42.4,14.4,42.2,13.9,41.7,13.7z M25.1,8.1l14.1,6.1H11L25.1,8.1z M35.3,32.8V18.1H37v14.7H35.3z M33.9,32.8
				h-2.8V18.1h2.8V32.8z M29.7,32.8h-1.7V18.1h1.7V32.8z M26.6,32.8h-3.4V18.1h3.4V32.8z M21.9,32.8h-1.7V18.1h1.7V32.8z M18.8,32.8
				h-2.7V18.1h2.7V32.8z M14.7,18.1v14.7h-1.7V18.1H14.7z M40.3,37.6v0.5H9.9v-0.5c0-0.3,0.2-0.5,0.5-0.5h29.4
				C40.1,37.1,40.3,37.3,40.3,37.6z M38.7,34.8c0,0.3-0.2,0.6-0.6,0.6H11.9c-0.3,0-0.6-0.2-0.6-0.6c0-0.3,0.2-0.6,0.6-0.6h6.9h4.5
				h3.4h4.5h7C38.5,34.2,38.7,34.5,38.7,34.8z M38.7,16.2c0,0.3-0.2,0.6-0.6,0.6h-7h-4.5h-3.4h-4.5h-6.9c-0.3,0-0.6-0.2-0.6-0.6
				c0-0.3,0.2-0.5,0.5-0.5h26.3C38.5,15.7,38.7,15.9,38.7,16.2z"></path> </g> </g> </g> <g id="f673ba52d0375e43b8437d8989bf203cteardrop"> </g> </g><g id="COE-1"> <g id="b077372724f659d2df7c1fb6114a8403open"> </g> <g id="b077372724f659d2df7c1fb6114a8403teardrop"> <g id="b077372724f659d2df7c1fb6114a8403COE-1"> <g> <path fill="#231F20" d="M25,0C11.2,0,0,11.2,0,25c0,13.8,11.2,25,25,25s25-11.2,25-25V0H25z"></path> <path fill="#FFFFFF" d="M41.7,13.6L25.1,6.4L8.4,13.6c-0.4,0.2-0.7,0.6-0.6,1.1c0.1,0.5,0.5,0.8,1,0.8h1.2
				C10,15.7,10,15.9,10,16.1c0,1,0.7,1.8,1.7,1.9v14.7c-0.9,0.1-1.7,1-1.7,1.9c0,0.3,0.1,0.7,0.3,0.9c-1,0.1-1.8,0.9-1.8,1.9v1.9
				h33.2v-1.9c0-1-0.8-1.9-1.8-1.9c0.2-0.3,0.3-0.6,0.3-0.9c0-1-0.8-1.8-1.7-1.9V18c1-0.1,1.7-0.9,1.7-1.9c0-0.2,0-0.4-0.1-0.5h1.3
				c0.5,0,0.9-0.3,1-0.8C42.4,14.3,42.2,13.8,41.7,13.6z M25.1,8l14.1,6.1H11L25.1,8z M35.3,32.7V18H37v14.7H35.3z M33.9,32.7h-2.8
				V18h2.8V32.7z M29.7,32.7h-1.7V18h1.7V32.7z M26.6,32.7h-3.4V18h3.4V32.7z M21.9,32.7h-1.7V18h1.7V32.7z M18.8,32.7h-2.7V18h2.7
				V32.7z M14.7,18v14.7h-1.7V18H14.7z M40.3,37.5V38H9.9v-0.5c0-0.3,0.2-0.5,0.5-0.5h29.4C40.1,37,40.3,37.2,40.3,37.5z M38.7,34.7
				c0,0.3-0.2,0.6-0.6,0.6H11.9c-0.3,0-0.6-0.2-0.6-0.6c0-0.3,0.2-0.6,0.6-0.6h6.9h4.5h3.4h4.5h7C38.5,34.1,38.7,34.4,38.7,34.7z
				 M38.7,16.1c0,0.3-0.2,0.6-0.6,0.6h-7h-4.5h-3.4h-4.5h-6.9c-0.3,0-0.6-0.2-0.6-0.6c0-0.3,0.2-0.5,0.5-0.5h26.3
				C38.5,15.6,38.7,15.8,38.7,16.1z"></path> </g> </g> </g> </g><g id="COE-2-open"> <g id="03fb355c9bf6a8f65012c40d724eba24open"> <g id="03fb355c9bf6a8f65012c40d724eba24COE-2_1_"> <g> <path fill="#231F20" d="M41.7,13.7L25.1,6.5L8.4,13.7c-0.4,0.2-0.7,0.6-0.6,1.1c0.1,0.5,0.5,0.8,1,0.8h1.2C10,15.8,10,16,10,16.2
				c0,1,0.7,1.8,1.7,1.9v14.7c-0.9,0.1-1.7,1-1.7,1.9c0,0.3,0.1,0.7,0.3,0.9c-1,0.1-1.8,0.9-1.8,1.9v1.9h33.2v-1.9
				c0-1-0.8-1.9-1.8-1.9c0.2-0.3,0.3-0.6,0.3-0.9c0-1-0.8-1.8-1.7-1.9V18.1c1-0.1,1.7-0.9,1.7-1.9c0-0.2,0-0.4-0.1-0.5h1.3
				c0.5,0,0.9-0.3,1-0.8C42.4,14.4,42.2,13.9,41.7,13.7z M33.9,32.8h-2.8V18.1h2.8V32.8z M26.6,32.8h-3.4V18.1h3.4V32.8z M18.8,32.8
				h-2.7V18.1h2.7V32.8z"></path> </g> </g> </g> <g id="03fb355c9bf6a8f65012c40d724eba24teardrop"> </g> </g><g id="COE-2"> <g id="daf176c1fa1dc8e79dd843a03b390f6eopen"> </g> <g id="daf176c1fa1dc8e79dd843a03b390f6eteardrop"> <g id="daf176c1fa1dc8e79dd843a03b390f6eCOE-2"> <g> <path fill="#231F20" d="M25,0C11.2,0,0,11.2,0,25c0,13.8,11.2,25,25,25s25-11.2,25-25V0H25z"></path> <path fill="#FFFFFF" d="M41.7,13.6L25.1,6.4L8.4,13.6c-0.4,0.2-0.7,0.6-0.6,1.1c0.1,0.5,0.5,0.8,1,0.8h1.2
				C10,15.7,10,15.9,10,16.1c0,1,0.7,1.8,1.7,1.9v14.7c-0.9,0.1-1.7,1-1.7,1.9c0,0.3,0.1,0.7,0.3,0.9c-1,0.1-1.8,0.9-1.8,1.9v1.9
				h33.2v-1.9c0-1-0.8-1.9-1.8-1.9c0.2-0.3,0.3-0.6,0.3-0.9c0-1-0.8-1.8-1.7-1.9V18c1-0.1,1.7-0.9,1.7-1.9c0-0.2,0-0.4-0.1-0.5h1.3
				c0.5,0,0.9-0.3,1-0.8C42.4,14.3,42.2,13.8,41.7,13.6z M33.9,32.7h-2.8V18h2.8V32.7z M26.6,32.7h-3.4V18h3.4V32.7z M18.8,32.7
				h-2.7V18h2.7V32.7z"></path> </g> </g> </g> </g><g id="PracticeUpdate-open"> <g id="62204a9e2fcd3d242c1dded78fccadc2open"> <g id="62204a9e2fcd3d242c1dded78fccadc2PracticeUpdate"> <g> <path fill="#231F20" d="M42.5,28.1V7.9l-20.2,0l5.3,5.3L9.1,31.7c2.3,4,5.6,7.4,9.7,9.6l18.4-18.5L42.5,28.1z"></path> </g> </g> </g> <g id="62204a9e2fcd3d242c1dded78fccadc2teardrop"> </g> </g><g id="PracticeUpdate"> <g id="9871f6ea13be62426828dcdfa4d12cf6open"> </g> <g id="9871f6ea13be62426828dcdfa4d12cf6teardrop"> <g id="9871f6ea13be62426828dcdfa4d12cf6PracticeUpdate_1_"> <g> <path fill="#231F20" d="M25,0C11.2,0,0,11.2,0,25c0,13.8,11.2,25,25,25s25-11.2,25-25V0H25z"></path> <path fill="#FFFFFF" d="M42.5,28V7.7l-20.3,0l5.3,5.3L8.9,31.6c2.3,4,5.6,7.4,9.7,9.6l18.5-18.6L42.5,28z"></path> </g> </g> </g> </g><g id="cardiology-open"> <g id="65f12475fee3b9a591a2da97753d140eopen"> <g id="65f12475fee3b9a591a2da97753d140ecardiology"> <g id="65f12475fee3b9a591a2da97753d140eicon_3_"> <path id="65f12475fee3b9a591a2da97753d140eheart_1_" fill="#231F20" d="M44.6,19.4c0-5.3-4.3-9.6-9.7-9.6c-3.5,0-6.6,1.9-8.3,4.7c-1.7-2.8-4.8-4.7-8.3-4.7
				c-5.3,0-9.7,4.3-9.7,9.6c0,2.8,1.2,5.3,3.1,7h0l13.8,13.2c0.3,0.3,0.6,0.5,1.1,0.5c0.4,0,0.8-0.2,1-0.4l13.9-13.3h0
				C43.4,24.7,44.6,22.2,44.6,19.4"></path> </g> </g> </g> <g id="65f12475fee3b9a591a2da97753d140eteardrop"> </g> </g><g id="cardiology"> <symbol id="3acf91e7f8968fc47248e2e48f873058teardrop_2_" viewbox="0 -50 50 50"> <path id="3acf91e7f8968fc47248e2e48f873058teardrop_1_" fill="#231F20" d="M25,0C11.2,0,0-11.2,0-25c0-13.8,11.2-25,25-25c13.8,0,25,11.2,25,25V0H25z"></path> <polygon display="none" fill="none" points="0,0 50,0 50,-50 0,-50 	"></polygon> </symbol> <g id="3acf91e7f8968fc47248e2e48f873058open"> </g> <g id="3acf91e7f8968fc47248e2e48f873058teardrop"> <g id="3acf91e7f8968fc47248e2e48f873058cardiology_1_"> <use xlink:href="#teardrop_2_" width="50" height="50" y="-50" transform="matrix(1 0 0 -1 0 0)" overflow="visible"></use> <g id="3acf91e7f8968fc47248e2e48f873058icon_8_"> <path id="3acf91e7f8968fc47248e2e48f873058heart_2_" fill="#FFFFFF" d="M44.6,19.4c0-5.3-4.3-9.6-9.7-9.6c-3.5,0-6.6,1.9-8.3,4.7c-1.7-2.8-4.8-4.7-8.3-4.7
				c-5.3,0-9.7,4.3-9.7,9.6c0,2.8,1.2,5.3,3.1,7h0l13.8,13.2c0.3,0.3,0.6,0.5,1.1,0.5c0.4,0,0.8-0.2,1-0.4l13.9-13.3h0
				C43.4,24.7,44.6,22.2,44.6,19.4"></path> </g> </g> </g> </g><g id="dermatology-open"> <g id="8b85ac28a0208d3e0f8d14c6727e8cfbopen"> <g id="8b85ac28a0208d3e0f8d14c6727e8cfbdermatology"> <g id="8b85ac28a0208d3e0f8d14c6727e8cfbicon_4_"> <path id="8b85ac28a0208d3e0f8d14c6727e8cfbface" fill-rule="evenodd" clip-rule="evenodd" fill="#231F20" d="M25.3,31.6c1.3-1.8,1.2-2.9-0.4-3.6
				c0.5-1,0.6-2-0.4-2.7c-1.1-0.8-2-0.2-2.8,0.6c-0.3-0.6-0.7-1.1-1.4-1.3c-0.7-0.2-1.3,0-1.8,0.5c-0.4,0.3-0.7,0.7-1,1
				c-0.4,0.5-0.9,0.6-1.5,0.6c-0.9-0.1-1.3-0.7-1-1.5c0.8-2.1,1.7-4.2,2.5-6.4c0.3-0.8,0.3-1.6,0.4-2.5c0.2-1.3,0.4-2.5,0.9-3.7
				c0.7-1.4,1.6-2.7,2.7-3.8c1.8-1.8,4-3,6.5-3.5c3.6-0.7,6.9-0.1,10,1.9c2.7,1.8,4.5,4.2,5.3,7.3c1.4,5.3,0,9.9-4.1,13.5
				c-0.3,0.2-0.4,0.4-0.4,0.8c0,3.3,0,6.6,0,9.9c0,0.2,0,0.4,0,0.7c-4.7,0-9.3,0-13.9,0c0-1.2,0-2.3,0-3.5c0-0.1,0.1-0.3,0.2-0.4
				c0.3-0.3,0.5-0.5,0.8-0.8C27.1,33.7,26.8,32.2,25.3,31.6z M36,21.8c0-1.9-1.6-3.6-3.5-3.8c-0.3,0-0.5,0.1-0.5,0.4
				c0,0.4,0.1,0.6,0.5,0.6c1.9,0.3,3,2.3,2.1,4c-0.5,0.9-1.2,1.4-2.2,1.5c-0.5,0.1-0.5,0.3-0.4,0.7c0,0.4,0.3,0.4,0.6,0.3
				C34.5,25.4,36,23.7,36,21.8z M22.4,19.4c0-0.8-0.7-1.4-1.4-1.4c-0.8,0-1.5,0.7-1.5,1.5c0,0.8,0.7,1.4,1.5,1.4
				C21.8,20.9,22.4,20.2,22.4,19.4z M29.8,30.3c0-0.5-0.5-1-0.9-1c-0.5,0-0.9,0.5-1,0.9c0,0.5,0.4,1,0.9,1
				C29.4,31.3,29.8,30.8,29.8,30.3z M29.7,25.4c-0.5,0-0.9,0.4-0.9,0.9c0,0.5,0.4,0.9,1,0.9c0.5,0,0.9-0.4,0.9-1
				C30.7,25.8,30.3,25.4,29.7,25.4z M28.4,24.8c-0.2-0.1-0.4-0.4-0.6-0.4c-0.2,0-0.5,0.3-0.6,0.6c-0.1,0.3,0.1,0.6,0.6,0.6
				C28.2,25.6,28.3,25.4,28.4,24.8z M27.5,27.1c-0.1,0-0.2,0-0.3,0c-0.2,0.2-0.4,0.5-0.4,0.7c0,0.4,0.3,0.6,0.6,0.6
				c0.2-0.1,0.5-0.4,0.6-0.6C28,27.6,27.7,27.3,27.5,27.1z M31.8,28.6c-0.1-0.1-0.4-0.4-0.6-0.5c-0.2,0-0.5,0.3-0.6,0.5
				c-0.1,0.4,0.1,0.6,0.5,0.7C31.5,29.4,31.7,29.2,31.8,28.6z"></path> <path id="8b85ac28a0208d3e0f8d14c6727e8cfbhand" fill-rule="evenodd" clip-rule="evenodd" fill="#231F20" d="M11.8,32.9c0.1-0.1,0.2-0.2,0.4-0.3
				c2.3-2.3,4.5-4.5,6.8-6.8c0.1-0.1,0.3-0.3,0.4-0.4c0.4-0.3,1-0.2,1.3,0.2c0.3,0.3,0.3,1-0.1,1.3c-0.9,0.9-1.8,1.8-2.7,2.7
				c-0.9,0.9-1.9,1.9-2.8,2.8c-0.5,0.5,0.2,0.5,0.4,0.9c0.8-0.8,1.5-1.6,2.3-2.4c1.6-1.6,3.3-3.3,4.9-4.9c0.6-0.6,1.2-0.5,1.7,0.1
				c0.3,0.5,0.2,0.9-0.2,1.3c-0.7,0.8-1.5,1.5-2.2,2.2c-1.6,1.6-3.2,3.3-4.9,4.9c0,0-0.1,0.1-0.1,0.2c0.2,0.2,0.3,0.3,0.5,0.5
				c0.5-0.5,1.1-1,1.6-1.5c1.4-1.4,2.7-2.7,4.1-4.1c0.2-0.2,0.4-0.4,0.6-0.6c0.4-0.4,1.1-0.4,1.4-0.1c0.4,0.4,0.5,1,0,1.5
				c-1.5,1.5-3,3-4.4,4.5c-0.6,0.6-1.2,1.2-1.9,1.8c0.2,0.3,0.4,0.4,0.6,0.7c0.7-0.7,1.3-1.3,1.9-2c0.9-0.9,1.8-1.8,2.7-2.7
				c0.4-0.4,1-0.4,1.4,0c0.4,0.4,0.4,1,0,1.4c-1.1,1.2-2.3,2.3-3.5,3.5c-0.6,0.6-1.1,1.1-1.7,1.6c-0.2,0.2-0.4,0.3-0.7,0.3
				c-3.6,0-7.2,0-10.8,0c-0.4,0-0.5-0.1-0.5-0.5c0.3-2.9,0.6-5.7,0.8-8.6c0.1-0.6,0.1-1.2,0.2-1.9c0-0.4,0.2-0.5,0.6-0.4
				c0.8,0.2,1.7,0.7,1.6,1.9c0,0.9,0,1.8,0,2.7C11.7,32.8,11.7,32.8,11.8,32.9z"></path> </g> </g> </g> <g id="8b85ac28a0208d3e0f8d14c6727e8cfbteardrop"> </g> </g><g id="dermatology"> <symbol id="311339a231d05271a5246e51f2ca9910teardrop_2_" viewbox="0 -50 50 50"> <path id="311339a231d05271a5246e51f2ca9910teardrop_1_" fill="#231F20" d="M25,0C11.2,0,0-11.2,0-25c0-13.8,11.2-25,25-25c13.8,0,25,11.2,25,25V0H25z"></path> <polygon display="none" fill="none" points="0,0 50,0 50,-50 0,-50 	"></polygon> </symbol> <g id="311339a231d05271a5246e51f2ca9910open"> </g> <g id="311339a231d05271a5246e51f2ca9910teardrop"> <g id="311339a231d05271a5246e51f2ca9910dermatology_1_"> <use xlink:href="#teardrop_2_" width="50" height="50" y="-50" transform="matrix(1 0 0 -1 0 0)" overflow="visible"></use> <g id="311339a231d05271a5246e51f2ca9910icon_9_"> <path id="311339a231d05271a5246e51f2ca9910face_1_" fill-rule="evenodd" clip-rule="evenodd" fill="#FFFFFF" d="M25.3,31.6c1.3-1.8,1.2-2.9-0.4-3.6
				c0.5-1,0.6-2-0.4-2.7c-1.1-0.8-2-0.2-2.8,0.6c-0.3-0.6-0.7-1.1-1.4-1.3c-0.7-0.2-1.3,0-1.8,0.5c-0.4,0.3-0.7,0.7-1,1
				c-0.4,0.5-0.9,0.6-1.5,0.6c-0.9-0.1-1.3-0.7-1-1.5c0.8-2.1,1.7-4.2,2.5-6.4c0.3-0.8,0.3-1.6,0.4-2.5c0.2-1.3,0.4-2.5,0.9-3.7
				c0.7-1.4,1.6-2.7,2.7-3.8c1.8-1.8,4-3,6.5-3.5c3.6-0.7,6.9-0.1,10,1.9c2.7,1.8,4.5,4.2,5.3,7.3c1.4,5.3,0,9.9-4.1,13.5
				c-0.3,0.2-0.4,0.4-0.4,0.8c0,3.3,0,6.6,0,9.9c0,0.2,0,0.4,0,0.7c-4.7,0-9.3,0-13.9,0c0-1.2,0-2.3,0-3.5c0-0.1,0.1-0.3,0.2-0.4
				c0.3-0.3,0.5-0.5,0.8-0.8C27.1,33.7,26.8,32.2,25.3,31.6z M36,21.8c0-1.9-1.6-3.6-3.5-3.8c-0.3,0-0.5,0.1-0.5,0.4
				c0,0.4,0.1,0.6,0.5,0.6c1.9,0.3,3,2.3,2.1,4c-0.5,0.9-1.2,1.4-2.2,1.5c-0.5,0.1-0.5,0.3-0.4,0.7c0,0.4,0.3,0.4,0.6,0.3
				C34.5,25.4,36,23.7,36,21.8z M22.4,19.4c0-0.8-0.7-1.4-1.4-1.4c-0.8,0-1.5,0.7-1.5,1.5c0,0.8,0.7,1.4,1.5,1.4
				C21.8,20.9,22.4,20.2,22.4,19.4z M29.8,30.3c0-0.5-0.5-1-0.9-1c-0.5,0-0.9,0.5-1,0.9c0,0.5,0.4,1,0.9,1
				C29.4,31.3,29.8,30.8,29.8,30.3z M29.7,25.4c-0.5,0-0.9,0.4-0.9,0.9c0,0.5,0.4,0.9,1,0.9c0.5,0,0.9-0.4,0.9-1
				C30.7,25.8,30.3,25.4,29.7,25.4z M28.4,24.8c-0.2-0.1-0.4-0.4-0.6-0.4c-0.2,0-0.5,0.3-0.6,0.6c-0.1,0.3,0.1,0.6,0.6,0.6
				C28.2,25.6,28.3,25.4,28.4,24.8z M27.5,27.1c-0.1,0-0.2,0-0.3,0c-0.2,0.2-0.4,0.5-0.4,0.7c0,0.4,0.3,0.6,0.6,0.6
				c0.2-0.1,0.5-0.4,0.6-0.6C28,27.6,27.7,27.3,27.5,27.1z M31.8,28.6c-0.1-0.1-0.4-0.4-0.6-0.5c-0.2,0-0.5,0.3-0.6,0.5
				c-0.1,0.4,0.1,0.6,0.5,0.7C31.5,29.4,31.7,29.2,31.8,28.6z"></path> <path id="311339a231d05271a5246e51f2ca9910hand_2_" fill-rule="evenodd" clip-rule="evenodd" fill="#FFFFFF" d="M11.8,32.9c0.1-0.1,0.2-0.2,0.4-0.3
				c2.3-2.3,4.5-4.5,6.8-6.8c0.1-0.1,0.3-0.3,0.4-0.4c0.4-0.3,1-0.2,1.3,0.2c0.3,0.3,0.3,1-0.1,1.3c-0.9,0.9-1.8,1.8-2.7,2.7
				c-0.9,0.9-1.9,1.9-2.8,2.8c-0.5,0.5,0.2,0.5,0.4,0.9c0.8-0.8,1.5-1.6,2.3-2.4c1.6-1.6,3.3-3.3,4.9-4.9c0.6-0.6,1.2-0.5,1.7,0.1
				c0.3,0.5,0.2,0.9-0.2,1.3c-0.7,0.8-1.5,1.5-2.2,2.2c-1.6,1.6-3.2,3.3-4.9,4.9c0,0-0.1,0.1-0.1,0.2c0.2,0.2,0.3,0.3,0.5,0.5
				c0.5-0.5,1.1-1,1.6-1.5c1.4-1.4,2.7-2.7,4.1-4.1c0.2-0.2,0.4-0.4,0.6-0.6c0.4-0.4,1.1-0.4,1.4-0.1c0.4,0.4,0.5,1,0,1.5
				c-1.5,1.5-3,3-4.4,4.5c-0.6,0.6-1.2,1.2-1.9,1.8c0.2,0.3,0.4,0.4,0.6,0.7c0.7-0.7,1.3-1.3,1.9-2c0.9-0.9,1.8-1.8,2.7-2.7
				c0.4-0.4,1-0.4,1.4,0c0.4,0.4,0.4,1,0,1.4c-1.1,1.2-2.3,2.3-3.5,3.5c-0.6,0.6-1.1,1.1-1.7,1.6c-0.2,0.2-0.4,0.3-0.7,0.3
				c-3.6,0-7.2,0-10.8,0c-0.4,0-0.5-0.1-0.5-0.5c0.3-2.9,0.6-5.7,0.8-8.6c0.1-0.6,0.1-1.2,0.2-1.9c0-0.4,0.2-0.5,0.6-0.4
				c0.8,0.2,1.7,0.7,1.6,1.9c0,0.9,0,1.8,0,2.7C11.7,32.8,11.7,32.8,11.8,32.9z"></path> </g> </g> </g> </g><g id="diabetes-open"> <g id="315339f7c2dc98d0a1c307de896d9631open"> <g id="315339f7c2dc98d0a1c307de896d9631diabetes"> <g id="315339f7c2dc98d0a1c307de896d9631icon_5_"> <path id="315339f7c2dc98d0a1c307de896d9631blood" fill="#231F20" d="M41.1,32.6c0,1-0.4,1.9-1.1,2.6c-0.7,0.7-1.6,1.1-2.6,1.1s-1.9-0.4-2.6-1.1
				c-0.7-0.7-1.1-1.6-1.1-2.6c0-0.7,0.2-1.3,0.6-1.9c0,0,0.2-0.3,0.4-0.6c0.3-0.4,0.5-0.7,0.7-1.1c0.2-0.3,0.4-0.7,0.7-1.3
				c0.3-0.5,0.5-1,0.6-1.4c0-0.1,0.1-0.3,0.2-0.3c0.1-0.1,0.2-0.1,0.4-0.1c0.1,0,0.2,0,0.4,0.1c0.1,0.1,0.2,0.2,0.2,0.3
				c0.1,0.4,0.3,0.9,0.6,1.4c0.3,0.5,0.5,0.9,0.7,1.3c0.2,0.3,0.4,0.7,0.7,1.1c0.3,0.4,0.4,0.6,0.4,0.6
				C40.9,31.2,41.1,31.9,41.1,32.6z"></path> <path id="315339f7c2dc98d0a1c307de896d9631hand_1_" fill="#231F20" d="M37.5,14.9c-0.1,0-10.7,0-10.7,0c0.3-0.8,0.4-1.6,0.4-2.5c0-1.6-0.5-2.9-1.6-3.8
				c-1.1-0.9-2.4-1.3-4.1-1.3c-0.5,0-1,0.1-1.4,0.3c-0.4,0.2-0.8,0.6-1.1,1c-0.3,0.4-0.6,0.8-0.8,1.3c-0.2,0.4-0.5,0.9-0.7,1.4
				c-0.3,0.5-0.5,1-0.7,1.2c-0.5,0.7-1.1,1.6-2,2.6c0,0-0.1,0.2-0.3,0.3c-0.2,0.2-0.3,0.3-0.4,0.4c-0.1,0.1-0.2,0.2-0.4,0.4
				c-0.2,0.2-0.3,0.3-0.5,0.4c-0.1,0.1-0.3,0.2-0.4,0.4c-0.2,0.1-0.3,0.2-0.5,0.3c-0.2,0.1-0.3,0.1-0.4,0.1H9V20h2.4h0.4H12
				c0.9,0,1.9-0.4,2.8-1.1c0.4-0.3,1.1-1,2-2.1c1-1.1,1.7-2,2.2-2.9c0.2-0.3,0.4-0.7,0.7-1.3c0.9-1.8,1.5-2.8,1.8-2.8
				c0.9,0,1.7,0.2,2.3,0.6c0.6,0.4,0.9,1.1,0.9,1.9c0,0.6-0.1,1.1-0.3,1.7c-0.2,0.6-0.4,1-0.7,1.4c-0.2,0.4-0.5,0.7-0.7,1.1
				c-0.2,0.4-0.3,0.7-0.3,1c0,0,6.3,0,10.7,0c0.2,0,0.4,0,0.6,0c0.6,0,1.1,0,1.6,0c0.2,0,0.4,0,0.6,0c0.2,0,0.3,0,0.5,0
				c0.1,0,0.3,0,0.4,0c0.1,0,0.2,0,0.3,0c0.1,0,0.2,0,0.2,0c1.1,0,2,0.9,2,2c0,1.1-0.9,2-2,2c0,0-0.1,0-0.2,0c0,0-0.1,0-0.1,0
				c0,0-0.1,0-0.1,0c0,0-0.1,0-0.1,0c-0.2,0-0.6,0-1,0c-0.4,0-0.8,0-1.2,0c-0.4,0-0.9,0-1.3,0c-2.7,0-5.8,0-5.8,0
				c0.2,0.2,0.4,0.5,0.5,0.9c0.1,0.4,0.2,0.8,0.2,1.1c0,0.9-0.4,1.7-1.1,2.4c0.2,0.4,0.4,0.9,0.4,1.4c0,0.5-0.1,1-0.3,1.5
				c-0.2,0.5-0.5,0.8-0.9,1c0.1,0.4,0.1,0.8,0.1,1.1c0,2.2-1.3,3.3-3.8,3.3c-1.1,0-2.3-0.2-3.6-0.6c-1.3-0.4-2.6-0.8-3.8-1.3
				c-1.3-0.4-2.4-0.6-3.3-0.6h-0.2h-0.4H9v2.5h3c0.8,0,2.3,0.4,4.4,1.2c2.5,0.9,4.6,1.4,6.4,1.4c1.9,0,3.4-0.5,4.5-1.6
				c1.1-1.1,1.7-2.5,1.7-4.4c0.8-1,1.2-2.2,1.2-3.5c0-0.3,0-0.6-0.1-0.9c0.4-0.8,0.7-1.5,0.7-2.4c0,0,6.6,0,6.7,0
				c2.5,0,4.5-2.1,4.5-4.6C42.1,17,40.1,15,37.5,14.9z"></path> </g> </g> </g> <g id="315339f7c2dc98d0a1c307de896d9631teardrop"> </g> </g><g id="diabetes"> <symbol id="246248345a36dd0ab48e5f58b5c0b922teardrop_2_" viewbox="0 -50 50 50"> <path id="246248345a36dd0ab48e5f58b5c0b922teardrop_1_" fill="#231F20" d="M25,0C11.2,0,0-11.2,0-25c0-13.8,11.2-25,25-25c13.8,0,25,11.2,25,25V0H25z"></path> <polygon display="none" fill="none" points="0,0 50,0 50,-50 0,-50 	"></polygon> </symbol> <g id="246248345a36dd0ab48e5f58b5c0b922open"> </g> <g id="246248345a36dd0ab48e5f58b5c0b922teardrop"> <g id="246248345a36dd0ab48e5f58b5c0b922diabetes_1_"> <use xlink:href="#teardrop_2_" width="50" height="50" y="-50" transform="matrix(1 0 0 -1 0 0)" overflow="visible"></use> <g id="246248345a36dd0ab48e5f58b5c0b922icon_10_"> <path id="246248345a36dd0ab48e5f58b5c0b922blood_1_" fill="#FFFFFF" d="M41.1,32.6c0,1-0.4,1.9-1.1,2.6c-0.7,0.7-1.6,1.1-2.6,1.1s-1.9-0.4-2.6-1.1
				c-0.7-0.7-1.1-1.6-1.1-2.6c0-0.7,0.2-1.3,0.6-1.9c0,0,0.2-0.3,0.4-0.6c0.3-0.4,0.5-0.7,0.7-1.1c0.2-0.3,0.4-0.7,0.7-1.3
				c0.3-0.5,0.5-1,0.6-1.4c0-0.1,0.1-0.3,0.2-0.3c0.1-0.1,0.2-0.1,0.4-0.1c0.1,0,0.2,0,0.4,0.1c0.1,0.1,0.2,0.2,0.2,0.3
				c0.1,0.4,0.3,0.9,0.6,1.4c0.3,0.5,0.5,0.9,0.7,1.3c0.2,0.3,0.4,0.7,0.7,1.1c0.3,0.4,0.4,0.6,0.4,0.6
				C40.9,31.2,41.1,31.9,41.1,32.6z"></path> <path id="246248345a36dd0ab48e5f58b5c0b922hand_3_" fill="#FFFFFF" d="M37.5,14.9c-0.1,0-10.7,0-10.7,0c0.3-0.8,0.4-1.6,0.4-2.5c0-1.6-0.5-2.9-1.6-3.8
				c-1.1-0.9-2.4-1.3-4.1-1.3c-0.5,0-1,0.1-1.4,0.3c-0.4,0.2-0.8,0.6-1.1,1c-0.3,0.4-0.6,0.8-0.8,1.3c-0.2,0.4-0.5,0.9-0.7,1.4
				c-0.3,0.5-0.5,1-0.7,1.2c-0.5,0.7-1.1,1.6-2,2.6c0,0-0.1,0.2-0.3,0.3c-0.2,0.2-0.3,0.3-0.4,0.4c-0.1,0.1-0.2,0.2-0.4,0.4
				c-0.2,0.2-0.3,0.3-0.5,0.4c-0.1,0.1-0.3,0.2-0.4,0.4c-0.2,0.1-0.3,0.2-0.5,0.3c-0.2,0.1-0.3,0.1-0.4,0.1H9V20h2.4h0.4H12
				c0.9,0,1.9-0.4,2.8-1.1c0.4-0.3,1.1-1,2-2.1c1-1.1,1.7-2,2.2-2.9c0.2-0.3,0.4-0.7,0.7-1.3c0.9-1.8,1.5-2.8,1.8-2.8
				c0.9,0,1.7,0.2,2.3,0.6c0.6,0.4,0.9,1.1,0.9,1.9c0,0.6-0.1,1.1-0.3,1.7c-0.2,0.6-0.4,1-0.7,1.4c-0.2,0.4-0.5,0.7-0.7,1.1
				c-0.2,0.4-0.3,0.7-0.3,1c0,0,6.3,0,10.7,0c0.2,0,0.4,0,0.6,0c0.6,0,1.1,0,1.6,0c0.2,0,0.4,0,0.6,0c0.2,0,0.3,0,0.5,0
				c0.1,0,0.3,0,0.4,0c0.1,0,0.2,0,0.3,0c0.1,0,0.2,0,0.2,0c1.1,0,2,0.9,2,2c0,1.1-0.9,2-2,2c0,0-0.1,0-0.2,0c0,0-0.1,0-0.1,0
				c0,0-0.1,0-0.1,0c0,0-0.1,0-0.1,0c-0.2,0-0.6,0-1,0c-0.4,0-0.8,0-1.2,0c-0.4,0-0.9,0-1.3,0c-2.7,0-5.8,0-5.8,0
				c0.2,0.2,0.4,0.5,0.5,0.9c0.1,0.4,0.2,0.8,0.2,1.1c0,0.9-0.4,1.7-1.1,2.4c0.2,0.4,0.4,0.9,0.4,1.4c0,0.5-0.1,1-0.3,1.5
				c-0.2,0.5-0.5,0.8-0.9,1c0.1,0.4,0.1,0.8,0.1,1.1c0,2.2-1.3,3.3-3.8,3.3c-1.1,0-2.3-0.2-3.6-0.6c-1.3-0.4-2.6-0.8-3.8-1.3
				c-1.3-0.4-2.4-0.6-3.3-0.6h-0.2h-0.4H9v2.5h3c0.8,0,2.3,0.4,4.4,1.2c2.5,0.9,4.6,1.4,6.4,1.4c1.9,0,3.4-0.5,4.5-1.6
				c1.1-1.1,1.7-2.5,1.7-4.4c0.8-1,1.2-2.2,1.2-3.5c0-0.3,0-0.6-0.1-0.9c0.4-0.8,0.7-1.5,0.7-2.4c0,0,6.6,0,6.7,0
				c2.5,0,4.5-2.1,4.5-4.6C42.1,17,40.1,15,37.5,14.9z"></path> </g> </g> </g> </g><g id="eyecare-open"> <g id="438a1415c532237cd14bce3b76134f63open"> <g id="438a1415c532237cd14bce3b76134f63eyecare"> <g id="438a1415c532237cd14bce3b76134f63icon_6_"> <path id="438a1415c532237cd14bce3b76134f63eye" fill="#231F20" d="M46.4,25.4c0,0.5-0.2,1-0.5,1.6c-2.1,3.5-5,6.3-8.6,8.4c-3.6,2.1-7.4,3.2-11.4,3.2
				c-4,0-7.8-1.1-11.4-3.2C11,33.2,8.2,30.4,6,26.9c-0.3-0.5-0.5-1.1-0.5-1.6c0-0.5,0.2-1,0.5-1.6c2.1-3.5,5-6.3,8.6-8.4
				c3.6-2.1,7.4-3.2,11.4-3.2c4,0,7.8,1.1,11.4,3.2c3.6,2.1,6.5,4.9,8.6,8.4C46.3,24.3,46.4,24.9,46.4,25.4z M43.5,25.4
				c-2.3-3.6-5.2-6.3-8.7-8.1c0.9,1.6,1.4,3.3,1.4,5.1c0,2.8-1,5.2-3,7.2c-2,2-4.4,3-7.2,3c-2.8,0-5.2-1-7.2-3c-2-2-3-4.4-3-7.2
				c0-1.8,0.5-3.6,1.4-5.1c-3.5,1.8-6.4,4.5-8.7,8.1c2,3.1,4.6,5.6,7.6,7.4c3,1.8,6.4,2.8,9.9,2.8c3.6,0,6.9-0.9,9.9-2.8
				C39,31,41.5,28.5,43.5,25.4z M26.8,17.4c0.2-0.2,0.3-0.5,0.3-0.8c0-0.3-0.1-0.6-0.3-0.8c-0.2-0.2-0.5-0.3-0.8-0.3
				c-1.9,0-3.5,0.7-4.9,2c-1.4,1.4-2,3-2,4.9c0,0.3,0.1,0.6,0.3,0.8c0.2,0.2,0.5,0.3,0.8,0.3c0.3,0,0.6-0.1,0.8-0.3
				c0.2-0.2,0.3-0.5,0.3-0.8c0-1.3,0.5-2.4,1.4-3.4s2-1.4,3.4-1.4C26.3,17.7,26.6,17.6,26.8,17.4z"></path> </g> </g> </g> <g id="438a1415c532237cd14bce3b76134f63teardrop"> </g> </g><g id="eyecare"> <symbol id="a6ded16cb1c51c286e374dcb769ffca9teardrop_2_" viewbox="0 -50 50 50"> <path id="a6ded16cb1c51c286e374dcb769ffca9teardrop_1_" fill="#231F20" d="M25,0C11.2,0,0-11.2,0-25c0-13.8,11.2-25,25-25c13.8,0,25,11.2,25,25V0H25z"></path> <polygon display="none" fill="none" points="0,0 50,0 50,-50 0,-50 	"></polygon> </symbol> <g id="a6ded16cb1c51c286e374dcb769ffca9open"> </g> <g id="a6ded16cb1c51c286e374dcb769ffca9teardrop"> <g id="a6ded16cb1c51c286e374dcb769ffca9eyecare_1_"> <use xlink:href="#teardrop_2_" width="50" height="50" y="-50" transform="matrix(1 0 0 -1 0 0)" overflow="visible"></use> <g id="a6ded16cb1c51c286e374dcb769ffca9icon_11_"> <path id="a6ded16cb1c51c286e374dcb769ffca9eye_1_" fill="#FFFFFF" d="M46.4,25.4c0,0.5-0.2,1-0.5,1.6c-2.1,3.5-5,6.3-8.6,8.4c-3.6,2.1-7.4,3.2-11.4,3.2
				c-4,0-7.8-1.1-11.4-3.2C11,33.2,8.2,30.4,6,26.9c-0.3-0.5-0.5-1.1-0.5-1.6c0-0.5,0.2-1,0.5-1.6c2.1-3.5,5-6.3,8.6-8.4
				c3.6-2.1,7.4-3.2,11.4-3.2c4,0,7.8,1.1,11.4,3.2c3.6,2.1,6.5,4.9,8.6,8.4C46.3,24.3,46.4,24.9,46.4,25.4z M43.5,25.4
				c-2.3-3.6-5.2-6.3-8.7-8.1c0.9,1.6,1.4,3.3,1.4,5.1c0,2.8-1,5.2-3,7.2c-2,2-4.4,3-7.2,3c-2.8,0-5.2-1-7.2-3c-2-2-3-4.4-3-7.2
				c0-1.8,0.5-3.6,1.4-5.1c-3.5,1.8-6.4,4.5-8.7,8.1c2,3.1,4.6,5.6,7.6,7.4c3,1.8,6.4,2.8,9.9,2.8c3.6,0,6.9-0.9,9.9-2.8
				C39,31,41.5,28.5,43.5,25.4z M26.8,17.4c0.2-0.2,0.3-0.5,0.3-0.8c0-0.3-0.1-0.6-0.3-0.8c-0.2-0.2-0.5-0.3-0.8-0.3
				c-1.9,0-3.5,0.7-4.9,2c-1.4,1.4-2,3-2,4.9c0,0.3,0.1,0.6,0.3,0.8c0.2,0.2,0.5,0.3,0.8,0.3c0.3,0,0.6-0.1,0.8-0.3
				c0.2-0.2,0.3-0.5,0.3-0.8c0-1.3,0.5-2.4,1.4-3.4s2-1.4,3.4-1.4C26.3,17.7,26.6,17.6,26.8,17.4z"></path> </g> </g> </g> </g> <path d="M486,0C316.972,0,180,136.972,180,306c0,169.028,136.972,306,306,306c169.028,0,306-136.972,306-306V0H486z M503.243,86.7
	H547.2c0,17.049-3.628,40.546,1.168,59.085c-14.506-2.46-30.406-3.173-45.338-3.639C501.605,123.85,503.243,104.7,503.243,86.7z
	 M283.943,348.744c-13.357,0-22.1-7.287-22.1-30.603c2.429-70.914,7.285-161.499,93.014-173.885c5.1-0.972,9.958-0.972,16.029-0.972
	c35.457,0,77.229,12.143,110.257,18.457c16.029,2.429,91.803-1.214,96.657,22.1c3.645,17.243-64.843,68.486-78.441,75.772
	c-16.03,8.5-30.603,8.5-47.845,8.5s-20.886,2.429-34.242,13.357c-29.387,23.314-62.415,41.529-96.658,56.343
	C307.257,343.887,294.872,348.744,283.943,348.744z M688.058,387.843c-50.271,57.559-149.355,109.043-206.915,51.485
	c-23.313-21.856-65.085-78.199-77.229-41.528c-8.5,25.743-2.429,56.343-2.429,82.086h0.241v1.214H352.67
	c0-34.31-6.655-114.927,24.721-146.929c6.79-3.797,13.364-7.688,19.727-11.677c5.019-1.376,10.574-1.991,16.753-1.679
	c45.172,2.428,75.771,58.526,124.829,14.569c28.941-25.928,30.465-59.807,18.98-89.967c0.147-0.125,0.298-0.251,0.444-0.375
	c33.014-28.157,43.947-46.61,40.322-64.814c23.164-0.788,47.265-12.388,72.367-5.372
	C754.115,196.957,728.371,341.214,688.058,387.843z" id="gastro"></path> <g id="gastroenterology-open"> <g id="10697964a81f77451be30753bbe2efe6open"> <g id="10697964a81f77451be30753bbe2efe6gastroenterology"> <g id="10697964a81f77451be30753bbe2efe6icon"> <path id="10697964a81f77451be30753bbe2efe6liver" fill="#231F20" d="M22.2,21.9c1.4,0,2.7-0.1,3.9-0.7c1.2-0.6,6.8-4.8,6.4-6.2c-0.4-1.8-6.6-1.5-7.9-1.8
				c-2.7-0.5-6-1.5-9-1.5c-0.5,0-1,0-1.4,0.1c-6.9,1-7.4,8.1-7.6,13.8c0-0.1,0-0.2,0-0.2c0,0,0,0.7,0,0.7c0,1.8,0.8,2.4,1.8,2.4
				c0.9,0,2-0.4,3-0.9c2.8-1.2,5.5-2.7,7.9-4.6C20.5,22.1,20.8,21.9,22.2,21.9z"></path> <path id="10697964a81f77451be30753bbe2efe6esophagus" fill="#231F20" d="M30,7.1h-3.6c0,1.4-0.1,2.9,0,4.4c1.2,0.1,2.5,0.1,3.6,0.3C29.7,10.2,30,8.4,30,7.1z"></path> <path id="10697964a81f77451be30753bbe2efe6stomach" fill="#231F20" d="M40,14.4c-2-0.5-3.8,0.3-5.6,0.4c0.2,1.4-0.8,2.9-3.3,5C31,19.9,31,20,30.9,20.1
				c0.9,2.5,0.8,5.2-1.5,7.3c-4,3.6-6.5-1-10.2-1.2c-0.4,0-0.8,0-1.2,0.1c-0.6,0.4-1.3,0.8-1.9,1.1c-2.4,2.7-1.8,9.1-1.8,11.8h3.9
				c0-2.1-0.5-4.6,0.2-6.7c1-3,4.4,1.6,6.3,3.4c4.7,4.7,12.8,0.5,16.9-4.2C44.8,28,46.9,16.2,40,14.4z"></path> </g> </g> </g> <g id="10697964a81f77451be30753bbe2efe6teardrop"> </g> </g><g id="gastroenterology"> <symbol id="2a5b20358c14a58cd634cea94e4a70e9teardrop_2_" viewbox="0 -50 50 50"> <path id="2a5b20358c14a58cd634cea94e4a70e9teardrop_1_" fill="#231F20" d="M25,0C11.2,0,0-11.2,0-25c0-13.8,11.2-25,25-25c13.8,0,25,11.2,25,25V0H25z"></path> <polygon display="none" fill="none" points="0,0 50,0 50,-50 0,-50 	"></polygon> </symbol> <g id="2a5b20358c14a58cd634cea94e4a70e9open"> </g> <g id="2a5b20358c14a58cd634cea94e4a70e9teardrop"> <g id="2a5b20358c14a58cd634cea94e4a70e9gastroenterology_1_"> <use xlink:href="#teardrop_2_" width="50" height="50" y="-50" transform="matrix(1 0 0 -1 0 0)" overflow="visible"></use> <g id="2a5b20358c14a58cd634cea94e4a70e9icon_12_"> <path id="2a5b20358c14a58cd634cea94e4a70e9liver_1_" fill="#FFFFFF" d="M22.2,21.9c1.4,0,2.7-0.1,3.9-0.7c1.2-0.6,6.8-4.8,6.4-6.2c-0.4-1.8-6.6-1.5-7.9-1.8
				c-2.7-0.5-6-1.5-9-1.5c-0.5,0-1,0-1.4,0.1c-6.9,1-7.4,8.1-7.6,13.8c0-0.1,0-0.2,0-0.2c0,0,0,0.7,0,0.7c0,1.8,0.8,2.4,1.8,2.4
				c0.9,0,2-0.4,3-0.9c2.8-1.2,5.5-2.7,7.9-4.6C20.5,22.1,20.8,21.9,22.2,21.9z"></path> <path id="2a5b20358c14a58cd634cea94e4a70e9esophagus_1_" fill="#FFFFFF" d="M30,7.1h-3.6c0,1.4-0.1,2.9,0,4.4c1.2,0.1,2.5,0.1,3.6,0.3C29.7,10.2,30,8.4,30,7.1z"></path> <path id="2a5b20358c14a58cd634cea94e4a70e9stomach_1_" fill="#FFFFFF" d="M40,14.4c-2-0.5-3.8,0.3-5.6,0.4c0.2,1.4-0.8,2.9-3.3,5C31,19.9,31,20,30.9,20.1
				c0.9,2.5,0.8,5.2-1.5,7.3c-4,3.6-6.5-1-10.2-1.2c-0.4,0-0.8,0-1.2,0.1c-0.6,0.4-1.3,0.8-1.9,1.1c-2.4,2.7-1.8,9.1-1.8,11.8h3.9
				c0-2.1-0.5-4.6,0.2-6.7c1-3,4.4,1.6,6.3,3.4c4.7,4.7,12.8,0.5,16.9-4.2C44.8,28,46.9,16.2,40,14.4z"></path> </g> </g> </g> </g><g id="neurology-open"> <g id="ecbdd3bbdc7a73b35b428316642939a3open"> <g id="ecbdd3bbdc7a73b35b428316642939a3neurology"> <path id="ecbdd3bbdc7a73b35b428316642939a3icon_1_" fill="#231F20" d="M24.2,9.5c2.7-1.6,5.3-1.3,7.7,0.6c0.5-0.1,1-0.1,1.6-0.1c1.6,0,3,0.6,4.2,1.8
			c0.5,0.5,0.9,1,1.2,1.6c0.1,0.2,0.2,0.3,0.4,0.4c0.5,0.2,0.9,0.4,1.4,0.7c0.3,0.2,0.6,0.5,0.9,0.7c1,1,1.6,2.1,1.8,3.5
			c0.1,0.9,0.1,1.7-0.1,2.6c2,2.8,1.5,6-0.4,8.1c-0.1,0.5-0.2,1.1-0.4,1.6c-0.2,0.7-0.6,1.3-1,1.8c-0.6,0.7-1.3,1.3-2.2,1.7
			c-0.6,0.3-1.1,0.7-1.6,1.1c-0.6,0.5-1.1,1.1-1.5,1.7c-0.6,0.8-1,1.7-1.3,2.7c-0.1,0.4-0.2,0.9-0.3,1.4c0,0.1,0,0.2-0.2,0.3
			c-0.7,0-1.4,0-2.1,0c-0.1-0.1-0.1-0.2-0.1-0.3c0-2.1,0-4.2,0-6.4c0-0.8,0.1-1.5,0.3-2.3c0.2-1,0.8-1.7,1.6-2.3
			c0.5-0.4,1.2-0.7,1.6-1.2c0.3,0,0.5,0.2,0.8,0.3c0.7,0.4,1.3,1,1.7,1.7c0.2,0.3,0.4,0.5,0.8,0.5c0.5-0.2,0.7-0.4,0.7-0.8
			c0-0.1-0.1-0.2-0.1-0.4c-0.5-0.8-1.1-1.4-1.8-2c-0.3-0.2-0.6-0.4-1-0.6c0.4-0.8,0.7-1.6,0.8-2.4c0.1-0.9,0.1-1.7-0.2-2.6
			c0.7-0.3,1.4-0.4,2-0.8c0.6-0.4,1.1-0.8,1.6-1.4c0.1-0.2,0-0.4,0-0.6c-0.4-0.6-0.8-0.6-1.3-0.1c-0.7,0.7-1.4,1.1-2.3,1.3
			c-0.2,0-0.4,0.1-0.6,0c-0.5-0.8-1.2-1.6-2-2.1c-0.8-0.5-1.7-0.9-2.8-1c0.2-1.1,0.5-1.9,1.2-2.7c0.1-0.1,0.1-0.1,0.2-0.2
			c0.3-0.3,0.2-0.7,0-1c-0.3-0.2-0.7-0.2-1,0c-0.3,0.3-0.5,0.6-0.8,0.9c-0.5,0.7-0.8,1.6-1,2.5c0,0.1,0,0.2-0.1,0.3
			c-0.4,0-0.7-0.1-1.1-0.3c-1.1-0.5-2-1.2-2.5-2.4c-0.3-0.6-0.5-1.1-0.5-1.7c0-0.2,0-0.3-0.1-0.5c-0.1-0.4-0.4-0.7-0.8-0.7
			c-0.4,0-0.7,0.4-0.6,0.8c0,0.3,0,0.7,0.1,1c-0.4,0.4-0.9,0.7-1.4,0.9c-1.5,0.6-3,0.4-4.4-0.4c-0.3-0.2-0.6-0.5-0.9-0.7
			c-0.1-0.1-0.3-0.2-0.4-0.2c-0.2,0-0.3,0.1-0.5,0.2c-0.3,0.3-0.4,0.7-0.1,1c0.2,0.2,0.3,0.4,0.6,0.5c0.4,0.3,0.8,0.6,1.2,0.8
			c0.2,1-1,3.2-2.3,3.7c-0.9-1.3-2.1-2.1-3.5-2.5c-0.4,0.1-0.4,0.1-0.7,0.4c-0.1,0.6,0,0.8,0.6,1c0.8,0.3,1.6,0.8,2.2,1.5
			c0,0,0.1,0.1,0.1,0.2c-0.2,0.1-0.5,0.2-0.7,0.2c-0.6,0-1.2,0.1-1.8,0.2c-1.1,0.2-2,0.7-2.8,1.4c-0.1,0.1-0.1,0.1-0.2,0.2
			c-0.5,0.4-0.4,1,0.2,1.3c0.1,0,0.1,0,0.2,0.1c0.3,0,0.5-0.2,0.7-0.4c0.7-0.7,1.6-1.1,2.6-1.2c0.7-0.1,1.5,0,2.2-0.2
			c1.2-0.3,2.3-0.9,3.2-1.8c0.9-0.9,1.5-2,1.7-3.3c0,0,0-0.1,0.1-0.1c1.8,0.4,3.4-0.1,4.9-1c0.5,0.8,1,1.6,1.7,2.2
			c-0.7,0.9-1.2,2-1.3,3.1c-0.3,0.1-0.5,0.1-0.7,0.1c-1.1-0.1-2.1,0.2-3.1,0.7c0,0-0.1,0-0.2,0.1c-0.3,0.2-0.5,0.5-0.3,0.9
			c0.1,0.3,0.5,0.5,0.8,0.4c0.2-0.1,0.5-0.2,0.7-0.3c0.9-0.4,1.8-0.5,2.7-0.3c0.1,0.2,0.1,0.5,0.2,0.8c0.3,1,0.8,1.9,1.4,2.7
			c0.2,0.2,0.4,0.3,0.6,0.4c0.4,0,0.7-0.3,0.8-0.7c0-0.3-0.2-0.5-0.4-0.7c-0.6-0.6-0.9-1.4-1.1-2.2c-0.3-1.3,0-2.6,0.7-3.7
			c0.1-0.2,0.2-0.3,0.4-0.4c0.4,0.1,0.7,0.3,1.1,0.4c0.5,0.1,1,0.2,1.6,0.2c1,0,1.9,0.2,2.7,0.8c0.4,0.3,0.8,0.6,1.2,1
			c0.6,0.7,0.9,1.4,1.1,2.2c0.1,0.3,0,0.5,0.1,0.8c-0.1,0.1-0.3,0-0.4,0c-1.1-0.2-2.2-0.1-3.3,0.3c-0.1,0.1-0.3,0.1-0.4,0.2
			c-0.3,0.3-0.3,0.5-0.1,0.9c0.2,0.3,0.4,0.4,0.8,0.3c0.4-0.1,0.8-0.3,1.2-0.3c0.6-0.1,1.2-0.1,1.8,0.1c0.1,0,0.1,0.1,0.2,0.1
			c-0.1,0.5-0.3,1-0.6,1.4c-0.5,0.7-1.2,1.2-1.9,1.6c-1.3,0.8-2.1,1.9-2.5,3.4c-0.3,0.9-0.3,1.8-0.3,2.7c0,2,0,4.1,0,6.1
			c0,0.1,0,0.3,0,0.5c-0.6,0-1.2,0-1.8,0c-0.1,0-0.2,0-0.3-0.1c-0.1-0.1,0-0.3,0-0.5c0-2,0-4.1,0-6.1c0-1-0.2-1.9-0.7-2.7
			c-0.7-1.5-1.8-2.5-3.4-3.2c-0.6-0.3-1.2-0.7-1.7-1.1c-0.1-0.1-0.2-0.3-0.5-0.4c-2.3,1.4-4.7,1.4-7,0c-0.1,0-0.2,0-0.3,0.1
			c-0.8,0.5-1.7,0.7-2.6,0.9c-1.3,0.2-2.4-0.1-3.6-0.6c-1.2-0.6-2.1-1.5-2.7-2.7c-0.4-0.8-0.6-1.6-0.7-2.5c-0.1-1.1,0.1-2.2,0.6-3.2
			c0.4-1,1.1-1.7,1.9-2.4c0.3-0.2,0.6-0.5,1-0.6c0.2-0.1,0.4-0.2,0.4-0.5c0.1-0.4,0.2-0.8,0.4-1.1c0.1-0.3,0.3-0.6,0.5-0.8
			c0.2-0.2,0.3-0.5,0.6-0.7c1-1,2.2-1.6,3.5-1.9c0.3-0.1,0.6,0,1,0c0.2,0,0.3,0,0.5,0C17.9,8.8,21.4,8.1,24.2,9.5z"></path> </g> </g> <g id="ecbdd3bbdc7a73b35b428316642939a3teardrop"> </g> </g><g id="neurology"> <symbol id="cde0cd74c9180f385255674392f6960dteardrop_2_" viewbox="0 -50 50 50"> <path id="cde0cd74c9180f385255674392f6960dteardrop_1_" fill="#231F20" d="M25,0C11.2,0,0-11.2,0-25c0-13.8,11.2-25,25-25c13.8,0,25,11.2,25,25V0H25z"></path> <polygon display="none" fill="none" points="0,0 50,0 50,-50 0,-50 	"></polygon> </symbol> <g id="cde0cd74c9180f385255674392f6960dopen"> </g> <g id="cde0cd74c9180f385255674392f6960dteardrop"> <g id="cde0cd74c9180f385255674392f6960dneurology_1_"> <use xlink:href="#teardrop_2_" width="50" height="50" y="-50" transform="matrix(1 0 0 -1 0 0)" overflow="visible"></use> <path id="cde0cd74c9180f385255674392f6960dicon_13_" fill="#FFFFFF" d="M24.2,9.5c2.7-1.6,5.3-1.3,7.7,0.6c0.5-0.1,1-0.1,1.6-0.1c1.6,0,3,0.6,4.2,1.8
			c0.5,0.5,0.9,1,1.2,1.6c0.1,0.2,0.2,0.3,0.4,0.4c0.5,0.2,0.9,0.4,1.4,0.7c0.3,0.2,0.6,0.5,0.9,0.7c1,1,1.6,2.1,1.8,3.5
			c0.1,0.9,0.1,1.7-0.1,2.6c2,2.8,1.5,6-0.4,8.1c-0.1,0.5-0.2,1.1-0.4,1.6c-0.2,0.7-0.6,1.3-1,1.8c-0.6,0.7-1.3,1.3-2.2,1.7
			c-0.6,0.3-1.1,0.7-1.6,1.1c-0.6,0.5-1.1,1.1-1.5,1.7c-0.6,0.8-1,1.7-1.3,2.7c-0.1,0.4-0.2,0.9-0.3,1.4c0,0.1,0,0.2-0.2,0.3
			c-0.7,0-1.4,0-2.1,0c-0.1-0.1-0.1-0.2-0.1-0.3c0-2.1,0-4.2,0-6.4c0-0.8,0.1-1.5,0.3-2.3c0.2-1,0.8-1.7,1.6-2.3
			c0.5-0.4,1.2-0.7,1.6-1.2c0.3,0,0.5,0.2,0.8,0.3c0.7,0.4,1.3,1,1.7,1.7c0.2,0.3,0.4,0.5,0.8,0.5c0.5-0.2,0.7-0.4,0.7-0.8
			c0-0.1-0.1-0.2-0.1-0.4c-0.5-0.8-1.1-1.4-1.8-2c-0.3-0.2-0.6-0.4-1-0.6c0.4-0.8,0.7-1.6,0.8-2.4c0.1-0.9,0.1-1.7-0.2-2.6
			c0.7-0.3,1.4-0.4,2-0.8c0.6-0.4,1.1-0.8,1.6-1.4c0.1-0.2,0-0.4,0-0.6c-0.4-0.6-0.8-0.6-1.3-0.1c-0.7,0.7-1.4,1.1-2.3,1.3
			c-0.2,0-0.4,0.1-0.6,0c-0.5-0.8-1.2-1.6-2-2.1c-0.8-0.5-1.7-0.9-2.8-1c0.2-1.1,0.5-1.9,1.2-2.7c0.1-0.1,0.1-0.1,0.2-0.2
			c0.3-0.3,0.2-0.7,0-1c-0.3-0.2-0.7-0.2-1,0c-0.3,0.3-0.5,0.6-0.8,0.9c-0.5,0.7-0.8,1.6-1,2.5c0,0.1,0,0.2-0.1,0.3
			c-0.4,0-0.7-0.1-1.1-0.3c-1.1-0.5-2-1.2-2.5-2.4c-0.3-0.6-0.5-1.1-0.5-1.7c0-0.2,0-0.3-0.1-0.5c-0.1-0.4-0.4-0.7-0.8-0.7
			c-0.4,0-0.7,0.4-0.6,0.8c0,0.3,0,0.7,0.1,1c-0.4,0.4-0.9,0.7-1.4,0.9c-1.5,0.6-3,0.4-4.4-0.4c-0.3-0.2-0.6-0.5-0.9-0.7
			c-0.1-0.1-0.3-0.2-0.4-0.2c-0.2,0-0.3,0.1-0.5,0.2c-0.3,0.3-0.4,0.7-0.1,1c0.2,0.2,0.3,0.4,0.6,0.5c0.4,0.3,0.8,0.6,1.2,0.8
			c0.2,1-1,3.2-2.3,3.7c-0.9-1.3-2.1-2.1-3.5-2.5c-0.4,0.1-0.4,0.1-0.7,0.4c-0.1,0.6,0,0.8,0.6,1c0.8,0.3,1.6,0.8,2.2,1.5
			c0,0,0.1,0.1,0.1,0.2c-0.2,0.1-0.5,0.2-0.7,0.2c-0.6,0-1.2,0.1-1.8,0.2c-1.1,0.2-2,0.7-2.8,1.4c-0.1,0.1-0.1,0.1-0.2,0.2
			c-0.5,0.4-0.4,1,0.2,1.3c0.1,0,0.1,0,0.2,0.1c0.3,0,0.5-0.2,0.7-0.4c0.7-0.7,1.6-1.1,2.6-1.2c0.7-0.1,1.5,0,2.2-0.2
			c1.2-0.3,2.3-0.9,3.2-1.8c0.9-0.9,1.5-2,1.7-3.3c0,0,0,0,0.1-0.1c1.8,0.4,3.4-0.1,4.9-1c0.5,0.8,1,1.6,1.7,2.2
			c-0.7,0.9-1.2,2-1.3,3.1c-0.3,0.1-0.5,0.1-0.7,0.1c-1.1-0.1-2.1,0.2-3.1,0.7c0,0-0.1,0-0.2,0.1c-0.3,0.2-0.5,0.5-0.3,0.9
			c0.1,0.3,0.5,0.5,0.8,0.4c0.2-0.1,0.5-0.2,0.7-0.3c0.9-0.4,1.8-0.5,2.7-0.3c0.1,0.2,0.1,0.5,0.2,0.8c0.3,1,0.8,1.9,1.4,2.7
			c0.2,0.2,0.4,0.3,0.6,0.4c0.4,0,0.7-0.3,0.8-0.7c0-0.3-0.2-0.5-0.4-0.7c-0.6-0.6-0.9-1.4-1.1-2.2c-0.3-1.3,0-2.6,0.7-3.7
			c0.1-0.2,0.2-0.3,0.4-0.4c0.4,0.1,0.7,0.3,1.1,0.4c0.5,0.1,1,0.2,1.6,0.2c1,0,1.9,0.2,2.7,0.8c0.4,0.3,0.8,0.6,1.2,1
			c0.6,0.7,0.9,1.4,1.1,2.2c0.1,0.3,0,0.5,0.1,0.8c-0.1,0.1-0.3,0-0.4,0c-1.1-0.2-2.2-0.1-3.3,0.3c-0.1,0.1-0.3,0.1-0.4,0.2
			c-0.3,0.3-0.3,0.5-0.1,0.9c0.2,0.3,0.4,0.4,0.8,0.3c0.4-0.1,0.8-0.3,1.2-0.3c0.6-0.1,1.2-0.1,1.8,0.1c0.1,0,0.1,0.1,0.2,0.1
			c-0.1,0.5-0.3,1-0.6,1.4c-0.5,0.7-1.2,1.2-1.9,1.6c-1.3,0.8-2.1,1.9-2.5,3.4c-0.3,0.9-0.3,1.8-0.3,2.7c0,2,0,4.1,0,6.1
			c0,0.1,0,0.3,0,0.5c-0.6,0-1.2,0-1.8,0c-0.1,0-0.2,0-0.3-0.1c-0.1-0.1,0-0.3,0-0.5c0-2,0-4.1,0-6.1c0-1-0.2-1.9-0.7-2.7
			c-0.7-1.5-1.8-2.5-3.4-3.2c-0.6-0.3-1.2-0.7-1.7-1.1c-0.1-0.1-0.2-0.3-0.5-0.4c-2.3,1.4-4.7,1.4-7,0c-0.1,0-0.2,0-0.3,0.1
			c-0.8,0.5-1.7,0.7-2.6,0.9c-1.3,0.2-2.4-0.1-3.6-0.6c-1.2-0.6-2.1-1.5-2.7-2.7c-0.4-0.8-0.6-1.6-0.7-2.5c-0.1-1.1,0.1-2.2,0.6-3.2
			c0.4-1,1.1-1.7,1.9-2.4c0.3-0.2,0.6-0.5,1-0.6c0.2-0.1,0.4-0.2,0.4-0.5c0.1-0.4,0.2-0.8,0.4-1.1c0.1-0.3,0.3-0.6,0.5-0.8
			c0.2-0.2,0.3-0.5,0.6-0.7c1-1,2.2-1.6,3.5-1.9c0.3-0.1,0.6,0,1,0c0.2,0,0.3,0,0.5,0C17.9,8.8,21.4,8.1,24.2,9.5z"></path> </g> </g> </g><g id="oncology-open"> <g id="6f44b32571d5befe03d1dabef1fb343dopen"> <g id="6f44b32571d5befe03d1dabef1fb343doncology"> <path id="6f44b32571d5befe03d1dabef1fb343dicon_2_" fill="#231F20" d="M25.1,7.6C15.5,7.6,7.7,15.4,7.7,25s7.8,17.4,17.4,17.4c9.6,0,17.4-7.8,17.4-17.4
			S34.7,7.6,25.1,7.6z M12.9,18.3h6.7v6.2h-6.7V18.3z M20.4,38.3c-1.6,0-2.9-1.3-2.9-2.9c0-1.6,1.3-2.9,2.9-2.9
			c1.6,0,2.9,1.3,2.9,2.9C23.3,37,22,38.3,20.4,38.3z M24.6,29.7c-1.6,0-2.9-1.3-2.9-2.9c0-1.6,1.3-2.9,2.9-2.9
			c1.6,0,2.9,1.3,2.9,2.9C27.5,28.5,26.2,29.7,24.6,29.7z M27.5,16.3c-1.6,0-2.9-1.3-2.9-2.9c0-1.6,1.3-2.9,2.9-2.9
			c1.6,0,2.9,1.3,2.9,2.9C30.3,15,29,16.3,27.5,16.3z M33.2,35.5c-1.6,0-2.9-1.3-2.9-2.9c0-1.6,1.3-2.9,2.9-2.9
			c1.6,0,2.9,1.3,2.9,2.9C36,34.2,34.8,35.5,33.2,35.5z M34.5,25.1c-1.6,0-2.9-1.3-2.9-2.9c0-1.6,1.3-2.9,2.9-2.9
			c1.6,0,2.9,1.3,2.9,2.9C37.4,23.8,36.1,25.1,34.5,25.1z"></path> </g> </g> <g id="6f44b32571d5befe03d1dabef1fb343dteardrop"> </g> </g><g id="oncology"> <symbol id="d4be9221e349f8007549098bd6feb2e4teardrop_2_" viewbox="0 -50 50 50"> <path id="d4be9221e349f8007549098bd6feb2e4teardrop_1_" fill="#231F20" d="M25,0C11.2,0,0-11.2,0-25c0-13.8,11.2-25,25-25c13.8,0,25,11.2,25,25V0H25z"></path> <polygon display="none" fill="none" points="0,0 50,0 50,-50 0,-50 	"></polygon> </symbol> <g id="d4be9221e349f8007549098bd6feb2e4open"> </g> <g id="d4be9221e349f8007549098bd6feb2e4teardrop"> <g id="d4be9221e349f8007549098bd6feb2e4oncology_1_"> <use xlink:href="#teardrop_2_" width="50" height="50" y="-50" transform="matrix(1 0 0 -1 0 0)" overflow="visible"></use> <path id="d4be9221e349f8007549098bd6feb2e4icon_14_" fill="#FFFFFF" d="M25.1,7.6C15.5,7.6,7.7,15.4,7.7,25s7.8,17.4,17.4,17.4c9.6,0,17.4-7.8,17.4-17.4
			S34.7,7.6,25.1,7.6z M12.9,18.3h6.7v6.2h-6.7V18.3z M20.4,38.3c-1.6,0-2.9-1.3-2.9-2.9c0-1.6,1.3-2.9,2.9-2.9
			c1.6,0,2.9,1.3,2.9,2.9C23.3,37,22,38.3,20.4,38.3z M24.6,29.7c-1.6,0-2.9-1.3-2.9-2.9c0-1.6,1.3-2.9,2.9-2.9
			c1.6,0,2.9,1.3,2.9,2.9C27.5,28.5,26.2,29.7,24.6,29.7z M27.5,16.3c-1.6,0-2.9-1.3-2.9-2.9c0-1.6,1.3-2.9,2.9-2.9
			c1.6,0,2.9,1.3,2.9,2.9C30.3,15,29,16.3,27.5,16.3z M33.2,35.5c-1.6,0-2.9-1.3-2.9-2.9c0-1.6,1.3-2.9,2.9-2.9
			c1.6,0,2.9,1.3,2.9,2.9C36,34.2,34.8,35.5,33.2,35.5z M34.5,25.1c-1.6,0-2.9-1.3-2.9-2.9c0-1.6,1.3-2.9,2.9-2.9
			c1.6,0,2.9,1.3,2.9,2.9C37.4,23.8,36.1,25.1,34.5,25.1z"></path> </g> </g> </g><g id="primarycare-open"> <g id="64aed69a62a223acc6f9508a62eb7f42open"> <g id="64aed69a62a223acc6f9508a62eb7f42primarycare"> <g id="64aed69a62a223acc6f9508a62eb7f42icon_7_"> <g id="64aed69a62a223acc6f9508a62eb7f42nodes"> <path fill="#231F20" d="M32.9,8.4c-0.3-1,0.3-2.1,1.3-2.4c1-0.3,2.1,0.3,2.4,1.3c0.3,1-0.3,2.1-1.3,2.4l-1.9,0.6L32.9,8.4z"></path> <path fill="#231F20" d="M23.6,6.7c-0.8-0.7-0.8-2-0.1-2.7c0.7-0.8,2-0.8,2.7-0.1c0.8,0.7,0.8,2,0.1,2.7L25,8L23.6,6.7z"></path> <path fill="#231F20" d="M14.6,9.8c-1-0.2-1.7-1.3-1.4-2.3c0.2-1,1.3-1.7,2.3-1.4c1,0.2,1.7,1.3,1.4,2.3l-0.4,1.9L14.6,9.8z"></path> <path fill="#231F20" d="M8.4,17.1c-1,0.3-2.1-0.3-2.4-1.3c-0.3-1,0.3-2.1,1.3-2.4c1-0.3,2.1,0.3,2.4,1.3l0.6,1.9L8.4,17.1z"></path> <path fill="#231F20" d="M6.7,26.4c-0.7,0.8-2,0.8-2.7,0.1c-0.8-0.7-0.8-2-0.1-2.7c0.7-0.8,2-0.8,2.7-0.1L8,25L6.7,26.4z"></path> <path fill="#231F20" d="M9.8,35.4c-0.2,1-1.3,1.7-2.3,1.4c-1-0.2-1.7-1.3-1.4-2.3c0.2-1,1.3-1.7,2.3-1.4l1.9,0.4L9.8,35.4z"></path> <path fill="#231F20" d="M17.1,41.6c0.3,1-0.3,2.1-1.3,2.4c-1,0.3-2.1-0.3-2.4-1.3c-0.3-1,0.3-2.1,1.3-2.4l1.8-0.6L17.1,41.6z"></path> <path fill="#231F20" d="M26.4,43.3c0.8,0.7,0.8,2,0.1,2.7c-0.7,0.8-2,0.8-2.7,0.1s-0.8-2-0.1-2.7L25,42L26.4,43.3z"></path> <path fill="#231F20" d="M35.4,40.2c1,0.2,1.7,1.3,1.4,2.3c-0.2,1-1.3,1.7-2.3,1.4c-1-0.2-1.7-1.3-1.4-2.3l0.4-1.9L35.4,40.2z"></path> <path fill="#231F20" d="M41.6,32.9c1-0.3,2.1,0.3,2.4,1.3c0.3,1-0.3,2.1-1.3,2.4c-1,0.3-2.1-0.3-2.4-1.3l-0.6-1.8L41.6,32.9z"></path> <path fill="#231F20" d="M43.3,23.6c0.7-0.8,2-0.8,2.7-0.1c0.8,0.7,0.8,2,0.1,2.7c-0.7,0.8-2,0.8-2.7,0.1L42,25L43.3,23.6z"></path> <path fill="#231F20" d="M40.2,14.6c0.2-1,1.3-1.7,2.3-1.4c1,0.2,1.7,1.3,1.4,2.3c-0.2,1-1.3,1.7-2.3,1.4l-1.9-0.4L40.2,14.6z"></path> <path fill="#231F20" d="M32.9,8.4c-0.3-1,0.3-2.1,1.3-2.4c1-0.3,2.1,0.3,2.4,1.3c0.3,1-0.3,2.1-1.3,2.4l-1.9,0.6L32.9,8.4z"></path> <path fill="#231F20" d="M23.6,6.7c-0.8-0.7-0.8-2-0.1-2.7c0.7-0.8,2-0.8,2.7-0.1c0.8,0.7,0.8,2,0.1,2.7L25,8L23.6,6.7z"></path> <path fill="#231F20" d="M14.6,9.8c-1-0.2-1.7-1.3-1.4-2.3c0.2-1,1.3-1.7,2.3-1.4c1,0.2,1.7,1.3,1.4,2.3l-0.4,1.9L14.6,9.8z"></path> <path fill="#231F20" d="M8.4,17.1c-1,0.3-2.1-0.3-2.4-1.3c-0.3-1,0.3-2.1,1.3-2.4c1-0.3,2.1,0.3,2.4,1.3l0.6,1.9L8.4,17.1z"></path> <path fill="#231F20" d="M6.7,26.4c-0.7,0.8-2,0.8-2.7,0.1c-0.8-0.7-0.8-2-0.1-2.7c0.7-0.8,2-0.8,2.7-0.1L8,25L6.7,26.4z"></path> <path fill="#231F20" d="M9.8,35.4c-0.2,1-1.3,1.7-2.3,1.4c-1-0.2-1.7-1.3-1.4-2.3c0.2-1,1.3-1.7,2.3-1.4l1.9,0.4L9.8,35.4z"></path> <path fill="#231F20" d="M17.1,41.6c0.3,1-0.3,2.1-1.3,2.4c-1,0.3-2.1-0.3-2.4-1.3c-0.3-1,0.3-2.1,1.3-2.4l1.8-0.6L17.1,41.6z"></path> <path fill="#231F20" d="M26.4,43.3c0.8,0.7,0.8,2,0.1,2.7c-0.7,0.8-2,0.8-2.7,0.1c-0.8-0.7-0.8-2-0.1-2.7L25,42L26.4,43.3z"></path> <path fill="#231F20" d="M35.4,40.2c1,0.2,1.7,1.3,1.4,2.3c-0.2,1-1.3,1.7-2.3,1.4c-1-0.2-1.7-1.3-1.4-2.3l0.4-1.9L35.4,40.2z"></path> </g> <g id="64aed69a62a223acc6f9508a62eb7f42doctor"> <path fill="#231F20" d="M30.7,33.9H19.4c-2.1,0-3.5-1.2-3.5-3.4c0-2.6,0.5-6.6,3.6-7.3c-0.2,0.5-0.3,1-0.3,1.6v2.6
					c-1,0.4-1.7,1.3-1.7,2.3c0,1.4,1.1,2.5,2.5,2.5c1.4,0,2.5-1.1,2.5-2.5c0-1-0.7-2-1.7-2.3v-2.6c0-0.4,0-0.9,0.3-1.2
					c1.1,0.9,2.4,1.3,3.8,1.3c1.4,0,2.7-0.5,3.8-1.3c0.3,0.3,0.3,0.8,0.3,1.2v0.8c-1.8,0-3.3,1.5-3.3,3.3v1.2
					c-0.3,0.2-0.4,0.6-0.4,0.9c0,0.7,0.6,1.2,1.2,1.2c0.7,0,1.2-0.6,1.2-1.2c0-0.3-0.2-0.7-0.4-0.9v-1.2c0-0.9,0.8-1.7,1.7-1.7
					c0.9,0,1.7,0.7,1.7,1.7v1.2c-0.3,0.2-0.4,0.6-0.4,0.9c0,0.7,0.6,1.2,1.2,1.2c0.7,0,1.2-0.6,1.2-1.2c0-0.3-0.2-0.7-0.4-0.9v-1.2
					c0-1.2-0.6-2.3-1.7-2.9c0-0.9,0.1-2-0.3-2.8c3.1,0.7,3.6,4.7,3.6,7.3C34.2,32.6,32.8,33.9,30.7,33.9z"></path> <path fill="#231F20" d="M20.1,30.6c-0.5,0-0.8-0.4-0.8-0.8c0-0.5,0.4-0.8,0.8-0.8c0.5,0,0.8,0.4,0.8,0.8
					C21,30.2,20.6,30.6,20.1,30.6z"></path> <circle fill="#231F20" cx="25.1" cy="19" r="5"></circle> </g> </g> </g> </g> <g id="64aed69a62a223acc6f9508a62eb7f42teardrop"> </g> </g><g id="primarycare"> <symbol id="e4b8cb66cd69da8cad2317ccf443b6f0teardrop_2_" viewbox="0 -50 50 50"> <path id="e4b8cb66cd69da8cad2317ccf443b6f0teardrop_1_" fill="#231F20" d="M25,0C11.2,0,0-11.2,0-25c0-13.8,11.2-25,25-25c13.8,0,25,11.2,25,25V0H25z"></path> <polygon display="none" fill="none" points="0,0 50,0 50,-50 0,-50 	"></polygon> </symbol> <g id="e4b8cb66cd69da8cad2317ccf443b6f0open"> </g> <g id="e4b8cb66cd69da8cad2317ccf443b6f0teardrop"> <g id="e4b8cb66cd69da8cad2317ccf443b6f0primarycare_1_"> <use xlink:href="#teardrop_2_" width="50" height="50" y="-50" transform="matrix(1 0 0 -1 0 0)" overflow="visible"></use> <g id="e4b8cb66cd69da8cad2317ccf443b6f0icon_15_"> <g id="e4b8cb66cd69da8cad2317ccf443b6f0nodes_1_"> <path fill="#FFFFFF" d="M32.9,8.4c-0.3-1,0.3-2.1,1.3-2.4c1-0.3,2.1,0.3,2.4,1.3c0.3,1-0.3,2.1-1.3,2.4l-1.9,0.6L32.9,8.4z"></path> <path fill="#FFFFFF" d="M23.6,6.7c-0.8-0.7-0.8-2-0.1-2.7c0.7-0.8,2-0.8,2.7-0.1c0.8,0.7,0.8,2,0.1,2.7L25,8L23.6,6.7z"></path> <path fill="#FFFFFF" d="M14.6,9.8c-1-0.2-1.7-1.3-1.4-2.3c0.2-1,1.3-1.7,2.3-1.4c1,0.2,1.7,1.3,1.4,2.3l-0.4,1.9L14.6,9.8z"></path> <path fill="#FFFFFF" d="M8.4,17.1c-1,0.3-2.1-0.3-2.4-1.3c-0.3-1,0.3-2.1,1.3-2.4c1-0.3,2.1,0.3,2.4,1.3l0.6,1.9L8.4,17.1z"></path> <path fill="#FFFFFF" d="M6.7,26.4c-0.7,0.8-2,0.8-2.7,0.1c-0.8-0.7-0.8-2-0.1-2.7c0.7-0.8,2-0.8,2.7-0.1L8,25L6.7,26.4z"></path> <path fill="#FFFFFF" d="M9.8,35.4c-0.2,1-1.3,1.7-2.3,1.4c-1-0.2-1.7-1.3-1.4-2.3c0.2-1,1.3-1.7,2.3-1.4l1.9,0.4L9.8,35.4z"></path> <path fill="#FFFFFF" d="M17.1,41.6c0.3,1-0.3,2.1-1.3,2.4c-1,0.3-2.1-0.3-2.4-1.3c-0.3-1,0.3-2.1,1.3-2.4l1.8-0.6L17.1,41.6z"></path> <path fill="#FFFFFF" d="M26.4,43.3c0.8,0.7,0.8,2,0.1,2.7c-0.7,0.8-2,0.8-2.7,0.1s-0.8-2-0.1-2.7L25,42L26.4,43.3z"></path> <path fill="#FFFFFF" d="M35.4,40.2c1,0.2,1.7,1.3,1.4,2.3c-0.2,1-1.3,1.7-2.3,1.4c-1-0.2-1.7-1.3-1.4-2.3l0.4-1.9L35.4,40.2z"></path> <path fill="#FFFFFF" d="M41.6,32.9c1-0.3,2.1,0.3,2.4,1.3c0.3,1-0.3,2.1-1.3,2.4c-1,0.3-2.1-0.3-2.4-1.3l-0.6-1.8L41.6,32.9z"></path> <path fill="#FFFFFF" d="M43.3,23.6c0.7-0.8,2-0.8,2.7-0.1c0.8,0.7,0.8,2,0.1,2.7c-0.7,0.8-2,0.8-2.7,0.1L42,25L43.3,23.6z"></path> <path fill="#FFFFFF" d="M40.2,14.6c0.2-1,1.3-1.7,2.3-1.4c1,0.2,1.7,1.3,1.4,2.3c-0.2,1-1.3,1.7-2.3,1.4l-1.9-0.4L40.2,14.6z"></path> <path fill="#FFFFFF" d="M32.9,8.4c-0.3-1,0.3-2.1,1.3-2.4c1-0.3,2.1,0.3,2.4,1.3c0.3,1-0.3,2.1-1.3,2.4l-1.9,0.6L32.9,8.4z"></path> <path fill="#FFFFFF" d="M23.6,6.7c-0.8-0.7-0.8-2-0.1-2.7c0.7-0.8,2-0.8,2.7-0.1c0.8,0.7,0.8,2,0.1,2.7L25,8L23.6,6.7z"></path> <path fill="#FFFFFF" d="M14.6,9.8c-1-0.2-1.7-1.3-1.4-2.3c0.2-1,1.3-1.7,2.3-1.4c1,0.2,1.7,1.3,1.4,2.3l-0.4,1.9L14.6,9.8z"></path> <path fill="#FFFFFF" d="M8.4,17.1c-1,0.3-2.1-0.3-2.4-1.3c-0.3-1,0.3-2.1,1.3-2.4c1-0.3,2.1,0.3,2.4,1.3l0.6,1.9L8.4,17.1z"></path> <path fill="#FFFFFF" d="M6.7,26.4c-0.7,0.8-2,0.8-2.7,0.1c-0.8-0.7-0.8-2-0.1-2.7c0.7-0.8,2-0.8,2.7-0.1L8,25L6.7,26.4z"></path> <path fill="#FFFFFF" d="M9.8,35.4c-0.2,1-1.3,1.7-2.3,1.4c-1-0.2-1.7-1.3-1.4-2.3c0.2-1,1.3-1.7,2.3-1.4l1.9,0.4L9.8,35.4z"></path> <path fill="#FFFFFF" d="M17.1,41.6c0.3,1-0.3,2.1-1.3,2.4c-1,0.3-2.1-0.3-2.4-1.3c-0.3-1,0.3-2.1,1.3-2.4l1.8-0.6L17.1,41.6z"></path> <path fill="#FFFFFF" d="M26.4,43.3c0.8,0.7,0.8,2,0.1,2.7c-0.7,0.8-2,0.8-2.7,0.1c-0.8-0.7-0.8-2-0.1-2.7L25,42L26.4,43.3z"></path> <path fill="#FFFFFF" d="M35.4,40.2c1,0.2,1.7,1.3,1.4,2.3c-0.2,1-1.3,1.7-2.3,1.4c-1-0.2-1.7-1.3-1.4-2.3l0.4-1.9L35.4,40.2z"></path> </g> <g id="e4b8cb66cd69da8cad2317ccf443b6f0doctor_1_"> <path fill="#FFFFFF" d="M30.7,33.9H19.4c-2.1,0-3.5-1.2-3.5-3.4c0-2.6,0.5-6.6,3.6-7.3c-0.2,0.5-0.3,1-0.3,1.6v2.6
					c-1,0.4-1.7,1.3-1.7,2.3c0,1.4,1.1,2.5,2.5,2.5c1.4,0,2.5-1.1,2.5-2.5c0-1-0.7-2-1.7-2.3v-2.6c0-0.4,0-0.9,0.3-1.2
					c1.1,0.9,2.4,1.3,3.8,1.3c1.4,0,2.7-0.5,3.8-1.3c0.3,0.3,0.3,0.8,0.3,1.2v0.8c-1.8,0-3.3,1.5-3.3,3.3v1.2
					c-0.3,0.2-0.4,0.6-0.4,0.9c0,0.7,0.6,1.2,1.2,1.2c0.7,0,1.2-0.6,1.2-1.2c0-0.3-0.2-0.7-0.4-0.9v-1.2c0-0.9,0.8-1.7,1.7-1.7
					c0.9,0,1.7,0.7,1.7,1.7v1.2c-0.3,0.2-0.4,0.6-0.4,0.9c0,0.7,0.6,1.2,1.2,1.2c0.7,0,1.2-0.6,1.2-1.2c0-0.3-0.2-0.7-0.4-0.9v-1.2
					c0-1.2-0.6-2.3-1.7-2.9c0-0.9,0.1-2-0.3-2.8c3.1,0.7,3.6,4.7,3.6,7.3C34.2,32.6,32.8,33.9,30.7,33.9z"></path> <path fill="#FFFFFF" d="M20.1,30.6c-0.5,0-0.8-0.4-0.8-0.8c0-0.5,0.4-0.8,0.8-0.8c0.5,0,0.8,0.4,0.8,0.8
					C21,30.2,20.6,30.6,20.1,30.6z"></path> <circle fill="#FFFFFF" cx="25.1" cy="19" r="5"></circle> </g> </g> </g> </g> </g><g id="urology-open"> <g id="ca1a8ee2be29ff22bd0921d4cae748fbopen"> <g id="ca1a8ee2be29ff22bd0921d4cae748fburology"> <path id="ca1a8ee2be29ff22bd0921d4cae748fbkidney_1_" fill="#231F20" d="M23.4,20c0-0.4-0.4-0.7-0.9-0.7c-0.5,0-0.9,0.3-0.9,0.7l-0.3,5.2c-0.3-0.8-0.7-1.5-2.3-3
			c-0.3-0.4-0.9-1.5-0.7-2.5c0,0,4.9-0.8,2-6.6c-0.4-0.9-3.4-3.1-7.5-1.6c-0.3,0.1-6,1.8-7.2,9c0,0.4-1.7,6,1.6,11.4
			c0.1,0.4,3.3,6.5,9,3.7c0.5-0.2,5.1-1.8,3.1-7.3c-0.1-0.4-1.5-1.6-0.8-2.1c0.3,0,1.1-0.2,2.2,2.4c0.2,0.5,0,2.8,0.7,4.1
			c0,0.1,0.1,3.6,0.1,3.6c0,0.4,0.4,0.7,0.9,0.7c0.5,0,0.9-0.3,0.9-0.7L23.4,20z"></path> <path id="ca1a8ee2be29ff22bd0921d4cae748fbkidney" fill="#231F20" d="M27.5,20c0-0.4,0.4-0.7,0.9-0.7c0.5,0,0.9,0.3,0.9,0.7l0.3,5.2c0.3-0.8,0.7-1.5,2.3-3
			c0.3-0.4,0.9-1.5,0.7-2.5c0,0-4.9-0.8-2-6.6c0.4-0.9,3.4-3.1,7.5-1.6c0.3,0.1,6,1.8,7.2,9c0,0.4,1.7,6-1.6,11.4
			c-0.1,0.4-3.3,6.5-9,3.7c-0.5-0.2-5.1-1.8-3.1-7.3c0.1-0.4,1.5-1.6,0.8-2.1c-0.3,0-1.1-0.2-2.2,2.4c-0.2,0.5,0,2.8-0.7,4.1
			c0,0.1-0.1,3.6-0.1,3.6c0,0.4-0.4,0.7-0.9,0.7c-0.5,0-0.9-0.3-0.9-0.7L27.5,20z"></path> </g> </g> <g id="ca1a8ee2be29ff22bd0921d4cae748fbteardrop"> </g> </g><g id="urology"> <symbol id="eb2263bb4a19201c6236adb107accc4ateardrop_2_" viewbox="0 -50 50 50"> <path id="eb2263bb4a19201c6236adb107accc4ateardrop_1_" fill="#231F20" d="M25,0C11.2,0,0-11.2,0-25c0-13.8,11.2-25,25-25c13.8,0,25,11.2,25,25V0H25z"></path> <polygon display="none" fill="none" points="0,0 50,0 50,-50 0,-50 	"></polygon> </symbol> <g id="eb2263bb4a19201c6236adb107accc4aopen"> </g> <g id="eb2263bb4a19201c6236adb107accc4ateardrop"> <g id="eb2263bb4a19201c6236adb107accc4aurology_1_"> <use xlink:href="#teardrop_2_" width="50" height="50" y="-50" transform="matrix(1 0 0 -1 0 0)" overflow="visible"></use> <path id="eb2263bb4a19201c6236adb107accc4akidney_3_" fill="#FFFFFF" d="M23.4,20c0-0.4-0.4-0.7-0.9-0.7c-0.5,0-0.9,0.3-0.9,0.7l-0.3,5.2c-0.3-0.8-0.7-1.5-2.3-3
			c-0.3-0.4-0.9-1.5-0.7-2.5c0,0,4.9-0.8,2-6.6c-0.4-0.9-3.4-3.1-7.5-1.6c-0.3,0.1-6,1.8-7.2,9c0,0.4-1.7,6,1.6,11.4
			c0.1,0.4,3.3,6.5,9,3.7c0.5-0.2,5.1-1.8,3.1-7.3c-0.1-0.4-1.5-1.6-0.8-2.1c0.3,0,1.1-0.2,2.2,2.4c0.2,0.5,0,2.8,0.7,4.1
			c0,0.1,0.1,3.6,0.1,3.6c0,0.4,0.4,0.7,0.9,0.7c0.5,0,0.9-0.3,0.9-0.7L23.4,20z"></path> <path id="eb2263bb4a19201c6236adb107accc4akidney_2_" fill="#FFFFFF" d="M27.5,20c0-0.4,0.4-0.7,0.9-0.7c0.5,0,0.9,0.3,0.9,0.7l0.3,5.2c0.3-0.8,0.7-1.5,2.3-3
			c0.3-0.4,0.9-1.5,0.7-2.5c0,0-4.9-0.8-2-6.6c0.4-0.9,3.4-3.1,7.5-1.6c0.3,0.1,6,1.8,7.2,9c0,0.4,1.7,6-1.6,11.4
			c-0.1,0.4-3.3,6.5-9,3.7c-0.5-0.2-5.1-1.8-3.1-7.3c0.1-0.4,1.5-1.6,0.8-2.1c-0.3,0-1.1-0.2-2.2,2.4c-0.2,0.5,0,2.8-0.7,4.1
			c0,0.1-0.1,3.6-0.1,3.6c0,0.4-0.4,0.7-0.9,0.7c-0.5,0-0.9-0.3-0.9-0.7L27.5,20z"></path> </g> </g> </g></defs></svg>