<?xml version="1.0" standalone="no"?>
<!DOCTYPE svg PUBLIC "-//W3C//DTD SVG 1.1//EN" "http://www.w3.org/Graphics/SVG/1.1/DTD/svg11.dtd" >
<svg xmlns="http://www.w3.org/2000/svg">
<metadata>
Created by FontForge 20120731 at Tue Jul  1 17:47:04 2014
 By Liccy  Fuentes
Created by Liccy  Fuentes with FontForge 2.0 (http://fontforge.sf.net)
</metadata>
<defs>
<font id="icons" horiz-adv-x="512" >
  <font-face 
    font-family="icons"
    font-weight="500"
    font-stretch="normal"
    units-per-em="512"
    panose-1="2 0 6 3 0 0 0 0 0 0"
    ascent="448"
    descent="-64"
    bbox="-0.4 -576 512 448"
    underline-thickness="25"
    underline-position="-52"
    unicode-range="U+F101-F11C"
  />
<missing-glyph horiz-adv-x="187" 
d="M17 0v341h136v-341h-136zM34 17h102v307h-102v-307z" />
    <glyph glyph-name=".notdef" horiz-adv-x="187" 
d="M17 0v341h136v-341h-136zM34 17h102v307h-102v-307z" />
    <glyph glyph-name=".null" horiz-adv-x="0" 
 />
    <glyph glyph-name="nonmarkingreturn" horiz-adv-x="170" 
 />
    <glyph glyph-name="uniF101" unicode="&#xf101;" horiz-adv-x="355" 
d="M347 308q8 -3 8 -13q-2 -8 -11 -8h-13q1 -1 1 -5q0 -17 -17 -19v-151q17 -2 17 -19q0 -5 -3 -10q7 0 12.5 -5.5t5.5 -13.5v-19h-340v19q0 17 19 19q-3 3 -3 10t5 12.5t12 6.5v151q-17 2 -17 19v6h-13q-8 0 -10 8t6 12l171 73zM177 365l-144 -62h289zM282 112h17v151h-17
v-151zM267 112v151h-28v-151h28zM224 112v151h-17v-151h17zM193 112v151h-35v-151h35zM145 112v151h-18v-151h18zM113 112v151h-28v-151h28zM71 263h-18v-151h18v151zM333 63q0 5 -5 5h-301q-5 0 -5 -5v-5h311v5zM317 92q0 6 -6 6h-71h-46h-35h-46h-71q-6 0 -6 -6t6 -6h268
q7 0 7 6zM317 282q0 5 -8 5h-269q-5 0 -5 -5q0 -6 6 -6h71h46h35h46h71q7 0 7 6z" />
    <glyph glyph-name="uniF102" unicode="&#xf102;" 
d="M256 448h256v-256q0 -106 -75 -181t-181 -75t-181 75t-75 181t75 181t181 75zM427 309l-170 73l-171 -73q-8 -4 -6 -12t10 -8h12v-6q0 -17 18 -19v-151q-7 -1 -12.5 -6.5t-5.5 -12.5t3 -10q-18 -2 -18 -19v-19h340v19q0 8 -5.5 13.5t-12.5 5.5q3 4 3 10q0 7 -5.5 12.5
t-12.5 6.5v151q18 2 18 19q0 4 -1 5h13q8 0 10 8q0 10 -7 13zM257 366l144 -62h-288zM361 113v151h18v-151h-18zM347 113h-29v151h29v-151zM304 113h-17v151h17v-151zM272 113h-34v151h34v-151zM224 113h-17v151h17v-151zM193 113h-28v151h28v-151zM151 264v-151h-18v151h18
zM413 64v-5h-312v5q0 5 5 5h302q5 0 5 -5zM396 93q0 -6 -6 -6h-268q-6 0 -6 6t6 6h71h46h34h46h72q5 0 5 -6zM396 283q0 -6 -6 -6h-72h-46h-34h-47h-70q-6 0 -6 6q0 5 5 5h269q7 0 7 -5z" />
    <glyph glyph-name="uniF103" unicode="&#xf103;" horiz-adv-x="355" 
d="M347 308q8 -3 8 -13q-2 -8 -11 -8h-13q1 -1 1 -5q0 -17 -17 -19v-151q17 -2 17 -19q0 -5 -3 -10q7 0 12.5 -5.5t5.5 -13.5v-19h-340v19q0 17 19 19q-3 3 -3 10t5 12.5t12 6.5v151q-17 2 -17 19v6h-13q-8 0 -10 8t6 12l171 73zM267 112v151h-28v-151h28zM193 112v151h-35
v-151h35zM113 112v151h-28v-151h28z" />
    <glyph glyph-name="uniF104" unicode="&#xf104;" 
d="M256 448h256v-256q0 -106 -75 -181t-181 -75t-181 75t-75 181t75 181t181 75zM427 309l-170 73l-171 -73q-8 -4 -6 -12t10 -8h12v-6q0 -17 18 -19v-151q-7 -1 -12.5 -6.5t-5.5 -12.5t3 -10q-18 -2 -18 -19v-19h340v19q0 8 -5.5 13.5t-12.5 5.5q3 4 3 10q0 7 -5.5 12.5
t-12.5 6.5v151q18 2 18 19q0 4 -1 5h13q8 0 10 8q0 10 -7 13zM347 113h-29v151h29v-151zM272 113h-34v151h34v-151zM193 113h-28v151h28v-151z" />
    <glyph glyph-name="uniF105" unicode="&#xf105;" horiz-adv-x="342" 
d="M342 160l-54 55l-189 -190q-61 34 -99 98l189 190l-54 54h207v-207z" />
    <glyph glyph-name="uniF106" unicode="&#xf106;" horiz-adv-x="342" 
d="M342 160l-54 55l-189 -190q-61 34 -99 98l189 190l-54 54h207v-207z" />
    <glyph glyph-name="uniF107" unicode="&#xf107;" horiz-adv-x="369" 
d="M369 249q0 41 -29.5 70t-70.5 29q-57 0 -85 -48q-28 48 -85 48q-41 0 -70 -29t-29 -70q0 -42 32 -71l141 -136q5 -5 11 -5q7 0 11 4l142 137q32 29 32 71v0z" />
    <glyph glyph-name="uniF108" unicode="&#xf108;" horiz-adv-x="369" 
d="M369 249q0 41 -29.5 70t-70.5 29q-57 0 -85 -48q-28 48 -85 48q-41 0 -70 -29t-29 -70q0 -42 32 -71l141 -136q5 -5 11 -5q7 0 11 4l142 137q32 29 32 71v0z" />
    <glyph glyph-name="uniF109" unicode="&#xf109;" horiz-adv-x="354" 
d="M347 308q8 -3 6 -13q-2 -8 -10 -8h-13q1 -1 1 -5q0 -17 -17 -19v-151q17 -2 17 -19q0 -5 -3 -10q7 0 12.5 -5.5t5.5 -13.5v-19h-340v19q0 17 19 19q-3 5 -3 11q0 7 5 12.5t12 6.5v151q-17 2 -17 19v2q1 2 1 3h-13q-8 0 -10 8t6 12l171 73zM267 112v151h-28v-151h28z
M193 112v151h-35v-151h35zM113 112v151h-28v-151h28z" />
    <glyph glyph-name="uniF10A" unicode="&#xf10a;" horiz-adv-x="354" 
d="M347 308q8 -3 6 -13q-2 -8 -10 -8h-13q1 -1 1 -5q0 -17 -17 -19v-151q17 -2 17 -19q0 -5 -3 -10q7 0 12.5 -5.5t5.5 -13.5v-19h-340v19q0 17 19 19q-3 5 -3 11q0 7 5 12.5t12 6.5v151q-17 2 -17 19v2q1 2 1 3h-13q-8 0 -10 8t6 12l171 73zM177 365l-144 -62h289zM282 112
h17v151h-17v-151zM267 112v151h-28v-151h28zM224 112v151h-17v-151h17zM193 112v151h-35v-151h35zM145 112v151h-18v-151h18zM113 112v151h-28v-151h28zM71 263h-18v-151h18v151zM333 63q0 5 -5 5h-301q-5 0 -5 -5v-5h311v5zM317 92q0 6 -6 6h-71h-46h-35h-46h-71
q-6 0 -6 -6t6 -6h268q7 0 7 6zM317 282q0 5 -8 5h-269q-5 0 -5 -5q0 -6 6 -6h71h46h35h46h71q7 0 7 6z" />
    <glyph glyph-name="uniF10B" unicode="&#xf10b;" horiz-adv-x="364" 
d="M174 124q19 27 -4 37q9 19 -4 28q-13 10 -29 -6q-5 11 -14 13q-11 3 -19 -5l-10 -10q-5 -6 -15 -6q-15 2 -10 15q3 10 12 31.5t13 33.5q2 4 4 26q3 22 10 38q12 24 27 39q29 29 67 36q54 10 102 -20q42 -27 54 -74q22 -83 -42 -139q-4 -3 -4 -8v-101v-7h-142v35q0 2 2 4
q1 2 3.5 5t4.5 4q9 8 7 17t-13 14zM284 225q0 14 -11 25.5t-25 13.5q-5 0 -5 -4q0 -7 5 -7q14 -2 21 -15t0 -26q-8 -14 -22 -15q-5 -1 -4 -7q0 -5 6 -3q14 1 24.5 12.5t10.5 25.5zM144 249q0 6 -4.5 10.5t-9.5 4.5q-6 0 -10.5 -5t-4.5 -11q0 -14 15 -14q14 0 14 15zM220 138
q0 10 -9 10q-8 0 -10 -9q0 -10 9 -10q10 -2 10 9zM219 188q-9 0 -9 -9q0 -10 10 -10q9 0 9 11q0 8 -10 8zM206 194q-1 0 -3 2t-3 2q-4 0 -6 -6t6 -6q5 0 6 8zM197 170h-3q-5 -5 -5 -7q0 -6 7 -6q4 2 6 6q0 2 -5 7zM241 155q-3 3 -7 5q-4 0 -6 -5q-1 -5 5 -7q7 -2 8 7z
M36 111q2 2 4 3l70 70l4 4q7 6 13 -2q2 -2 2 -6.5t-3 -6.5l-28 -28q-4 -5 -13.5 -15t-14.5 -14q-3 -3 2 -7l2 -2q4 4 11.5 12.5t11.5 12.5l50 50q9 9 18 -1q4 -7 -2 -14q-4 -5 -12.5 -12.5t-10.5 -9.5l-50 -50q-1 -1 -1 -2l5 -5q2 2 8 7t9 8l42 42l6 6q7 7 14 1q7 -8 0 -15
q-31 -31 -45 -46l-19 -19q1 -2 3 -3.5t3 -3.5q7 7 19 21q4 5 13.5 14t14.5 13q7 7 14 0t0 -14l-11 -11l-13.5 -13.5l-11.5 -11.5q-11 -11 -17 -16q-3 -3 -7 -3h-111q-5 0 -5 5q6 64 8 88q1 3 1.5 9.5t0.5 9.5q0 6 6 4q18 -5 17 -19v-28q2 -1 3 -2z" />
    <glyph glyph-name="uniF10C" unicode="&#xf10c;" horiz-adv-x="364" 
d="M174 124q19 27 -4 37q9 19 -4 28q-13 10 -29 -6q-5 11 -14 13q-11 3 -19 -5l-10 -10q-5 -6 -15 -6q-15 2 -10 15q3 10 12 31.5t13 33.5q2 4 4 26q3 22 10 38q12 24 27 39q29 29 67 36q54 10 102 -20q42 -27 54 -74q22 -83 -42 -139q-4 -3 -4 -8v-101v-7h-142v35q0 2 2 4
q1 2 3.5 5t4.5 4q9 8 7 17t-13 14zM284 225q0 14 -11 25.5t-25 13.5q-5 0 -5 -4q0 -7 5 -7q14 -2 21 -15t0 -26q-8 -14 -22 -15q-5 -1 -4 -7q0 -5 6 -3q14 1 24.5 12.5t10.5 25.5zM144 249q0 6 -4.5 10.5t-9.5 4.5q-6 0 -10.5 -5t-4.5 -11q0 -14 15 -14q14 0 14 15zM220 138
q0 10 -9 10q-8 0 -10 -9q0 -10 9 -10q10 -2 10 9zM219 188q-9 0 -9 -9q0 -10 10 -10q9 0 9 11q0 8 -10 8zM206 194q-1 0 -3 2t-3 2q-4 0 -6 -6t6 -6q5 0 6 8zM197 170h-3q-5 -5 -5 -7q0 -6 7 -6q4 2 6 6q0 2 -5 7zM241 155q-3 3 -7 5q-4 0 -6 -5q-1 -5 5 -7q7 -2 8 7z
M36 111q2 2 4 3l70 70l4 4q7 6 13 -2q2 -2 2 -6.5t-3 -6.5l-28 -28q-4 -5 -13.5 -15t-14.5 -14q-3 -3 2 -7l2 -2q4 4 11.5 12.5t11.5 12.5l50 50q9 9 18 -1q4 -7 -2 -14q-4 -5 -12.5 -12.5t-10.5 -9.5l-50 -50q-1 -1 -1 -2l5 -5q2 2 8 7t9 8l42 42l6 6q7 7 14 1q7 -8 0 -15
q-31 -31 -45 -46l-19 -19q1 -2 3 -3.5t3 -3.5q7 7 19 21q4 5 13.5 14t14.5 13q7 7 14 0t0 -14l-11 -11l-13.5 -13.5l-11.5 -11.5q-11 -11 -17 -16q-3 -3 -7 -3h-111q-5 0 -5 5q6 64 8 88q1 3 1.5 9.5t0.5 9.5q0 6 6 4q18 -5 17 -19v-28q2 -1 3 -2z" />
    <glyph glyph-name="uniF10D" unicode="&#xf10d;" horiz-adv-x="338" 
d="M329 114q0 -14 -12 -26t-26 -12q-15 0 -27 12q-11 11 -11 26q0 11 6 20l4 6q5 6 7 11q6 9 8 13q4 6 6 15q0 3 2 3q1 1 4 1q2 0 4 -1q2 -2 2 -3q2 -9 6 -15q3 -5 7 -13q1 -1 3 -5t4 -6l5 -6q8 -7 8 -20zM292 295q20 -1 33.5 -14t12.5 -32q0 -20 -13.5 -33.5t-32.5 -13.5
h-69q0 -10 -7 -24q1 -3 1 -10q0 -20 -12 -35q0 -27 -18 -45q-17 -17 -46 -17q-22 0 -65 15q-33 12 -45 12h-31v25h27h4h2q15 0 34 -6q12 -5 38 -13q20 -6 37 -6q39 0 39 34q0 7 -1 11q6 3 9 10q4 10 4 15t-5 15q12 12 12 24q0 4 -2 12q-1 5 -5 9h59h13h13h10h1h1h1h2
q8 0 14 6t6 14t-6 14.5t-14 6.5h-2h-3h-4h-5h-7h-16h-6h-110q0 4 3 10q1 2 4 5.5t4 5.5q4 5 7 15q3 9 3 17q0 14 -9 20t-24 6q-4 0 -18 -29q-2 -4 -8 -13q-8 -15 -22 -30q-13 -16 -21 -22q-14 -11 -28 -11h-2h-4h-25v27h30q2 0 4 1q1 1 2.5 2t2.5 1l4 4q2 1 5 4l4 4l4 4l3 3
q8 9 21 27q1 1 2 2.5t2.5 4.5l2.5 5q2 5 7 15q2 5 8 13q5 6 12 10q6 3 14 3q26 0 42 -13t16 -39q0 -15 -4 -26h110z" />
    <glyph glyph-name="uniF10E" unicode="&#xf10e;" horiz-adv-x="338" 
d="M329 114q0 -14 -12 -26t-26 -12q-15 0 -27 12q-11 11 -11 26q0 11 6 20l4 6q5 6 7 11q6 9 8 13q4 6 6 15q0 3 2 3q1 1 4 1q2 0 4 -1q2 -2 2 -3q2 -9 6 -15q3 -5 7 -13q1 -1 3 -5t4 -6l5 -6q8 -7 8 -20zM292 295q20 -1 33.5 -14t12.5 -32q0 -20 -13.5 -33.5t-32.5 -13.5
h-69q0 -10 -7 -24q1 -3 1 -10q0 -20 -12 -35q0 -27 -18 -45q-17 -17 -46 -17q-22 0 -65 15q-33 12 -45 12h-31v25h27h4h2q15 0 34 -6q12 -5 38 -13q20 -6 37 -6q39 0 39 34q0 7 -1 11q6 3 9 10q4 10 4 15t-5 15q12 12 12 24q0 4 -2 12q-1 5 -5 9h59h13h13h10h1h1h1h2
q8 0 14 6t6 14t-6 14.5t-14 6.5h-2h-3h-4h-5h-7h-16h-6h-110q0 4 3 10q1 2 4 5.5t4 5.5q4 5 7 15q3 9 3 17q0 14 -9 20t-24 6q-4 0 -18 -29q-2 -4 -8 -13q-8 -15 -22 -30q-13 -16 -21 -22q-14 -11 -28 -11h-2h-4h-25v27h30q2 0 4 1q1 1 2.5 2t2.5 1l4 4q2 1 5 4l4 4l4 4l3 3
q8 9 21 27q1 1 2 2.5t2.5 4.5l2.5 5q2 5 7 15q2 5 8 13q5 6 12 10q6 3 14 3q26 0 42 -13t16 -39q0 -15 -4 -26h110z" />
    <glyph glyph-name="uniF10F" unicode="&#xf10f;" horiz-adv-x="419" 
d="M419 188q0 -6 -5 -16q-32 -53 -88 -86t-117 -33t-117 33q-53 34 -87 87q-5 8 -5 16q0 6 5 16q32 53 88 86q55 33 117 33t117 -33q56 -33 88 -86q4 -8 4 -17zM389 188q-37 57 -89 83q14 -25 14 -52q0 -44 -30 -74q-31 -31 -74 -31t-74 31t-31 74q0 27 15 52
q-52 -26 -89 -83q30 -48 78 -76q50 -29 101 -29q54 0 101 29q47 26 78 76zM218 270q3 3 3 8t-3 8t-8 3q-28 0 -50 -20q-21 -21 -21 -50q0 -6 3 -9t9 -3q5 0 8 3t3 9q0 18 14 34q14 15 35 15q3 -2 7 2z" />
    <glyph glyph-name="uniF110" unicode="&#xf110;" horiz-adv-x="419" 
d="M419 188q0 -6 -5 -16q-32 -53 -88 -86t-117 -33t-117 33q-53 34 -87 87q-5 8 -5 16q0 6 5 16q32 53 88 86q55 33 117 33t117 -33q56 -33 88 -86q4 -8 4 -17zM389 188q-37 57 -89 83q14 -25 14 -52q0 -44 -30 -74q-31 -31 -74 -31t-74 31t-31 74q0 27 15 52
q-52 -26 -89 -83q30 -48 78 -76q50 -29 101 -29q54 0 101 29q47 26 78 76zM218 270q3 3 3 8t-3 8t-8 3q-28 0 -50 -20q-21 -21 -21 -50q0 -6 3 -9t9 -3q5 0 8 3t3 9q0 18 14 34q14 15 35 15q3 -2 7 2z" />
    <glyph glyph-name="uniF111" unicode="&#xf111;" 
d="M256 448h256v-256q0 -106 -75 -181t-181 -75t-181 75t-75 181t75 181t181 75zM270 375v-46q20 0 38 -3q-1 4 -1 49h-37zM87 156q11 0 31 9q44 18 81 48q13 11 28 11q27 0 40 7q14 7 41 30.5t25 32.5t-18 13t-39 5l-24 1q-8 1 -28 5.5t-35.5 7t-28.5 2.5q-10 0 -14 -1
q-26 -4 -42 -17.5t-23.5 -38t-9.5 -42.5t-3 -47q0 -26 19 -26zM425 124q18 21 27.5 59t0 74.5t-41.5 44.5q-4 5 -31.5 0t-29.5 -5q4 -21 -34 -54q18 -45 -16 -76q-14 -13 -28.5 -14t-24.5 5.5t-24.5 13.5t-26.5 8q-6 0 -14 -2q-15 -9 -17 -10q-6 -6 -10.5 -16.5t-6.5 -20
t-3 -24t-1 -22.5v-22v-17h41v1q0 6 -1 21t-0.5 26t3.5 21q8 24 43 -13l22 -22q24 -24 57 -20.5t63.5 21t52.5 43.5z" />
    <glyph glyph-name="uniF112" unicode="&#xf112;" horiz-adv-x="389" 
d="M160 224q-14 0 -30 -12q-39 -30 -81 -47q-18 -9 -31 -9q-18 0 -18 25v7v-2q1 28 3.5 46t9.5 41.5t23.5 36.5t41.5 17q4 1 14 1q14 0 29.5 -2.5t35 -7t27.5 -5.5q3 -1 24.5 -2t38 -5t18.5 -12q3 -9 -24.5 -32.5t-40.5 -30.5q-14 -7 -40 -7zM240 375v-48q-5 1 -11 1.5
t-14 1t-12 0.5v45h37zM342 301q33 -8 42.5 -45t0 -75t-26.5 -58q-22 -26 -52.5 -43.5t-63.5 -20.5t-57 21l-13 13q-36 39 -46 30q-3 -2 -5 -8q-3 -10 -3.5 -21t0.5 -26t1 -21h-40q0 4 -0.5 20t-0.5 27t1.5 26t6 27t11.5 20q8 4 20 12q4 1 12 1q12 -1 26.5 -8t24.5 -13.5
t24.5 -5.5t28.5 14q32 29 16 75q1 0 1 1t1 2q37 31 34 51q3 0 24 4t33 1z" />
    <glyph glyph-name="uniF113" unicode="&#xf113;" horiz-adv-x="389" 
d="M160 224q-14 0 -30 -12q-39 -30 -81 -47q-18 -9 -31 -9q-18 0 -18 25v7v-2q1 28 3.5 46t9.5 41.5t23.5 36.5t41.5 17q4 1 14 1q14 0 29.5 -2.5t35 -7t27.5 -5.5q3 -1 24.5 -2t38 -5t18.5 -12q3 -9 -24.5 -32.5t-40.5 -30.5q-14 -7 -40 -7zM240 375v-48q-5 1 -11 1.5
t-14 1t-12 0.5v45h37zM342 301q33 -8 42.5 -45t0 -75t-26.5 -58q-22 -26 -52.5 -43.5t-63.5 -20.5t-57 21l-13 13q-36 39 -46 30q-3 -2 -5 -8q-3 -10 -3.5 -21t0.5 -26t1 -21h-40q0 4 -0.5 20t-0.5 27t1.5 26t6 27t11.5 20q8 4 20 12q4 1 12 1q12 -1 26.5 -8t24.5 -13.5
t24.5 -5.5t28.5 14q32 29 16 75q1 0 1 1t1 2q37 31 34 51q3 0 24 4t33 1z" />
    <glyph glyph-name="uniF114" unicode="&#xf114;" horiz-adv-x="398" 
d="M190 351q41 23 79 -6q5 1 16 1q24 0 43 -19q8 -8 12 -16q1 -3 4 -4q10 -4 15 -7q2 -1 5 -4l4 -4q15 -15 18 -35q2 -15 -1 -27q30 -44 -4 -83q-2 -12 -4 -16q-3 -10 -10 -19q-9 -11 -23 -17q-3 -1 -16 -12q-8 -7 -15 -17q-9 -12 -14 -28q-1 -4 -3 -14q0 -2 -2 -3h-21
q-1 1 -1 3v66q0 11 3 23q3 14 16 24q1 1 7.5 5t8.5 7q2 0 6 -2q2 -1 3 -1q11 -6 17 -17q4 -6 8 -6q7 3 7 9v2q-1 1 -1 2q-6 10 -18 20q-6 4 -10 6q7 13 8 25q2 16 -2 27q2 1 9.5 3.5t10.5 4.5q12 8 17 14v6q-6 9 -14 1q-10 -10 -23 -13h-6q-8 13 -21 21q-16 10 -28 11
q3 17 12 27l2 2q4 4 0 11q-5 3 -10 0l-5 -5t-4 -5q-6 -9 -10 -25q0 -2 -1 -3q-5 0 -11 3q-20 9 -26 24q-5 10 -5 18q0 3 -1 5q-2 7 -8 7q-8 0 -6 -8q0 -7 1 -10q-7 -7 -14 -10q-23 -9 -46 4q-2 1 -5 4l-4 4q-2 2 -4 2q-1 0 -5 -2q-6 -6 -1 -11q5 -4 6 -5q8 -6 12 -8
q2 -8 -6 -21t-17 -17q-14 20 -36 26q-4 -1 -7 -4q-1 -9 6 -11q15 -6 23 -15q1 -1 1 -2q-4 -2 -8 -2q-6 0 -18 -2q-16 -3 -29 -14l-2 -2q-10 -8 2 -14q1 0 2 -1q4 0 8 4q12 12 26 13q2 0 10.5 0.5t12.5 1.5q19 5 32 18q15 15 18 34q0 1 1 1q24 -5 50 10q10 -16 17 -22
q-11 -15 -13 -32q-3 -1 -7 -1q-15 1 -32 -7q-1 0 -2 -1q-6 -4 -3 -10q2 -6 8 -4q1 1 4 2t4 1q15 7 27 4q1 -1 1.5 -4.5t0.5 -4.5q4 -12 15 -27q2 -2 6 -4q6 0 8 7q0 3 -4 7q-7 7 -11 22q-5 20 7 38q1 3 4 4q2 0 5.5 -2t5.5 -2q10 -2 16 -2q17 0 28 -8q8 -6 12 -10
q9 -10 12 -23q1 -2 1 -4.5v-3.5h-4q-17 3 -34 -3q-1 0 -2 -1l-2 -1q-4 -4 -1 -9q3 -4 8 -3q1 0 3.5 1t4.5 1.5t4 0.5q11 2 19 -1h1l1 -1q-2 -8 -7 -15q-6 -9 -19 -16q-20 -12 -26 -35q-3 -9 -3 -27v-63v-5h-18q-2 0 -3 1v5v63q0 16 -7 27q-10 22 -35 33q-11 6 -18 11
q-4 4 -5 4q-35 -21 -71 0q-2 0 -3 -1q-7 -5 -27 -9q-17 -3 -37 6q-19 9 -28 28q-5 11 -7 26q-2 17 6 32q5 12 20 25q8 6 10 6q4 2 4 5q2 8 4 11q2 6 5 9q1 1 2 2.5t2.5 2.5t2.5 2q14 14 35 19h3h4.5h3.5h5q13 22 37.5 28t45.5 -5z" />
    <glyph glyph-name="uniF115" unicode="&#xf115;" horiz-adv-x="398" 
d="M190 351q41 23 79 -6q5 1 16 1q24 0 43 -19q8 -8 12 -16q1 -3 4 -4q10 -4 15 -7q2 -1 5 -4l4 -4q15 -15 18 -35q2 -15 -1 -27q30 -44 -4 -83q-2 -12 -4 -16q-3 -10 -10 -19q-9 -11 -23 -17q-3 -1 -16 -12q-8 -7 -15 -17q-9 -12 -14 -28q-1 -4 -3 -14q0 -2 -2 -3h-21
q-1 1 -1 3v66q0 11 3 23q3 14 16 24q1 1 7.5 5t8.5 7q2 0 6 -2q2 -1 3 -1q11 -6 17 -17q4 -6 8 -6q7 3 7 9v2q-1 1 -1 2q-6 10 -18 20q-6 4 -10 6q7 13 8 25q2 16 -2 27q2 1 9.5 3.5t10.5 4.5q12 8 17 14v6q-6 9 -14 1q-10 -10 -23 -13h-6q-8 13 -21 21q-16 10 -28 11
q3 17 12 27l2 2q4 4 0 11q-5 3 -10 0l-5 -5t-4 -5q-6 -9 -10 -25q0 -2 -1 -3q-5 0 -11 3q-20 9 -26 24q-5 10 -5 18q0 3 -1 5q-2 7 -8 7q-8 0 -6 -8q0 -7 1 -10q-7 -7 -14 -10q-23 -9 -46 4q-2 1 -5 4l-4 4q-2 2 -4 2q-1 0 -5 -2q-6 -6 -1 -11q5 -4 6 -5q8 -6 12 -8
q2 -8 -6 -21t-17 -17q-14 20 -36 26q-4 -1 -7 -4q-1 -9 6 -11q15 -6 23 -15q1 -1 1 -2q-4 -2 -8 -2q-6 0 -18 -2q-16 -3 -29 -14l-2 -2q-10 -8 2 -14q1 0 2 -1q4 0 8 4q12 12 26 13q2 0 10.5 0.5t12.5 1.5q19 5 32 18q15 15 18 34q0 1 1 1q24 -5 50 10q10 -16 17 -22
q-11 -15 -13 -32q-3 -1 -7 -1q-15 1 -32 -7q-1 0 -2 -1q-6 -4 -3 -10q2 -6 8 -4q1 1 4 2t4 1q15 7 27 4q1 -1 1.5 -4.5t0.5 -4.5q4 -12 15 -27q2 -2 6 -4q6 0 8 7q0 3 -4 7q-7 7 -11 22q-5 20 7 38q1 3 4 4q2 0 5.5 -2t5.5 -2q10 -2 16 -2q17 0 28 -8q8 -6 12 -10
q9 -10 12 -23q1 -2 1 -4.5v-3.5h-4q-18 3 -34 -3q-1 0 -2 -1l-2 -1q-4 -4 -1 -9q3 -4 8 -3q1 0 3.5 1t4.5 1.5t4 0.5q11 2 19 -1h1l1 -1q-2 -8 -7 -15q-6 -9 -19 -16q-20 -12 -26 -35q-3 -9 -3 -27v-63v-5h-18q-2 0 -3 1v5v63q0 16 -7 27q-10 22 -35 33q-11 6 -18 11
q-4 4 -5 4q-35 -21 -71 0q-2 0 -3 -1q-7 -5 -27 -9q-17 -3 -37 6q-19 9 -28 28q-5 11 -7 26q-2 17 6 32q5 12 20 25q8 6 10 6q4 2 4 5q2 8 4 11q2 6 5 9q1 1 2 2.5t2.5 2.5t2.5 2q14 14 35 19h3h4.5h3.5h5q13 22 37.5 28t45.5 -5z" />
    <glyph glyph-name="uniF116" unicode="&#xf116;" horiz-adv-x="356" 
d="M178 370q74 0 126 -52t52 -126t-52 -126t-126 -52t-126 52t-52 126t52 126t126 52zM53 261v-64h69v64h-69zM130 56q12 0 21 9t9 21t-9 20.5t-21 8.5t-21 -8.5t-9 -20.5t9 -21t21 -9zM173 144q12 0 21 8.5t9 21.5q0 12 -9 20.5t-21 8.5t-21 -8.5t-9 -20.5t9 -21t21 -9z
M203 281q11 0 19.5 9t9.5 21q0 12 -8.5 20.5t-20.5 8.5t-21 -8.5t-9 -20.5t9 -21t21 -9zM261 84q12 0 20.5 9t9.5 21q0 12 -9 21t-21 9t-21 -9t-9 -21t9 -21t21 -9zM274 191q12 0 21 9t9 21t-9 20.5t-21 8.5t-20.5 -8.5t-8.5 -20.5t8.5 -21t20.5 -9z" />
    <glyph glyph-name="uniF117" unicode="&#xf117;" horiz-adv-x="356" 
d="M178 370q74 0 126 -52t52 -126t-52 -126t-126 -52t-126 52t-52 126t52 126t126 52zM53 261v-64h69v64h-69zM130 56q12 0 21 9t9 21t-9 20.5t-21 8.5t-21 -8.5t-9 -20.5t9 -21t21 -9zM173 144q12 0 21 8.5t9 21.5q0 12 -9 20.5t-21 8.5t-21 -8.5t-9 -20.5t9 -21t21 -9z
M203 281q11 0 19.5 9t9.5 21q0 12 -8.5 20.5t-20.5 8.5t-21 -8.5t-9 -20.5t9 -21t21 -9zM261 84q12 0 20.5 9t9.5 21q0 12 -9 21t-21 9t-21 -9t-9 -21t9 -21t21 -9zM274 191q12 0 21 9t9 21t-9 20.5t-21 8.5t-20.5 -8.5t-8.5 -20.5t8.5 -21t20.5 -9z" />
    <glyph glyph-name="uniF118" unicode="&#xf118;" horiz-adv-x="443" 
d="M302 362q-2 7 2 15t12 10q18 5 24 -14q2 -7 -1.5 -14.5t-11.5 -9.5l-20 -6zM207 379q-6 5 -6 14t5 14q5 6 14 6t14 -5q6 -5 6 -14t-5 -14l-14 -14zM115 348q-8 2 -12.5 9t-2.5 14q2 8 9.5 12.5t14.5 2.5q8 -2 12 -9t2 -15l-4 -19zM51 273q-7 -2 -14.5 1.5t-9.5 11.5
t2 15.5t11 9.5t15 -2t10 -12l6 -19zM34 178q-5 -6 -14 -6t-14 5q-6 5 -6 13.5t5 13.5q5 6 14 6t14 -5l14 -13zM66 86q-2 -8 -9.5 -12.5t-14.5 -2.5q-8 1 -12 9t-2 15q2 8 9 12t14 2l20 -4zM140 22q2 -8 -2 -15.5t-11 -9.5q-18 -5 -24 14q-2 7 1.5 14.5t11.5 9.5l18 6zM236 5
q6 -5 6 -14t-5 -14q-5 -6 -14 -6t-14 5t-5.5 14t4.5 14l13 14zM328 36q8 -2 12 -9t2 -14q-2 -8 -9 -12.5t-14 -2.5q-8 2 -12.5 9.5t-2.5 14.5l4 19zM391 111q8 2 15.5 -2t9.5 -11q2 -8 -2 -15.5t-11 -9.5t-15 2t-10 12l-6 18zM409 206q5 6 13.5 6t13.5 -5q6 -5 6 -13.5
t-5 -13.5q-5 -6 -13.5 -6t-13.5 5l-15 13zM377 298q2 8 9.5 12.5t14.5 2.5q7 -1 11.5 -9t2.5 -15q-1 -7 -9 -11.5t-15 -2.5l-19 4zM302 362q-2 7 2 15t12 10q18 5 24 -14q2 -7 -1.5 -14.5t-11.5 -9.5l-20 -6zM207 379q-6 5 -6 14t5 14q5 6 14 6t14 -5q6 -5 6 -14t-5 -14
l-14 -14zM115 348q-8 2 -12.5 9t-2.5 14q2 8 9.5 12.5t14.5 2.5q8 -2 12 -9t2 -15l-4 -19zM51 273q-7 -2 -14.5 1.5t-9.5 11.5t2 15.5t11 9.5t15 -2t10 -12l6 -19zM34 178q-5 -6 -14 -6t-14 5q-6 5 -6 13.5t5 13.5q5 6 14 6t14 -5l14 -13zM66 86q-2 -8 -9.5 -12.5
t-14.5 -2.5q-8 1 -12 9t-2 15q2 8 9 12t14 2l20 -4zM140 22q2 -8 -2 -15.5t-11 -9.5q-18 -5 -24 14q-2 7 1.5 14.5t11.5 9.5l18 6zM236 5q6 -5 6 -14t-5 -14q-5 -6 -14 -6t-14 5q-6 5 -6 14t5 14l13 14zM328 36q8 -2 12 -9t2 -14q-2 -8 -9 -12.5t-14 -2.5q-8 2 -12.5 9.5
t-2.5 14.5l4 19zM280 101h-116q-36 0 -36 35q0 66 37 74q-3 -8 -3 -16v-27q-17 -7 -17 -23q0 -11 7.5 -18.5t17.5 -7.5t18 8t8 18q0 18 -18 23v27q0 9 3 12q16 -13 39 -13q21 0 39 13q3 -3 3 -12v-8q-14 0 -24 -10t-10 -24v-12q-4 -3 -4 -9q0 -5 4 -9t9 -4q12 0 12 13
q0 5 -4 9v12q0 7 5 12t12 5t12.5 -5t5.5 -12v-12q-4 -3 -4 -9q0 -5 3.5 -9t8.5 -4q12 0 12 13q0 5 -4 9v12q0 21 -17 30q0 22 -3 28q36 -8 36 -74q2 -16 -6.5 -25.5t-25.5 -9.5zM171 135q-8 0 -8 8t8 8t8 -8q2 -8 -8 -8zM171 253q0 52 51 52q52 0 52 -52q0 -51 -52 -51
q-51 0 -51 51z" />
    <glyph glyph-name="uniF119" unicode="&#xf119;" horiz-adv-x="443" 
d="M302 362q-2 7 2 15t12 10q18 5 24 -14q2 -7 -1.5 -14.5t-11.5 -9.5l-20 -6zM207 379q-6 5 -6 14t5 14q5 6 14 6t14 -5q6 -5 6 -14t-5 -14l-14 -14zM115 348q-8 2 -12.5 9t-2.5 14q2 8 9.5 12.5t14.5 2.5q8 -2 12 -9t2 -15l-4 -19zM51 273q-7 -2 -14.5 1.5t-9.5 11.5
t2 15.5t11 9.5t15 -2t10 -12l6 -19zM34 178q-5 -6 -14 -6t-14 5q-6 5 -6 13.5t5 13.5q5 6 14 6t14 -5l14 -13zM66 86q-2 -8 -9.5 -12.5t-14.5 -2.5q-8 1 -12 9t-2 15q2 8 9 12t14 2l20 -4zM140 22q2 -8 -2 -15.5t-11 -9.5q-18 -5 -24 14q-2 7 1.5 14.5t11.5 9.5l18 6zM236 5
q6 -5 6 -14t-5 -14q-5 -6 -14 -6t-14 5q-6 5 -6 14t5 14l13 14zM328 36q8 -2 12 -9t2 -14q-2 -8 -9 -12.5t-14 -2.5q-8 2 -12.5 9.5t-2.5 14.5l4 19zM391 111q8 2 15.5 -2t9.5 -11q2 -8 -2 -15.5t-11 -9.5t-15 2t-10 12l-6 18zM409 206q5 6 13.5 6t13.5 -5q6 -5 6 -13.5
t-5 -13.5q-5 -6 -13.5 -6t-13.5 5l-15 13zM377 298q2 8 9.5 12.5t14.5 2.5q7 -1 11.5 -9t2.5 -15q-1 -7 -9 -11.5t-15 -2.5l-19 4zM302 362q-2 7 2 15t12 10q18 5 24 -14q2 -7 -1.5 -14.5t-11.5 -9.5l-20 -6zM207 379q-6 5 -6 14t5 14q5 6 14 6t14 -5q6 -5 6 -14t-5 -14
l-14 -14zM115 348q-8 2 -12.5 9t-2.5 14q2 8 9.5 12.5t14.5 2.5q8 -2 12 -9t2 -15l-4 -19zM51 273q-7 -2 -14.5 1.5t-9.5 11.5t2 15.5t11 9.5t15 -2t10 -12l6 -19zM34 178q-5 -6 -14 -6t-14 5q-6 5 -6 13.5t5 13.5q5 6 14 6t14 -5l14 -13zM66 86q-2 -8 -9.5 -12.5
t-14.5 -2.5q-8 1 -12 9t-2 15q2 8 9 12t14 2l20 -4zM140 22q2 -8 -2 -15.5t-11 -9.5q-18 -5 -24 14q-2 7 1.5 14.5t11.5 9.5l18 6zM236 5q6 -5 6 -14t-5 -14q-5 -6 -14 -6t-14 5q-6 5 -6 14t5 14l13 14zM328 36q8 -2 12 -9t2 -14q-2 -8 -9 -12.5t-14 -2.5q-8 2 -12.5 9.5
t-2.5 14.5l4 19zM280 101h-116q-36 0 -36 35q0 66 37 74q-3 -8 -3 -16v-27q-17 -7 -17 -23q0 -11 7.5 -18.5t17.5 -7.5t18 8t8 18q0 18 -18 23v27q0 9 3 12q16 -13 39 -13q21 0 39 13q3 -3 3 -12v-8q-14 0 -24 -10t-10 -24v-12q-4 -3 -4 -9q0 -5 4 -9t9 -4q12 0 12 13
q0 5 -4 9v12q0 7 5 12t12 5t12.5 -5t5.5 -12v-12q-4 -3 -4 -9q0 -5 3.5 -9t8.5 -4q12 0 12 13q0 5 -4 9v12q0 21 -17 30q0 22 -3 28q36 -8 36 -74q2 -16 -6.5 -25.5t-25.5 -9.5zM171 135q-8 0 -8 8t8 8t8 -8q2 -8 -8 -8zM171 253q0 52 51 52q52 0 52 -52q0 -51 -52 -51
q-51 0 -51 51z" />
    <glyph glyph-name="uniF11A" unicode="&#xf11a;" 
d="M256 -64h256v-256q0 -106 -75 -181t-181 -75t-181 75t-75 181t75 181t181 75z" />
    <glyph glyph-name="uniF11B" unicode="&#xf11b;" horiz-adv-x="415" 
d="M187 243l-1 -167q0 -7 -9 -7q-10 0 -10 7q-1 36 -1 37q-4 8 -5.5 24.5t-1.5 17.5q-5 12 -10 18t-7 6.5t-5 0.5q-3 -4 -1.5 -7t5.5 -8.5t4 -6.5q19 -54 -32 -75q-17 -9 -31.5 -7.5t-25.5 7.5t-19 15t-11.5 15t-4.5 8q-8 13 -13 27.5t-6.5 26.5t-1.5 23.5t1 19.5t2 14l1 6
q12 71 74 92q33 8 53 1t24 -17q13 -29 8.5 -44t-16.5 -20l-12 -4q-2 -12 7 -25q18 -16 23 -31l3 53q0 7 10 7q9 0 9 -7zM229 243q0 7 9 7t9 -7l3 -53q5 13 24 31q9 13 7 25q-2 0 -5.5 1t-10.5 6t-11 11.5t-3 19.5t9 30q4 10 24 17t53 -1q62 -21 74 -92l1 -6q1 -6 2.5 -14
t1.5 -19.5t-1.5 -23.5t-6.5 -26.5t-13 -27.5q-1 -6 -11.5 -18t-32 -23.5t-49.5 3.5q-51 20 -31 75q0 1 4 6.5t5.5 8.5t-1.5 7q-3 0 -5 -0.5t-7.5 -6.5t-10.5 -18q0 -1 -1.5 -17.5t-5.5 -24.5l-1 -37q0 -7 -9 -7t-9 7z" />
    <glyph glyph-name="uniF11C" unicode="&#xf11c;" horiz-adv-x="415" 
d="M187 243l-1 -167q0 -7 -9 -7q-10 0 -10 7q-1 36 -1 37q-4 8 -5.5 24.5t-1.5 17.5q-5 12 -10 18t-7 6.5t-5 0.5q-3 -4 -1.5 -7t5.5 -8.5t4 -6.5q19 -54 -32 -75q-17 -9 -31.5 -7.5t-25.5 7.5t-19 15t-11.5 15t-4.5 8q-8 13 -13 27.5t-6.5 26.5t-1.5 23.5t1 19.5t2 14l1 6
q12 71 74 92q33 8 53 1t24 -17q13 -29 8.5 -44t-16.5 -20l-12 -4q-2 -12 7 -25q18 -16 23 -31l3 53q0 7 10 7q9 0 9 -7zM229 243q0 7 9 7t9 -7l3 -53q5 13 24 31q9 13 7 25q-2 0 -5.5 1t-10.5 6t-11 11.5t-3 19.5t9 30q4 10 24 17t53 -1q62 -21 74 -92l1 -6q1 -6 2.5 -14
t1.5 -19.5t-1.5 -23.5t-6.5 -26.5t-13 -27.5q-1 -6 -11.5 -18t-32 -23.5t-49.5 3.5q-51 20 -31 75q0 1 4 6.5t5.5 8.5t-1.5 7q-3 0 -5 -0.5t-7.5 -6.5t-10.5 -18q0 -1 -1.5 -17.5t-5.5 -24.5l-1 -37q0 -7 -9 -7t-9 7z" />
  </font>
</defs>
</svg>
