<?xml version="1.0" encoding="iso-8859-1"?>
<!-- Generator: Adobe Illustrator 15.0.2, SVG Export Plug-In . SVG Version: 6.00 Build 0)  -->
<!DOCTYPE svg PUBLIC "-//W3C//DTD SVG 1.1//EN" "http://www.w3.org/Graphics/SVG/1.1/DTD/svg11.dtd">
<svg version="1.1" id="Layer_1" xmlns="http://www.w3.org/2000/svg" xmlns:xlink="http://www.w3.org/1999/xlink" x="0px" y="0px"
	 width="47.518px" height="47.518px" viewBox="0 0 47.518 47.518" style="enable-background:new 0 0 47.518 47.518;"
	 xml:space="preserve">
<path style="fill:#B7B7B7;" d="M23.76,0C10.639,0,0,10.636,0,23.758c0,13.121,10.639,23.759,23.76,23.759
	c13.123,0,23.758-10.638,23.758-23.759V0H23.76z M41.406,23.037c-0.674,1.282-2.16,4.251-5.398,6.344
	c-1.857,1.327-7.525,3.298-10.414,8.888c-0.137,0.272-0.541,0.272-0.625,0c-2.891-5.59-8.518-7.561-10.375-8.888
	c-3.24-2.093-4.725-5.062-5.398-6.344c-0.944-2.158-1.146-4.184-0.878-6.208c0.674-4.116,4.251-6.479,5.735-7.018
	c8.976-3.239,11.174,4.258,11.174,4.258s2.347-7.497,11.321-4.258c1.485,0.539,5.061,2.901,5.735,7.018
	C42.554,18.853,42.352,20.879,41.406,23.037z"/>
</svg>
