<?xml version="1.0" encoding="utf-8"?>
<!-- Generator: Adobe Illustrator 18.0.0, SVG Export Plug-In . SVG Version: 6.00 Build 0)  -->
<!DOCTYPE svg PUBLIC "-//W3C//DTD SVG 1.1//EN" "http://www.w3.org/Graphics/SVG/1.1/DTD/svg11.dtd">
<svg version="1.1" xmlns="http://www.w3.org/2000/svg" xmlns:xlink="http://www.w3.org/1999/xlink" x="0px" y="0px"
	 viewBox="0 0 50 50" enable-background="new 0 0 50 50" xml:space="preserve">
<g id="open">
</g>
<g id="teardrop">
	<g id="COE-2">
		<g>
			<path fill="#231F20" d="M25,0C11.2,0,0,11.2,0,25c0,13.8,11.2,25,25,25s25-11.2,25-25V0H25z"/>
			<path fill="#FFFFFF" d="M41.7,13.6L25.1,6.4L8.4,13.6c-0.4,0.2-0.7,0.6-0.6,1.1c0.1,0.5,0.5,0.8,1,0.8h1.2
				C10,15.7,10,15.9,10,16.1c0,1,0.7,1.8,1.7,1.9v14.7c-0.9,0.1-1.7,1-1.7,1.9c0,0.3,0.1,0.7,0.3,0.9c-1,0.1-1.8,0.9-1.8,1.9v1.9
				h33.2v-1.9c0-1-0.8-1.9-1.8-1.9c0.2-0.3,0.3-0.6,0.3-0.9c0-1-0.8-1.8-1.7-1.9V18c1-0.1,1.7-0.9,1.7-1.9c0-0.2,0-0.4-0.1-0.5h1.3
				c0.5,0,0.9-0.3,1-0.8C42.4,14.3,42.2,13.8,41.7,13.6z M33.9,32.7h-2.8V18h2.8V32.7z M26.6,32.7h-3.4V18h3.4V32.7z M18.8,32.7
				h-2.7V18h2.7V32.7z"/>
		</g>
	</g>
</g>
</svg>
