<?xml version="1.0" encoding="utf-8"?>
<!-- Generator: Adobe Illustrator 18.0.0, SVG Export Plug-In . SVG Version: 6.00 Build 0)  -->
<!DOCTYPE svg PUBLIC "-//W3C//DTD SVG 1.1//EN" "http://www.w3.org/Graphics/SVG/1.1/DTD/svg11.dtd">
<svg version="1.1" xmlns="http://www.w3.org/2000/svg" xmlns:xlink="http://www.w3.org/1999/xlink" x="0px" y="0px"
	 viewBox="0 0 50 50" enable-background="new 0 0 50 50" xml:space="preserve">
<g id="open">
</g>
<g id="teardrop">
	<g id="COE-1">
		<g>
			<path fill="#231F20" d="M25,0C11.2,0,0,11.2,0,25c0,13.8,11.2,25,25,25s25-11.2,25-25V0H25z"/>
			<path fill="#FFFFFF" d="M41.7,13.6L25.1,6.4L8.4,13.6c-0.4,0.2-0.7,0.6-0.6,1.1c0.1,0.5,0.5,0.8,1,0.8h1.2
				C10,15.7,10,15.9,10,16.1c0,1,0.7,1.8,1.7,1.9v14.7c-0.9,0.1-1.7,1-1.7,1.9c0,0.3,0.1,0.7,0.3,0.9c-1,0.1-1.8,0.9-1.8,1.9v1.9
				h33.2v-1.9c0-1-0.8-1.9-1.8-1.9c0.2-0.3,0.3-0.6,0.3-0.9c0-1-0.8-1.8-1.7-1.9V18c1-0.1,1.7-0.9,1.7-1.9c0-0.2,0-0.4-0.1-0.5h1.3
				c0.5,0,0.9-0.3,1-0.8C42.4,14.3,42.2,13.8,41.7,13.6z M25.1,8l14.1,6.1H11L25.1,8z M35.3,32.7V18H37v14.7H35.3z M33.9,32.7h-2.8
				V18h2.8V32.7z M29.7,32.7h-1.7V18h1.7V32.7z M26.6,32.7h-3.4V18h3.4V32.7z M21.9,32.7h-1.7V18h1.7V32.7z M18.8,32.7h-2.7V18h2.7
				V32.7z M14.7,18v14.7h-1.7V18H14.7z M40.3,37.5V38H9.9v-0.5c0-0.3,0.2-0.5,0.5-0.5h29.4C40.1,37,40.3,37.2,40.3,37.5z M38.7,34.7
				c0,0.3-0.2,0.6-0.6,0.6H11.9c-0.3,0-0.6-0.2-0.6-0.6c0-0.3,0.2-0.6,0.6-0.6h6.9h4.5h3.4h4.5h7C38.5,34.1,38.7,34.4,38.7,34.7z
				 M38.7,16.1c0,0.3-0.2,0.6-0.6,0.6h-7h-4.5h-3.4h-4.5h-6.9c-0.3,0-0.6-0.2-0.6-0.6c0-0.3,0.2-0.5,0.5-0.5h26.3
				C38.5,15.6,38.7,15.8,38.7,16.1z"/>
		</g>
	</g>
</g>
</svg>
