<?xml version="1.0" encoding="UTF-8" standalone="no"?>
<svg width="48px" height="48px" viewBox="0 0 48 48" version="1.1" xmlns="http://www.w3.org/2000/svg" xmlns:xlink="http://www.w3.org/1999/xlink" xmlns:sketch="http://www.bohemiancoding.com/sketch/ns">
    <!-- Generator: Sketch 3.0.3 (7891) - http://www.bohemiancoding.com/sketch -->
    <title>coe</title>
    <desc>Created with Sketch.</desc>
    <defs></defs>
    <g id="Page-1" stroke="none" stroke-width="1" fill="none" fill-rule="evenodd" sketch:type="MSPage">
        <g id="coe" sketch:type="MSArtboardGroup" fill="#000000">
            <g id="pu-icon-coe" sketch:type="MSLayerGroup" transform="translate(1.000000, 2.000000)">
                <path d="M45.5429487,9.09162368 L45.5429487,12.211611 L42.5104872,12.211611 C42.5104872,13.0635095 41.7744872,13.7734249 40.8757179,13.7734249 L4.70202564,13.7734249 C3.79971795,13.7734249 3.06725641,13.0671501 3.06725641,12.211611 L0.0347948718,12.211611 L0.0347948718,9.09162368 L22.790641,-0.271978858 L45.5429487,9.09162368 L45.5429487,9.09162368 Z" id="Shape" sketch:type="MSShapeGroup"></path>
                <path d="M45.5429487,40.6169658 L45.5429487,43.4260465 L0.0312564103,43.4260465 L0.0312564103,40.6169658 C0.0312564103,39.4541607 0.76725641,38.7442452 1.96792417,38.7442452 L43.606281,38.7442452 C44.8069487,38.7442452 45.5429487,39.4505201 45.5429487,40.6169658 L45.5429487,40.6169658 Z" id="Shape" sketch:type="MSShapeGroup"></path>
                <path d="M12.4568168,15.3315983 L12.4568168,34.2059164 L15.273685,34.2059164 L15.273685,15.3315983 L20.9074212,15.3315983 L20.9074212,34.2059164 L24.6632454,34.2059164 L24.6632454,15.3315983 L30.2969817,15.3315983 L30.2969817,34.2059164 L33.1138498,34.2059164 L33.1138498,15.3315983 L39.6865421,15.3315983 L39.6865421,34.2059164 L40.6254982,34.2059164 C41.7709487,34.062444 42.5034103,34.7687188 42.5034103,35.1993016 L42.5034103,37.1860719 L3.06725641,37.1860719 L3.06725641,35.1993016 C3.06725641,34.7723594 3.80325641,34.062444 4.9451685,34.2059164 L5.88412454,34.2059164 L5.88412454,15.3315983 L12.4568168,15.3315983 L12.4568168,15.3315983 Z" id="Shape" sketch:type="MSShapeGroup"></path>
            </g>
        </g>
    </g>
</svg>