<?xml version="1.0" encoding="utf-8"?>
<!-- Generator: Adobe Illustrator 18.0.0, SVG Export Plug-In . SVG Version: 6.00 Build 0)  -->
<!DOCTYPE svg PUBLIC "-//W3C//DTD SVG 1.1//EN" "http://www.w3.org/Graphics/SVG/1.1/DTD/svg11.dtd">
<svg version="1.1" xmlns="http://www.w3.org/2000/svg" xmlns:xlink="http://www.w3.org/1999/xlink" x="0px" y="0px"
	 viewBox="0 0 50 50" enable-background="new 0 0 50 50" xml:space="preserve">
<g id="open">
	<g id="dermatology">
		<g id="icon_4_">
			<path id="face" fill-rule="evenodd" clip-rule="evenodd" fill="#231F20" d="M25.3,31.6c1.3-1.8,1.2-2.9-0.4-3.6
				c0.5-1,0.6-2-0.4-2.7c-1.1-0.8-2-0.2-2.8,0.6c-0.3-0.6-0.7-1.1-1.4-1.3c-0.7-0.2-1.3,0-1.8,0.5c-0.4,0.3-0.7,0.7-1,1
				c-0.4,0.5-0.9,0.6-1.5,0.6c-0.9-0.1-1.3-0.7-1-1.5c0.8-2.1,1.7-4.2,2.5-6.4c0.3-0.8,0.3-1.6,0.4-2.5c0.2-1.3,0.4-2.5,0.9-3.7
				c0.7-1.4,1.6-2.7,2.7-3.8c1.8-1.8,4-3,6.5-3.5c3.6-0.7,6.9-0.1,10,1.9c2.7,1.8,4.5,4.2,5.3,7.3c1.4,5.3,0,9.9-4.1,13.5
				c-0.3,0.2-0.4,0.4-0.4,0.8c0,3.3,0,6.6,0,9.9c0,0.2,0,0.4,0,0.7c-4.7,0-9.3,0-13.9,0c0-1.2,0-2.3,0-3.5c0-0.1,0.1-0.3,0.2-0.4
				c0.3-0.3,0.5-0.5,0.8-0.8C27.1,33.7,26.8,32.2,25.3,31.6z M36,21.8c0-1.9-1.6-3.6-3.5-3.8c-0.3,0-0.5,0.1-0.5,0.4
				c0,0.4,0.1,0.6,0.5,0.6c1.9,0.3,3,2.3,2.1,4c-0.5,0.9-1.2,1.4-2.2,1.5c-0.5,0.1-0.5,0.3-0.4,0.7c0,0.4,0.3,0.4,0.6,0.3
				C34.5,25.4,36,23.7,36,21.8z M22.4,19.4c0-0.8-0.7-1.4-1.4-1.4c-0.8,0-1.5,0.7-1.5,1.5c0,0.8,0.7,1.4,1.5,1.4
				C21.8,20.9,22.4,20.2,22.4,19.4z M29.8,30.3c0-0.5-0.5-1-0.9-1c-0.5,0-0.9,0.5-1,0.9c0,0.5,0.4,1,0.9,1
				C29.4,31.3,29.8,30.8,29.8,30.3z M29.7,25.4c-0.5,0-0.9,0.4-0.9,0.9c0,0.5,0.4,0.9,1,0.9c0.5,0,0.9-0.4,0.9-1
				C30.7,25.8,30.3,25.4,29.7,25.4z M28.4,24.8c-0.2-0.1-0.4-0.4-0.6-0.4c-0.2,0-0.5,0.3-0.6,0.6c-0.1,0.3,0.1,0.6,0.6,0.6
				C28.2,25.6,28.3,25.4,28.4,24.8z M27.5,27.1c-0.1,0-0.2,0-0.3,0c-0.2,0.2-0.4,0.5-0.4,0.7c0,0.4,0.3,0.6,0.6,0.6
				c0.2-0.1,0.5-0.4,0.6-0.6C28,27.6,27.7,27.3,27.5,27.1z M31.8,28.6c-0.1-0.1-0.4-0.4-0.6-0.5c-0.2,0-0.5,0.3-0.6,0.5
				c-0.1,0.4,0.1,0.6,0.5,0.7C31.5,29.4,31.7,29.2,31.8,28.6z"/>
			<path id="hand" fill-rule="evenodd" clip-rule="evenodd" fill="#231F20" d="M11.8,32.9c0.1-0.1,0.2-0.2,0.4-0.3
				c2.3-2.3,4.5-4.5,6.8-6.8c0.1-0.1,0.3-0.3,0.4-0.4c0.4-0.3,1-0.2,1.3,0.2c0.3,0.3,0.3,1-0.1,1.3c-0.9,0.9-1.8,1.8-2.7,2.7
				c-0.9,0.9-1.9,1.9-2.8,2.8c-0.5,0.5,0.2,0.5,0.4,0.9c0.8-0.8,1.5-1.6,2.3-2.4c1.6-1.6,3.3-3.3,4.9-4.9c0.6-0.6,1.2-0.5,1.7,0.1
				c0.3,0.5,0.2,0.9-0.2,1.3c-0.7,0.8-1.5,1.5-2.2,2.2c-1.6,1.6-3.2,3.3-4.9,4.9c0,0-0.1,0.1-0.1,0.2c0.2,0.2,0.3,0.3,0.5,0.5
				c0.5-0.5,1.1-1,1.6-1.5c1.4-1.4,2.7-2.7,4.1-4.1c0.2-0.2,0.4-0.4,0.6-0.6c0.4-0.4,1.1-0.4,1.4-0.1c0.4,0.4,0.5,1,0,1.5
				c-1.5,1.5-3,3-4.4,4.5c-0.6,0.6-1.2,1.2-1.9,1.8c0.2,0.3,0.4,0.4,0.6,0.7c0.7-0.7,1.3-1.3,1.9-2c0.9-0.9,1.8-1.8,2.7-2.7
				c0.4-0.4,1-0.4,1.4,0c0.4,0.4,0.4,1,0,1.4c-1.1,1.2-2.3,2.3-3.5,3.5c-0.6,0.6-1.1,1.1-1.7,1.6c-0.2,0.2-0.4,0.3-0.7,0.3
				c-3.6,0-7.2,0-10.8,0c-0.4,0-0.5-0.1-0.5-0.5c0.3-2.9,0.6-5.7,0.8-8.6c0.1-0.6,0.1-1.2,0.2-1.9c0-0.4,0.2-0.5,0.6-0.4
				c0.8,0.2,1.7,0.7,1.6,1.9c0,0.9,0,1.8,0,2.7C11.7,32.8,11.7,32.8,11.8,32.9z"/>
		</g>
	</g>
</g>
<g id="teardrop">
</g>
</svg>
