<?xml version="1.0" encoding="iso-8859-1"?>
<!-- Generator: Adobe Illustrator 15.0.2, SVG Export Plug-In . SVG Version: 6.00 Build 0)  -->
<!DOCTYPE svg PUBLIC "-//W3C//DTD SVG 1.1//EN" "http://www.w3.org/Graphics/SVG/1.1/DTD/svg11.dtd">
<svg version="1.1" id="Layer_1" xmlns="http://www.w3.org/2000/svg" xmlns:xlink="http://www.w3.org/1999/xlink" x="0px" y="0px"
	 width="47.518px" height="47.518px" viewBox="0 0 47.518 47.518" style="enable-background:new 0 0 47.518 47.518;"
	 xml:space="preserve">
<g id="Dermatology">
	<g>
		<g>
			<g>
				<path style="fill:#B7B7B7;" d="M23.761,0C10.639,0,0,10.635,0,23.758c0,13.121,10.639,23.76,23.761,23.76
					s23.757-10.639,23.757-23.76V0H23.761z"/>
			</g>
		</g>
	</g>
	<g id="isD6AH_2_">
		<g>
			<path style="fill-rule:evenodd;clip-rule:evenodd;fill:#FFFFFF;" d="M24.019,29.994c1.25-1.713,1.142-2.787-0.374-3.439
				c0.506-0.956,0.601-1.912-0.392-2.607c-1.019-0.713-1.861-0.183-2.633,0.609c-0.309-0.596-0.641-1.082-1.298-1.24
				c-0.649-0.156-1.201-0.011-1.679,0.429c-0.344,0.316-0.696,0.63-0.982,0.996c-0.389,0.497-0.872,0.608-1.462,0.562
				c-0.827-0.064-1.252-0.674-0.945-1.448c0.794-2.013,1.643-4.005,2.384-6.038c0.27-0.734,0.311-1.555,0.427-2.342
				c0.178-1.198,0.336-2.387,0.864-3.514c0.643-1.37,1.51-2.557,2.596-3.589c1.758-1.671,3.815-2.835,6.19-3.331
				c3.396-0.711,6.593-0.133,9.492,1.8c2.529,1.685,4.294,4.005,5.053,6.944c1.304,5.053-0.036,9.374-3.934,12.873
				c-0.238,0.213-0.353,0.418-0.351,0.749c0.014,3.142,0.008,6.282,0.008,9.423c0,0.204,0,0.408,0,0.646c-4.435,0-8.815,0-13.252,0
				c0-1.127-0.007-2.217,0.008-3.307c0.003-0.117,0.102-0.25,0.191-0.346c0.246-0.268,0.511-0.519,0.767-0.777
				C25.744,31.986,25.441,30.566,24.019,29.994z M34.242,20.691c0.011-1.824-1.489-3.455-3.297-3.604
				c-0.332-0.026-0.468,0.055-0.481,0.412c-0.014,0.393,0.112,0.525,0.517,0.58c1.851,0.257,2.847,2.205,1.986,3.832
				c-0.44,0.83-1.161,1.293-2.063,1.408c-0.483,0.062-0.434,0.332-0.426,0.645c0.012,0.421,0.313,0.34,0.563,0.314
				C32.799,24.104,34.232,22.493,34.242,20.691z M21.287,18.457c-0.011-0.717-0.656-1.362-1.37-1.369
				c-0.763-0.006-1.403,0.665-1.384,1.447c0.021,0.738,0.644,1.34,1.386,1.334C20.677,19.862,21.298,19.221,21.287,18.457z
				 M28.349,28.842c0.01-0.446-0.434-0.903-0.889-0.918c-0.449-0.013-0.896,0.43-0.904,0.896c-0.008,0.464,0.421,0.905,0.883,0.912
				C27.903,29.738,28.341,29.312,28.349,28.842z M28.257,24.181c-0.52,0.009-0.879,0.381-0.863,0.892
				c0.015,0.488,0.424,0.872,0.912,0.855c0.488-0.018,0.881-0.426,0.873-0.907C29.169,24.531,28.774,24.17,28.257,24.181z
				 M26.994,23.574c-0.153-0.111-0.381-0.404-0.598-0.396c-0.199,0.008-0.5,0.316-0.55,0.538c-0.068,0.317,0.143,0.588,0.537,0.604
				C26.784,24.338,26.927,24.095,26.994,23.574z M26.128,25.752c-0.084,0.002-0.17,0.004-0.254,0.006
				c-0.15,0.23-0.4,0.451-0.426,0.695c-0.036,0.352,0.274,0.613,0.607,0.53c0.22-0.055,0.518-0.363,0.523-0.564
				C26.584,26.201,26.29,25.975,26.128,25.752z M30.227,27.216c-0.136-0.117-0.337-0.421-0.557-0.437
				c-0.192-0.013-0.51,0.263-0.587,0.477c-0.123,0.336,0.102,0.6,0.472,0.646C29.927,27.95,30.139,27.756,30.227,27.216z"/>
			<path style="fill-rule:evenodd;clip-rule:evenodd;fill:#FFFFFF;" d="M11.179,31.232c0.114-0.097,0.233-0.183,0.336-0.285
				c2.149-2.143,4.299-4.287,6.449-6.43c0.121-0.121,0.247-0.246,0.391-0.337c0.424-0.267,0.961-0.181,1.276,0.188
				c0.257,0.299,0.247,0.934-0.063,1.252c-0.858,0.881-1.731,1.746-2.604,2.611c-0.896,0.893-1.811,1.768-2.69,2.674
				c-0.429,0.439,0.149,0.493,0.363,0.83c0.764-0.791,1.472-1.546,2.201-2.28c1.552-1.56,3.107-3.114,4.673-4.661
				c0.573-0.566,1.184-0.518,1.577,0.089c0.3,0.463,0.149,0.874-0.188,1.224c-0.699,0.723-1.418,1.426-2.13,2.137
				c-1.542,1.545-3.085,3.09-4.626,4.637c-0.047,0.047-0.076,0.109-0.13,0.189c0.146,0.156,0.286,0.303,0.48,0.51
				c0.522-0.502,1.03-0.98,1.526-1.471c1.303-1.289,2.601-2.584,3.897-3.878c0.195-0.195,0.371-0.411,0.571-0.603
				c0.391-0.373,1.015-0.396,1.368-0.065c0.413,0.387,0.446,0.937,0.011,1.381c-1.395,1.423-2.808,2.827-4.221,4.231
				c-0.576,0.57-1.171,1.123-1.795,1.721c0.225,0.244,0.379,0.412,0.589,0.641c0.646-0.66,1.243-1.281,1.85-1.893
				c0.868-0.873,1.738-1.74,2.611-2.605c0.394-0.391,0.978-0.396,1.358-0.026c0.379,0.371,0.403,0.94,0.006,1.347
				c-1.088,1.115-2.193,2.213-3.293,3.316c-0.525,0.526-1.042,1.064-1.591,1.566c-0.159,0.146-0.417,0.26-0.631,0.262
				c-3.42,0.016-6.839,0.006-10.258,0.017c-0.39,0.001-0.517-0.112-0.477-0.511c0.272-2.728,0.527-5.457,0.789-8.186
				c0.057-0.586,0.133-1.172,0.171-1.76c0.023-0.387,0.228-0.486,0.552-0.4c0.758,0.199,1.617,0.661,1.557,1.84
				c-0.044,0.865,0,1.734,0.006,2.602C11.092,31.133,11.127,31.158,11.179,31.232z"/>
		</g>
	</g>
</g>
</svg>
