<?xml version="1.0" encoding="UTF-8" standalone="no"?>
<svg width="48px" height="48px" viewBox="0 0 48 48" version="1.1" xmlns="http://www.w3.org/2000/svg" xmlns:xlink="http://www.w3.org/1999/xlink" xmlns:sketch="http://www.bohemiancoding.com/sketch/ns">
    <!-- Generator: Sketch 3.0.3 (7891) - http://www.bohemiancoding.com/sketch -->
    <title>dermatology</title>
    <desc>Created with Sketch.</desc>
    <defs></defs>
    <g id="Page-1" stroke="none" stroke-width="1" fill="none" fill-rule="evenodd" sketch:type="MSPage">
        <g id="dermatology" sketch:type="MSArtboardGroup" fill="#231F20">
            <g id="pu-icon-dermatology" sketch:type="MSLayerGroup" transform="translate(6.000000, 7.000000)">
                <path d="M17.3,26.6 C18.6,24.8 18.5,23.7 16.9,23 C17.4,22 17.5,21 16.5,20.3 C15.4,19.5 14.5,20.1 13.7,20.9 C13.4,20.3 13,19.8 12.3,19.6 C11.6,19.4 11,19.6 10.5,20.1 C10.1,20.4 9.8,20.8 9.5,21.1 C9.1,21.6 8.6,21.7 8,21.7 C7.1,21.6 6.7,21 7,20.2 C7.8,18.1 8.7,16 9.5,13.8 C9.8,13 9.8,12.2 9.9,11.3 C10.1,10 10.3,8.8 10.8,7.6 C11.5,6.2 12.4,4.9 13.5,3.8 C15.3,2 17.5,0.8 20,0.3 C23.6,-0.4 26.9,0.2 30,2.2 C32.7,4 34.5,6.4 35.3,9.5 C36.7,14.8 35.3,19.4 31.2,23 C30.9,23.2 30.8,23.4 30.8,23.8 L30.8,33.7 L30.8,34.4 L16.9,34.4 L16.9,30.9 C16.9,30.8 17,30.6 17.1,30.5 C17.4,30.2 17.6,30 17.9,29.7 C19.1,28.7 18.8,27.2 17.3,26.6 L17.3,26.6 Z M28,16.8 C28,14.9 26.4,13.2 24.5,13 C24.2,13 24,13.1 24,13.4 C24,13.8 24.1,14 24.5,14 C26.4,14.3 27.5,16.3 26.6,18 C26.1,18.9 25.4,19.4 24.4,19.5 C23.9,19.6 23.9,19.8 24,20.2 C24,20.6 24.3,20.6 24.6,20.5 C26.5,20.4 28,18.7 28,16.8 L28,16.8 Z M14.4,14.4 C14.4,13.6 13.7,13 13,13 C12.2,13 11.5,13.7 11.5,14.5 C11.5,15.3 12.2,15.9 13,15.9 C13.8,15.9 14.4,15.2 14.4,14.4 L14.4,14.4 Z M21.8,25.3 C21.8,24.8 21.3,24.3 20.9,24.3 C20.4,24.3 20,24.8 19.9,25.2 C19.9,25.7 20.3,26.2 20.8,26.2 C21.4,26.3 21.8,25.8 21.8,25.3 L21.8,25.3 Z M21.7,20.4 C21.2,20.4 20.8,20.8 20.8,21.3 C20.8,21.8 21.2,22.2 21.8,22.2 C22.3,22.2 22.7,21.8 22.7,21.2 C22.7,20.8 22.3,20.4 21.7,20.4 L21.7,20.4 Z M20.4,19.8 C20.2,19.7 20,19.4 19.8,19.4 C19.6,19.4 19.3,19.7 19.2,20 C19.1,20.3 19.3,20.6 19.8,20.6 C20.2,20.6 20.3,20.4 20.4,19.8 L20.4,19.8 Z M19.5,22.1 L19.2,22.1 C19,22.3 18.8,22.6 18.8,22.8 C18.8,23.2 19.1,23.4 19.4,23.4 C19.6,23.3 19.9,23 20,22.8 C20,22.6 19.7,22.3 19.5,22.1 L19.5,22.1 Z M23.8,23.6 C23.7,23.5 23.4,23.2 23.2,23.1 C23,23.1 22.7,23.4 22.6,23.6 C22.5,24 22.7,24.2 23.1,24.3 C23.5,24.4 23.7,24.2 23.8,23.6 L23.8,23.6 Z" id="face" sketch:type="MSShapeGroup"></path>
                <path d="M3.8,27.9 C3.9,27.8 4,27.7 4.2,27.6 C6.5,25.3 8.7,23.1 11,20.8 C11.1,20.7 11.3,20.5 11.4,20.4 C11.8,20.1 12.4,20.2 12.7,20.6 C13,20.9 13,21.6 12.6,21.9 C11.7,22.8 10.8,23.7 9.9,24.6 C9,25.5 8,26.5 7.1,27.4 C6.6,27.9 7.3,27.9 7.5,28.3 C8.3,27.5 9,26.7 9.8,25.9 C11.4,24.3 13.1,22.6 14.7,21 C15.3,20.4 15.9,20.5 16.4,21.1 C16.7,21.6 16.6,22 16.2,22.4 C15.5,23.2 14.7,23.9 14,24.6 C12.4,26.2 10.8,27.9 9.1,29.5 C9.1,29.5 9,29.6 9,29.7 C9.2,29.9 9.3,30 9.5,30.2 C10,29.7 10.6,29.2 11.1,28.7 C12.5,27.3 13.8,26 15.2,24.6 C15.4,24.4 15.6,24.2 15.8,24 C16.2,23.6 16.9,23.6 17.2,23.9 C17.6,24.3 17.7,24.9 17.2,25.4 C15.7,26.9 14.2,28.4 12.8,29.9 C12.2,30.5 11.6,31.1 10.9,31.7 C11.1,32 11.3,32.1 11.5,32.4 C12.2,31.7 12.8,31.1 13.4,30.4 C14.3,29.5 15.2,28.6 16.1,27.7 C16.5,27.3 17.1,27.3 17.5,27.7 C17.9,28.1 17.9,28.7 17.5,29.1 C16.4,30.3 15.2,31.4 14,32.6 C13.4,33.2 12.9,33.7 12.3,34.2 C12.1,34.4 11.9,34.5 11.6,34.5 L0.8,34.5 C0.4,34.5 0.3,34.4 0.3,34 C0.6,31.1 0.9,28.3 1.1,25.4 C1.2,24.8 1.2,24.2 1.3,23.5 C1.3,23.1 1.5,23 1.9,23.1 C2.7,23.3 3.6,23.8 3.5,25 L3.5,27.7 C3.7,27.8 3.7,27.8 3.8,27.9 L3.8,27.9 Z" id="hand" sketch:type="MSShapeGroup"></path>
            </g>
        </g>
    </g>
</svg>