<?xml version="1.0" encoding="UTF-8" standalone="no"?>
<svg width="48px" height="48px" viewBox="0 0 48 48" version="1.1" xmlns="http://www.w3.org/2000/svg" xmlns:xlink="http://www.w3.org/1999/xlink" xmlns:sketch="http://www.bohemiancoding.com/sketch/ns">
    <!-- Generator: Sketch 3.0.3 (7891) - http://www.bohemiancoding.com/sketch -->
    <title>diabetes</title>
    <desc>Created with Sketch.</desc>
    <defs></defs>
    <g id="Page-1" stroke="none" stroke-width="1" fill="none" fill-rule="evenodd" sketch:type="MSPage">
        <g id="diabetes" sketch:type="MSArtboardGroup" fill="#231F20">
            <g sketch:type="MSLayerGroup" transform="translate(8.000000, 10.000000)" id="pu-icon-diabetes">
                <g sketch:type="MSShapeGroup">
                    <path d="M32.1,25.6 C32.1,26.6 31.7,27.5 31,28.2 C30.3,28.9 29.4,29.3 28.4,29.3 C27.4,29.3 26.5,28.9 25.8,28.2 C25.1,27.5 24.7,26.6 24.7,25.6 C24.7,24.9 24.9,24.3 25.3,23.7 C25.3,23.7 25.5,23.4 25.7,23.1 C26,22.7 26.2,22.4 26.4,22 C26.6,21.7 26.8,21.3 27.1,20.7 C27.4,20.2 27.6,19.7 27.7,19.3 C27.7,19.2 27.8,19 27.9,19 C28,18.9 28.1,18.9 28.3,18.9 C28.4,18.9 28.5,18.9 28.7,19 C28.8,19.1 28.9,19.2 28.9,19.3 C29,19.7 29.2,20.2 29.5,20.7 C29.8,21.2 30,21.6 30.2,22 C30.4,22.3 30.6,22.7 30.9,23.1 C31.2,23.5 31.3,23.7 31.3,23.7 C31.9,24.2 32.1,24.9 32.1,25.6 L32.1,25.6 Z" id="blood"></path>
                    <path d="M28.5,7.9 L17.8,7.9 C18.1,7.1 18.2,6.3 18.2,5.4 C18.2,3.8 17.7,2.5 16.6,1.6 C15.5,0.7 14.2,0.3 12.5,0.3 C12,0.3 11.5,0.4 11.1,0.6 C10.7,0.8 10.3,1.2 10,1.6 C9.7,2 9.4,2.4 9.2,2.9 C9,3.3 8.7,3.8 8.5,4.3 C8.2,4.8 8,5.3 7.8,5.5 C7.3,6.2 6.7,7.1 5.8,8.1 C5.8,8.1 5.7,8.3 5.5,8.4 C5.3,8.6 5.2,8.7 5.1,8.8 C5,8.9 4.9,9 4.7,9.2 C4.5,9.4 4.4,9.5 4.2,9.6 C4.1,9.7 3.9,9.8 3.8,10 C3.6,10.1 3.5,10.2 3.3,10.3 C3.1,10.4 3,10.4 2.9,10.4 L0,10.4 L0,13 L2.4,13 L2.8,13 L3,13 C3.9,13 4.9,12.6 5.8,11.9 C6.2,11.6 6.9,10.9 7.8,9.8 C8.8,8.7 9.5,7.8 10,6.9 C10.2,6.6 10.4,6.2 10.7,5.6 C11.6,3.8 12.2,2.8 12.5,2.8 C13.4,2.8 14.2,3 14.8,3.4 C15.4,3.8 15.7,4.5 15.7,5.3 C15.7,5.9 15.6,6.4 15.4,7 C15.2,7.6 15,8 14.7,8.4 C14.5,8.8 14.2,9.1 14,9.5 C13.8,9.9 13.7,10.2 13.7,10.5 L24.4,10.5 L25,10.5 L26.6,10.5 L27.2,10.5 L27.7,10.5 L28.1,10.5 L28.4,10.5 L28.6,10.5 C29.7,10.5 30.6,11.4 30.6,12.5 C30.6,13.6 29.7,14.5 28.6,14.5 L28.4,14.5 L28.3,14.5 L28.2,14.5 L28.1,14.5 L27.1,14.5 L25.9,14.5 L24.6,14.5 L18.8,14.5 C19,14.7 19.2,15 19.3,15.4 C19.4,15.8 19.5,16.2 19.5,16.5 C19.5,17.4 19.1,18.2 18.4,18.9 C18.6,19.3 18.8,19.8 18.8,20.3 C18.8,20.8 18.7,21.3 18.5,21.8 C18.3,22.3 18,22.6 17.6,22.8 C17.7,23.2 17.7,23.6 17.7,23.9 C17.7,26.1 16.4,27.2 13.9,27.2 C12.8,27.2 11.6,27 10.3,26.6 C9,26.2 7.7,25.8 6.5,25.3 C5.2,24.9 4.1,24.7 3.2,24.7 L3,24.7 L2.6,24.7 L0,24.7 L0,27.2 L3,27.2 C3.8,27.2 5.3,27.6 7.4,28.4 C9.9,29.3 12,29.8 13.8,29.8 C15.7,29.8 17.2,29.3 18.3,28.2 C19.4,27.1 20,25.7 20,23.8 C20.8,22.8 21.2,21.6 21.2,20.3 C21.2,20 21.2,19.7 21.1,19.4 C21.5,18.6 21.8,17.9 21.8,17 L28.5,17 C31,17 33,14.9 33,12.4 C33.1,10 31.1,8 28.5,7.9 L28.5,7.9 Z" id="hand_1_"></path>
                </g>
            </g>
        </g>
    </g>
</svg>