<?xml version="1.0" encoding="utf-8"?>
<!-- Generator: Adobe Illustrator 18.0.0, SVG Export Plug-In . SVG Version: 6.00 Build 0)  -->
<!DOCTYPE svg PUBLIC "-//W3C//DTD SVG 1.1//EN" "http://www.w3.org/Graphics/SVG/1.1/DTD/svg11.dtd">
<svg version="1.1" id="open" xmlns="http://www.w3.org/2000/svg" xmlns:xlink="http://www.w3.org/1999/xlink" x="0px" y="0px"
	 viewBox="0 0 50 50" enable-background="new 0 0 50 50" xml:space="preserve">
<g id="diabetes">
	<g id="icon_5_">
		<path id="blood" fill="#231F20" d="M41.1,32.6c0,1-0.4,1.9-1.1,2.6c-0.7,0.7-1.6,1.1-2.6,1.1s-1.9-0.4-2.6-1.1
			c-0.7-0.7-1.1-1.6-1.1-2.6c0-0.7,0.2-1.3,0.6-1.9c0,0,0.2-0.3,0.4-0.6c0.3-0.4,0.5-0.7,0.7-1.1c0.2-0.3,0.4-0.7,0.7-1.3
			c0.3-0.5,0.5-1,0.6-1.4c0-0.1,0.1-0.3,0.2-0.3c0.1-0.1,0.2-0.1,0.4-0.1c0.1,0,0.2,0,0.4,0.1c0.1,0.1,0.2,0.2,0.2,0.3
			c0.1,0.4,0.3,0.9,0.6,1.4c0.3,0.5,0.5,0.9,0.7,1.3c0.2,0.3,0.4,0.7,0.7,1.1c0.3,0.4,0.4,0.6,0.4,0.6
			C40.9,31.2,41.1,31.9,41.1,32.6z"/>
		<path id="hand_1_" fill="#231F20" d="M37.5,14.9c-0.1,0-10.7,0-10.7,0c0.3-0.8,0.4-1.6,0.4-2.5c0-1.6-0.5-2.9-1.6-3.8
			c-1.1-0.9-2.4-1.3-4.1-1.3c-0.5,0-1,0.1-1.4,0.3c-0.4,0.2-0.8,0.6-1.1,1c-0.3,0.4-0.6,0.8-0.8,1.3c-0.2,0.4-0.5,0.9-0.7,1.4
			c-0.3,0.5-0.5,1-0.7,1.2c-0.5,0.7-1.1,1.6-2,2.6c0,0-0.1,0.2-0.3,0.3c-0.2,0.2-0.3,0.3-0.4,0.4c-0.1,0.1-0.2,0.2-0.4,0.4
			c-0.2,0.2-0.3,0.3-0.5,0.4c-0.1,0.1-0.3,0.2-0.4,0.4c-0.2,0.1-0.3,0.2-0.5,0.3c-0.2,0.1-0.3,0.1-0.4,0.1H9V20h2.4h0.4H12
			c0.9,0,1.9-0.4,2.8-1.1c0.4-0.3,1.1-1,2-2.1c1-1.1,1.7-2,2.2-2.9c0.2-0.3,0.4-0.7,0.7-1.3c0.9-1.8,1.5-2.8,1.8-2.8
			c0.9,0,1.7,0.2,2.3,0.6c0.6,0.4,0.9,1.1,0.9,1.9c0,0.6-0.1,1.1-0.3,1.7c-0.2,0.6-0.4,1-0.7,1.4c-0.2,0.4-0.5,0.7-0.7,1.1
			c-0.2,0.4-0.3,0.7-0.3,1c0,0,6.3,0,10.7,0c0.2,0,0.4,0,0.6,0c0.6,0,1.1,0,1.6,0c0.2,0,0.4,0,0.6,0c0.2,0,0.3,0,0.5,0
			c0.1,0,0.3,0,0.4,0c0.1,0,0.2,0,0.3,0c0.1,0,0.2,0,0.2,0c1.1,0,2,0.9,2,2c0,1.1-0.9,2-2,2c0,0-0.1,0-0.2,0c0,0-0.1,0-0.1,0
			c0,0-0.1,0-0.1,0c0,0-0.1,0-0.1,0c-0.2,0-0.6,0-1,0c-0.4,0-0.8,0-1.2,0c-0.4,0-0.9,0-1.3,0c-2.7,0-5.8,0-5.8,0
			c0.2,0.2,0.4,0.5,0.5,0.9c0.1,0.4,0.2,0.8,0.2,1.1c0,0.9-0.4,1.7-1.1,2.4c0.2,0.4,0.4,0.9,0.4,1.4c0,0.5-0.1,1-0.3,1.5
			c-0.2,0.5-0.5,0.8-0.9,1c0.1,0.4,0.1,0.8,0.1,1.1c0,2.2-1.3,3.3-3.8,3.3c-1.1,0-2.3-0.2-3.6-0.6c-1.3-0.4-2.6-0.8-3.8-1.3
			c-1.3-0.4-2.4-0.6-3.3-0.6h-0.2h-0.4H9v2.5h3c0.8,0,2.3,0.4,4.4,1.2c2.5,0.9,4.6,1.4,6.4,1.4c1.9,0,3.4-0.5,4.5-1.6
			c1.1-1.1,1.7-2.5,1.7-4.4c0.8-1,1.2-2.2,1.2-3.5c0-0.3,0-0.6-0.1-0.9c0.4-0.8,0.7-1.5,0.7-2.4c0,0,6.6,0,6.7,0
			c2.5,0,4.5-2.1,4.5-4.6C42.1,17,40.1,15,37.5,14.9z"/>
	</g>
</g>
<g id="teardrop">
</g>
</svg>
