<?xml version="1.0" encoding="utf-8"?>
<!-- Generator: Adobe Illustrator 15.0.2, SVG Export Plug-In . SVG Version: 6.00 Build 0)  -->
<!DOCTYPE svg PUBLIC "-//W3C//DTD SVG 1.1//EN" "http://www.w3.org/Graphics/SVG/1.1/DTD/svg11.dtd">
<svg version="1.1" id="diabetes-icon" xmlns="http://www.w3.org/2000/svg" xmlns:xlink="http://www.w3.org/1999/xlink" x="0px"
	 y="0px" width="612px" height="612px" viewBox="180 0 612 612" enable-background="new 180 0 612 612" xml:space="preserve">
<path d="M486,0C316.972,0,180,136.972,180,306c0,169.028,136.972,306,306,306c169.028,0,306-136.972,306-306V0H486z
	 M659.848,479.848c-46.437,46.437-108.177,72.01-173.848,72.01s-127.411-25.573-173.847-72.01
	c-46.436-46.437-72.01-108.177-72.01-173.848s25.574-127.411,72.01-173.847C358.589,85.717,420.329,60.143,486,60.143
	s127.411,25.574,173.848,72.01c46.437,46.437,72.01,108.177,72.01,173.847C731.857,371.671,706.284,433.411,659.848,479.848z"/>
<path d="M486,83.143c-122.884,0-222.857,99.973-222.857,222.857S363.116,528.857,486,528.857S708.857,428.884,708.857,306
	S608.884,83.143,486,83.143z M485.755,409.214c-41.042,0-74.312-34.971-74.312-77.957c0-14.085,7.771-32.542,18.214-51.485
	c16.028-28.9,38.129-58.286,49.3-73.343c3.401-4.614,10.444-4.614,13.843,0c18.457,25.014,67.516,89.614,67.516,124.585
	C560.314,374.243,526.797,409.214,485.755,409.214z"/>
</svg>
