<?xml version="1.0" encoding="UTF-8" standalone="no"?>
<svg width="48px" height="48px" viewBox="0 0 48 48" version="1.1" xmlns="http://www.w3.org/2000/svg" xmlns:xlink="http://www.w3.org/1999/xlink" xmlns:sketch="http://www.bohemiancoding.com/sketch/ns">
    <!-- Generator: Sketch 3.0.4 (8053) - http://www.bohemiancoding.com/sketch -->
    <title>elsevier-author</title>
    <desc>Created with Sketch.</desc>
    <defs></defs>
    <g id="Page-1" stroke="none" stroke-width="1" fill="none" fill-rule="evenodd" sketch:type="MSPage">
        <g id="elsevier-author" sketch:type="MSArtboardGroup" fill="#262626">
            <path d="M7.68708487,41.0169742 C9.68857089,40.804427 10.9859749,40.445759 11.5793358,39.9409594 C12.1726967,39.4361598 12.4693727,38.1564678 12.4693727,36.101845 L12.4693727,11.898155 C12.4693727,9.96751802 12.1771247,8.70553802 11.5926199,8.11217712 C11.0081152,7.51881622 9.70628316,7.15129222 7.68708487,7.0095941 L7.68708487,6 L36.5933579,6 L36.7793358,13.8110701 L35.397786,13.8110701 C34.9372671,11.402202 34.2464991,9.84354598 33.3254613,9.13505535 C32.4044234,8.42656472 30.3498314,8.07232472 27.1616236,8.07232472 L19.7756458,8.07232472 C18.9785938,8.07232472 18.4870858,8.20073672 18.301107,8.45756458 C18.1151282,8.71439243 18.0221402,9.19704443 18.0221402,9.90553506 L18.0221402,22.0472325 L26.3911439,22.0472325 C28.7114507,22.0472325 30.1904027,21.7018485 30.8280443,21.0110701 C31.4656858,20.3202917 31.9793338,18.9210437 32.3690037,16.8132841 L33.6442804,16.8132841 L33.6442804,29.4066421 L32.3690037,29.4066421 C31.9616216,27.2988825 31.4391176,25.9040625 30.801476,25.2221402 C30.1638345,24.540218 28.6937385,24.199262 26.3911439,24.199262 L18.0221402,24.199262 L18.0221402,37.6693727 C18.0221402,38.7498209 18.3630962,39.3874529 19.0450185,39.5822878 C19.7269407,39.7771227 21.7682487,39.8745387 25.1690037,39.8745387 C28.853155,39.8745387 31.571947,39.4715907 33.3254613,38.6656827 C35.0789756,37.8597746 36.6553436,35.9070266 38.0546125,32.8073801 L39.5690037,32.8073801 L37.098155,42 L7.68708487,42 L7.68708487,41.0169742 Z" id="E" sketch:type="MSShapeGroup"></path>
        </g>
    </g>
</svg>