<?xml version="1.0" encoding="iso-8859-1"?>
<!-- Generator: Adobe Illustrator 15.0.2, SVG Export Plug-In . SVG Version: 6.00 Build 0)  -->
<!DOCTYPE svg PUBLIC "-//W3C//DTD SVG 1.1//EN" "http://www.w3.org/Graphics/SVG/1.1/DTD/svg11.dtd">
<svg version="1.1" id="Layer_1" xmlns="http://www.w3.org/2000/svg" xmlns:xlink="http://www.w3.org/1999/xlink" x="0px" y="0px"
	 width="47.518px" height="47.517px" viewBox="0 0 47.518 47.517" style="enable-background:new 0 0 47.518 47.517;"
	 xml:space="preserve">
<g>
	<path style="fill:#B7B7B7;" d="M19.164,22.379c0.289,0,0.533-0.101,0.736-0.303c0.203-0.203,0.303-0.448,0.303-0.737
		c0-1.243,0.441-2.305,1.323-3.187c0.881-0.881,1.943-1.323,3.187-1.323c0.289,0,0.534-0.101,0.737-0.303
		c0.202-0.203,0.303-0.448,0.303-0.737s-0.101-0.535-0.303-0.737c-0.203-0.203-0.448-0.304-0.737-0.304
		c-1.807,0-3.356,0.647-4.65,1.94c-1.293,1.293-1.94,2.843-1.94,4.65c0,0.289,0.103,0.535,0.304,0.737
		C18.629,22.278,18.874,22.379,19.164,22.379z"/>
	<path style="fill:#B7B7B7;" d="M33.102,16.461c0.882,1.503,1.322,3.129,1.322,4.877c0,2.674-0.95,4.96-2.85,6.861
		c-1.9,1.9-4.188,2.851-6.861,2.851s-4.961-0.95-6.861-2.851s-2.851-4.187-2.851-6.861c0-1.749,0.44-3.375,1.322-4.877
		c-3.31,1.691-6.062,4.241-8.259,7.652c1.922,2.963,4.332,5.322,7.229,7.078s6.037,2.634,9.419,2.634s6.521-0.878,9.419-2.634
		s5.308-4.115,7.229-7.078C39.164,20.702,36.411,18.152,33.102,16.461z"/>
	<path style="fill:#B7B7B7;" d="M23.76,0C10.639,0,0,10.636,0,23.758c0,13.121,10.639,23.759,23.76,23.759
		c13.123,0,23.758-10.638,23.758-23.759V0H23.76z M43.702,25.608c-2.023,3.324-4.743,5.987-8.161,7.988
		c-3.419,2.002-7.027,3.002-10.828,3.002s-7.411-1.004-10.828-3.013c-3.418-2.009-6.138-4.667-8.161-7.978
		c-0.289-0.505-0.434-1.004-0.434-1.496c0-0.491,0.145-0.99,0.434-1.496c2.023-3.309,4.743-5.969,8.161-7.977
		c3.417-2.009,7.027-3.014,10.828-3.014s7.409,1.005,10.828,3.014c3.418,2.008,6.138,4.668,8.161,7.977
		c0.289,0.506,0.433,1.004,0.433,1.496C44.135,24.604,43.991,25.103,43.702,25.608z"/>
</g>
</svg>
