<?xml version="1.0" encoding="UTF-8" standalone="no"?>
<svg width="48px" height="48px" viewBox="0 0 48 48" version="1.1" xmlns="http://www.w3.org/2000/svg" xmlns:xlink="http://www.w3.org/1999/xlink" xmlns:sketch="http://www.bohemiancoding.com/sketch/ns">
    <!-- Generator: Sketch 3.0.3 (7891) - http://www.bohemiancoding.com/sketch -->
    <title>eyecare</title>
    <desc>Created with Sketch.</desc>
    <defs></defs>
    <g id="Page-1" stroke="none" stroke-width="1" fill="none" fill-rule="evenodd" sketch:type="MSPage">
        <g id="eyecare" sketch:type="MSArtboardGroup" fill="#231F20">
            <g sketch:type="MSLayerGroup" transform="translate(4.000000, 11.000000)" id="eye">
                <path d="M40.4,13.4 C40.4,13.9 40.2,14.4 39.9,15 C37.8,18.5 34.9,21.3 31.3,23.4 C27.7,25.5 23.9,26.6 19.9,26.6 C15.9,26.6 12.1,25.5 8.5,23.4 C5,21.2 2.2,18.4 0,14.9 C-0.3,14.4 -0.5,13.8 -0.5,13.3 C-0.5,12.8 -0.3,12.3 0,11.7 C2.1,8.2 5,5.4 8.6,3.3 C12.2,1.2 16,0.1 20,0.1 C24,0.1 27.8,1.2 31.4,3.3 C35,5.4 37.9,8.2 40,11.7 C40.3,12.3 40.4,12.9 40.4,13.4 L40.4,13.4 Z M37.5,13.4 C35.2,9.8 32.3,7.1 28.8,5.3 C29.7,6.9 30.2,8.6 30.2,10.4 C30.2,13.2 29.2,15.6 27.2,17.6 C25.2,19.6 22.8,20.6 20,20.6 C17.2,20.6 14.8,19.6 12.8,17.6 C10.8,15.6 9.8,13.2 9.8,10.4 C9.8,8.6 10.3,6.8 11.2,5.3 C7.7,7.1 4.8,9.8 2.5,13.4 C4.5,16.5 7.1,19 10.1,20.8 C13.1,22.6 16.5,23.6 20,23.6 C23.5,23.6 26.9,22.7 29.9,20.8 C33,19 35.5,16.5 37.5,13.4 L37.5,13.4 Z M20.8,5.4 C21,5.2 21.1,4.9 21.1,4.6 C21.1,4.3 21,4 20.8,3.8 C20.6,3.6 20.3,3.5 20,3.5 C18.1,3.5 16.5,4.2 15.1,5.5 C13.7,6.9 13.1,8.5 13.1,10.4 C13.1,10.7 13.2,11 13.4,11.2 C13.6,11.4 13.9,11.5 14.2,11.5 C14.5,11.5 14.8,11.4 15,11.2 C15.2,11 15.3,10.7 15.3,10.4 C15.3,9.1 15.8,8 16.7,7 C17.6,6 18.7,5.6 20.1,5.6 C20.3,5.7 20.6,5.6 20.8,5.4 L20.8,5.4 Z" sketch:type="MSShapeGroup"></path>
            </g>
        </g>
    </g>
</svg>