<?xml version="1.0" encoding="utf-8"?>
<!-- Generator: Adobe Illustrator 18.0.0, SVG Export Plug-In . SVG Version: 6.00 Build 0)  -->
<!DOCTYPE svg PUBLIC "-//W3C//DTD SVG 1.1//EN" "http://www.w3.org/Graphics/SVG/1.1/DTD/svg11.dtd">
<svg version="1.1" xmlns="http://www.w3.org/2000/svg" xmlns:xlink="http://www.w3.org/1999/xlink" x="0px" y="0px"
	 viewBox="0 0 50 50" enable-background="new 0 0 50 50" xml:space="preserve">
<g id="open">
	<g id="eyecare">
		<g id="icon_6_">
			<path id="eye" fill="#231F20" d="M46.4,25.4c0,0.5-0.2,1-0.5,1.6c-2.1,3.5-5,6.3-8.6,8.4c-3.6,2.1-7.4,3.2-11.4,3.2
				c-4,0-7.8-1.1-11.4-3.2C11,33.2,8.2,30.4,6,26.9c-0.3-0.5-0.5-1.1-0.5-1.6c0-0.5,0.2-1,0.5-1.6c2.1-3.5,5-6.3,8.6-8.4
				c3.6-2.1,7.4-3.2,11.4-3.2c4,0,7.8,1.1,11.4,3.2c3.6,2.1,6.5,4.9,8.6,8.4C46.3,24.3,46.4,24.9,46.4,25.4z M43.5,25.4
				c-2.3-3.6-5.2-6.3-8.7-8.1c0.9,1.6,1.4,3.3,1.4,5.1c0,2.8-1,5.2-3,7.2c-2,2-4.4,3-7.2,3c-2.8,0-5.2-1-7.2-3c-2-2-3-4.4-3-7.2
				c0-1.8,0.5-3.6,1.4-5.1c-3.5,1.8-6.4,4.5-8.7,8.1c2,3.1,4.6,5.6,7.6,7.4c3,1.8,6.4,2.8,9.9,2.8c3.6,0,6.9-0.9,9.9-2.8
				C39,31,41.5,28.5,43.5,25.4z M26.8,17.4c0.2-0.2,0.3-0.5,0.3-0.8c0-0.3-0.1-0.6-0.3-0.8c-0.2-0.2-0.5-0.3-0.8-0.3
				c-1.9,0-3.5,0.7-4.9,2c-1.4,1.4-2,3-2,4.9c0,0.3,0.1,0.6,0.3,0.8c0.2,0.2,0.5,0.3,0.8,0.3c0.3,0,0.6-0.1,0.8-0.3
				c0.2-0.2,0.3-0.5,0.3-0.8c0-1.3,0.5-2.4,1.4-3.4s2-1.4,3.4-1.4C26.3,17.7,26.6,17.6,26.8,17.4z"/>
		</g>
	</g>
</g>
<g id="teardrop">
</g>
</svg>
