<?xml version="1.0" encoding="utf-8"?>
<!-- Generator: Adobe Illustrator 15.0.2, SVG Export Plug-In . SVG Version: 6.00 Build 0)  -->
<!DOCTYPE svg PUBLIC "-//W3C//DTD SVG 1.1//EN" "http://www.w3.org/Graphics/SVG/1.1/DTD/svg11.dtd">
<svg version="1.1" id="gastroenterology-icon" xmlns="http://www.w3.org/2000/svg" xmlns:xlink="http://www.w3.org/1999/xlink"
	 x="0px" y="0px" width="612px" height="612px" viewBox="180 0 612 612" enable-background="new 180 0 612 612"
	 xml:space="preserve">
<path d="M486,0C316.972,0,180,136.972,180,306c0,169.028,136.972,306,306,306c169.028,0,306-136.972,306-306V0H486z M503.243,86.7
	H547.2c0,17.049-3.628,40.546,1.168,59.085c-14.506-2.46-30.406-3.173-45.338-3.639C501.605,123.85,503.243,104.7,503.243,86.7z
	 M283.943,348.744c-13.357,0-22.1-7.287-22.1-30.603c2.429-70.914,7.285-161.499,93.014-173.885c5.1-0.972,9.958-0.972,16.029-0.972
	c35.457,0,77.229,12.143,110.257,18.457c16.029,2.429,91.803-1.214,96.657,22.1c3.645,17.243-64.843,68.486-78.441,75.772
	c-16.03,8.5-30.603,8.5-47.845,8.5s-20.886,2.429-34.242,13.357c-29.387,23.314-62.415,41.529-96.658,56.343
	C307.257,343.887,294.872,348.744,283.943,348.744z M688.058,387.843c-50.271,57.559-149.355,109.043-206.915,51.485
	c-23.313-21.856-65.085-78.199-77.229-41.528c-8.5,25.743-2.429,56.343-2.429,82.086h0.241v1.214H352.67
	c0-34.31-6.655-114.927,24.721-146.929c6.79-3.797,13.364-7.688,19.727-11.677c5.019-1.376,10.574-1.991,16.753-1.679
	c45.172,2.428,75.771,58.526,124.829,14.569c28.941-25.928,30.465-59.807,18.98-89.967c0.147-0.125,0.298-0.251,0.444-0.375
	c33.014-28.157,43.947-46.61,40.322-64.814c23.164-0.788,47.265-12.388,72.367-5.372
	C754.115,196.957,728.371,341.214,688.058,387.843z"/>
</svg>
