<?xml version="1.0" encoding="UTF-8" standalone="no"?>
<svg width="48px" height="48px" viewBox="0 0 48 48" version="1.1" xmlns="http://www.w3.org/2000/svg" xmlns:xlink="http://www.w3.org/1999/xlink" xmlns:sketch="http://www.bohemiancoding.com/sketch/ns">
    <!-- Generator: Sketch 3.0.3 (7891) - http://www.bohemiancoding.com/sketch -->
    <title>gastroenterology</title>
    <desc>Created with Sketch.</desc>
    <defs></defs>
    <g id="Page-1" stroke="none" stroke-width="1" fill="none" fill-rule="evenodd" sketch:type="MSPage">
        <g id="gastroenterology" sketch:type="MSArtboardGroup" fill="#231F20">
            <g sketch:type="MSLayerGroup" transform="translate(6.000000, 8.000000)" id="icon">
                <g sketch:type="MSShapeGroup">
                    <path d="M15.2,14.9 C16.6,14.9 17.9,14.8 19.1,14.2 C20.3,13.6 25.9,9.4 25.5,8 C25.1,6.2 18.9,6.5 17.6,6.2 C14.9,5.7 11.6,4.7 8.6,4.7 C8.1,4.7 7.6,4.7 7.2,4.8 C0.3,5.8 -0.2,12.9 -0.4,18.6 L-0.4,18.4 L-0.4,19.1 C-0.4,20.9 0.4,21.5 1.4,21.5 C2.3,21.5 3.4,21.1 4.4,20.6 C7.2,19.4 9.9,17.9 12.3,16 C13.5,15.1 13.8,14.9 15.2,14.9 L15.2,14.9 Z" id="liver"></path>
                    <path d="M23,0.1 L19.4,0.1 C19.4,1.5 19.3,3 19.4,4.5 C20.6,4.6 21.9,4.6 23,4.8 C22.7,3.2 23,1.4 23,0.1 L23,0.1 Z" id="esophagus"></path>
                    <path d="M33,7.4 C31,6.9 29.2,7.7 27.4,7.8 C27.6,9.2 26.6,10.7 24.1,12.8 C24,12.9 24,13 23.9,13.1 C24.8,15.6 24.7,18.3 22.4,20.4 C18.4,24 15.9,19.4 12.2,19.2 C11.8,19.2 11.4,19.2 11,19.3 C10.4,19.7 9.7,20.1 9.1,20.4 C6.7,23.1 7.3,29.5 7.3,32.2 L11.2,32.2 C11.2,30.1 10.7,27.6 11.4,25.5 C12.4,22.5 15.8,27.1 17.7,28.9 C22.4,33.6 30.5,29.4 34.6,24.7 C37.8,21 39.9,9.2 33,7.4 L33,7.4 Z" id="stomach"></path>
                </g>
            </g>
        </g>
    </g>
</svg>