<?xml version="1.0" encoding="utf-8"?>
<!-- Generator: Adobe Illustrator 18.0.0, SVG Export Plug-In . SVG Version: 6.00 Build 0)  -->
<!DOCTYPE svg PUBLIC "-//W3C//DTD SVG 1.1//EN" "http://www.w3.org/Graphics/SVG/1.1/DTD/svg11.dtd">
<svg version="1.1" xmlns="http://www.w3.org/2000/svg" xmlns:xlink="http://www.w3.org/1999/xlink" x="0px" y="0px"
	 viewBox="0 0 50 50" enable-background="new 0 0 50 50" xml:space="preserve">
<symbol  id="teardrop_2_" viewBox="0 -50 50 50">
	<path id="teardrop_1_" fill="#231F20" d="M25,0C11.2,0,0-11.2,0-25c0-13.8,11.2-25,25-25c13.8,0,25,11.2,25,25V0H25z"/>
	<polygon display="none" fill="none" points="0,0 50,0 50,-50 0,-50 	"/>
</symbol>
<g id="open">
</g>
<g id="teardrop">
	<g id="gastroenterology_1_">
		<use xlink:href="#teardrop_2_"  width="50" height="50" y="-50" transform="matrix(1 0 0 -1 0 0)" overflow="visible"/>
		<g id="icon_12_">
			<path id="liver_1_" fill="#FFFFFF" d="M22.2,21.9c1.4,0,2.7-0.1,3.9-0.7c1.2-0.6,6.8-4.8,6.4-6.2c-0.4-1.8-6.6-1.5-7.9-1.8
				c-2.7-0.5-6-1.5-9-1.5c-0.5,0-1,0-1.4,0.1c-6.9,1-7.4,8.1-7.6,13.8c0-0.1,0-0.2,0-0.2c0,0,0,0.7,0,0.7c0,1.8,0.8,2.4,1.8,2.4
				c0.9,0,2-0.4,3-0.9c2.8-1.2,5.5-2.7,7.9-4.6C20.5,22.1,20.8,21.9,22.2,21.9z"/>
			<path id="esophagus_1_" fill="#FFFFFF" d="M30,7.1h-3.6c0,1.4-0.1,2.9,0,4.4c1.2,0.1,2.5,0.1,3.6,0.3C29.7,10.2,30,8.4,30,7.1z"
				/>
			<path id="stomach_1_" fill="#FFFFFF" d="M40,14.4c-2-0.5-3.8,0.3-5.6,0.4c0.2,1.4-0.8,2.9-3.3,5C31,19.9,31,20,30.9,20.1
				c0.9,2.5,0.8,5.2-1.5,7.3c-4,3.6-6.5-1-10.2-1.2c-0.4,0-0.8,0-1.2,0.1c-0.6,0.4-1.3,0.8-1.9,1.1c-2.4,2.7-1.8,9.1-1.8,11.8h3.9
				c0-2.1-0.5-4.6,0.2-6.7c1-3,4.4,1.6,6.3,3.4c4.7,4.7,12.8,0.5,16.9-4.2C44.8,28,46.9,16.2,40,14.4z"/>
		</g>
	</g>
</g>
</svg>
