<?xml version="1.0" encoding="UTF-8" standalone="no"?>
<svg width="48px" height="48px" viewBox="0 0 48 48" version="1.1" xmlns="http://www.w3.org/2000/svg" xmlns:xlink="http://www.w3.org/1999/xlink" xmlns:sketch="http://www.bohemiancoding.com/sketch/ns">
    <!-- Generator: Sketch 3.0.3 (7891) - http://www.bohemiancoding.com/sketch -->
    <title>neurology</title>
    <desc>Created with Sketch.</desc>
    <defs></defs>
    <g id="Page-1" stroke="none" stroke-width="1" fill="none" fill-rule="evenodd" sketch:type="MSPage">
        <g id="neurology" sketch:type="MSArtboardGroup" fill="#231F20">
            <g sketch:type="MSLayerGroup" transform="translate(5.000000, 8.000000)" id="brain">
                <path d="M25.9,2.1 C26.4,2 26.9,2 27.5,2 C29.1,2 30.5,2.6 31.7,3.8 C32.2,4.3 32.6,4.8 32.9,5.4 C33,5.6 33.1,5.7 33.3,5.8 C33.8,6 34.2,6.2 34.7,6.5 C35,6.7 35.3,7 35.6,7.2 C36.6,8.2 37.2,9.3 37.4,10.7 C37.5,11.6 37.5,12.4 37.3,13.3 C39.3,16.1 38.8,19.3 36.9,21.4 C36.8,21.9 36.7,22.5 36.5,23 C36.3,23.7 35.9,24.3 35.5,24.8 C34.9,25.5 34.2,26.1 33.3,26.5 C32.7,26.8 32.2,27.2 31.7,27.6 C31.1,28.1 30.6,28.7 30.2,29.3 C29.6,30.1 29.2,31 28.9,32 C28.8,32.4 28.7,32.9 28.6,33.4 C28.6,33.5 28.6,33.6 28.4,33.7 L26.3,33.7 C26.2,33.6 26.2,33.5 26.2,33.4 L26.2,27 C26.2,26.2 26.3,25.5 26.5,24.7 C26.7,23.7 27.3,23 28.1,22.4 C28.6,22 29.3,21.7 29.7,21.2 C30,21.2 30.2,21.4 30.5,21.5 C31.2,21.9 31.8,22.5 32.2,23.2 C32.4,23.5 32.6,23.7 33,23.7 C33.5,23.5 33.7,23.3 33.7,22.9 C33.7,22.8 33.6,22.7 33.6,22.5 C33.1,21.7 32.5,21.1 31.8,20.5 C31.5,20.3 31.2,20.1 30.8,19.9 C31.2,19.1 31.5,18.3 31.6,17.5 C31.7,16.6 31.7,15.8 31.4,14.9 C32.1,14.6 32.8,14.5 33.4,14.1 C34,13.7 34.5,13.3 35,12.7 C35.1,12.5 35,12.3 35,12.1 C34.6,11.5 34.2,11.5 33.7,12 C33,12.7 32.3,13.1 31.4,13.3 C31.2,13.3 31,13.4 30.8,13.3 C30.3,12.5 29.6,11.7 28.8,11.2 C28,10.7 27.1,10.3 26,10.2 C26.2,9.1 26.5,8.3 27.2,7.5 C27.3,7.4 27.3,7.4 27.4,7.3 C27.7,7 27.6,6.6 27.4,6.3 C27.1,6.1 26.7,6.1 26.4,6.3 C26.1,6.6 25.9,6.9 25.6,7.2 C25.1,7.9 24.8,8.8 24.6,9.7 C24.6,9.8 24.6,9.9 24.5,10 C24.1,10 23.8,9.9 23.4,9.7 C22.3,9.2 21.4,8.5 20.9,7.3 C20.6,6.7 20.4,6.2 20.4,5.6 C20.4,5.4 20.4,5.3 20.3,5.1 C20.2,4.7 19.9,4.4 19.5,4.4 C19.1,4.4 18.8,4.8 18.9,5.2 C18.9,5.5 18.9,5.9 19,6.2 C18.6,6.6 18.1,6.9 17.6,7.1 C16.1,7.7 14.6,7.5 13.2,6.7 C12.9,6.5 12.6,6.2 12.3,6 C12.2,5.9 12,5.8 11.9,5.8 C11.7,5.8 11.6,5.9 11.4,6 C11.1,6.3 11,6.7 11.3,7 C11.5,7.2 11.6,7.4 11.9,7.5 C12.3,7.8 12.7,8.1 13.1,8.3 C13.3,9.3 12.1,11.5 10.8,12 C9.9,10.7 8.7,9.9 7.3,9.5 C6.9,9.6 6.9,9.6 6.6,9.9 C6.5,10.5 6.6,10.7 7.2,10.9 C8,11.2 8.8,11.7 9.4,12.4 C9.4,12.4 9.5,12.5 9.5,12.6 C9.3,12.7 9,12.8 8.8,12.8 C8.2,12.8 7.6,12.9 7,13 C5.9,13.2 5,13.7 4.2,14.4 C4.1,14.5 4.1,14.5 4,14.6 C3.5,15 3.6,15.6 4.2,15.9 C4.3,15.9 4.3,15.9 4.4,16 C4.7,16 4.9,15.8 5.1,15.6 C5.8,14.9 6.7,14.5 7.7,14.4 C8.4,14.3 9.2,14.4 9.9,14.2 C11.1,13.9 12.2,13.3 13.1,12.4 C14,11.5 14.6,10.4 14.8,9.1 C14.8,9.1 14.8,9 14.9,9 C16.7,9.4 18.3,8.9 19.8,8 C20.3,8.8 20.8,9.6 21.5,10.2 C20.8,11.1 20.3,12.2 20.2,13.3 C19.9,13.4 19.7,13.4 19.5,13.4 C18.4,13.3 17.4,13.6 16.4,14.1 C16.4,14.1 16.3,14.1 16.2,14.2 C15.9,14.4 15.7,14.7 15.9,15.1 C16,15.4 16.4,15.6 16.7,15.5 C16.9,15.4 17.2,15.3 17.4,15.2 C18.3,14.8 19.2,14.7 20.1,14.9 C20.2,15.1 20.2,15.4 20.3,15.7 C20.6,16.7 21.1,17.6 21.7,18.4 C21.9,18.6 22.1,18.7 22.3,18.8 C22.7,18.8 23,18.5 23.1,18.1 C23.1,17.8 22.9,17.6 22.7,17.4 C22.1,16.8 21.8,16 21.6,15.2 C21.3,13.9 21.6,12.6 22.3,11.5 C22.4,11.3 22.5,11.2 22.7,11.1 C23.1,11.2 23.4,11.4 23.8,11.5 C24.3,11.6 24.8,11.7 25.4,11.7 C26.4,11.7 27.3,11.9 28.1,12.5 C28.5,12.8 28.9,13.1 29.3,13.5 C29.9,14.2 30.2,14.9 30.4,15.7 C30.5,16 30.4,16.2 30.5,16.5 C30.4,16.6 30.2,16.5 30.1,16.5 C29,16.3 27.8,16.4 26.8,16.8 C26.7,16.9 26.5,16.9 26.4,17 C26.1,17.3 26.1,17.5 26.3,17.9 C26.5,18.2 26.7,18.3 27.1,18.2 C27.5,18.1 27.9,17.9 28.3,17.9 C28.9,17.8 29.5,17.8 30.1,18 C30.2,18 30.2,18.1 30.3,18.1 C30.2,18.6 30,19.1 29.7,19.5 C29.2,20.2 28.5,20.7 27.8,21.1 C26.5,21.9 25.7,23 25.3,24.5 C25,25.4 25,26.3 25,27.2 L25,33.3 L25,33.8 L23.2,33.8 C23.1,33.8 23,33.8 22.9,33.7 C22.8,33.6 22.9,33.4 22.9,33.2 L22.9,27.1 C22.9,26.1 22.7,25.2 22.2,24.4 C21.5,22.9 20.4,21.9 18.8,21.2 C18.2,20.9 17.6,20.5 17.1,20.1 C17,20 16.9,19.8 16.6,19.7 C14.3,21.1 11.9,21.1 9.6,19.7 C9.5,19.7 9.4,19.7 9.3,19.8 C8.5,20.3 7.6,20.5 6.7,20.7 C5.4,20.9 4.3,20.6 3.1,20.1 C1.9,19.5 1,18.6 0.4,17.4 C-4.57966998e-14,16.6 -0.2,15.8 -0.3,14.9 C-0.4,13.8 -0.2,12.7 0.3,11.7 C0.7,10.7 1.4,10 2.2,9.3 C2.5,9.1 2.8,8.8 3.2,8.7 C3.4,8.6 3.6,8.5 3.6,8.2 C3.7,7.8 3.8,7.4 4,7.1 C4.1,6.8 4.3,6.5 4.5,6.3 C4.7,6.1 4.8,5.8 5.1,5.6 C6.1,4.6 7.3,4 8.6,3.7 C8.9,3.6 9.2,3.7 9.6,3.7 L10.1,3.7 C11.9,0.8 15.4,0.1 18.2,1.5 C20.9,-0.1 23.5,0.2 25.9,2.1 Z" sketch:type="MSShapeGroup"></path>
            </g>
        </g>
    </g>
</svg>