<?xml version="1.0" encoding="utf-8"?>
<!-- Generator: Adobe Illustrator 15.0.2, SVG Export Plug-In . SVG Version: 6.00 Build 0)  -->
<!DOCTYPE svg PUBLIC "-//W3C//DTD SVG 1.1//EN" "http://www.w3.org/Graphics/SVG/1.1/DTD/svg11.dtd">
<svg version="1.1" id="neurology-icon" xmlns="http://www.w3.org/2000/svg" xmlns:xlink="http://www.w3.org/1999/xlink" x="0px"
	 y="0px" width="612px" height="612px" viewBox="90 0 612 612" enable-background="new 90 0 612 612" xml:space="preserve">
<path d="M396,0C227.088,0,90,137.088,90,306s137.088,306,306,306s306-137.088,306-306V0H396z M615.096,359.857
	c-1.224,6.117-2.446,13.464-4.896,19.584c-2.448,8.565-7.345,15.909-12.24,22.029c-7.344,8.568-15.912,15.912-26.928,20.811
	c-7.345,3.672-13.464,8.565-19.584,13.464c-7.345,6.12-13.464,13.464-18.36,20.808c-7.344,9.792-12.24,20.811-15.912,33.048
	c-1.224,4.896-2.446,11.019-3.672,17.139c0,1.224,0,2.445-2.448,3.672c-8.565,0-17.136,0-25.701,0
	c-1.227-1.227-1.227-2.448-1.227-3.672c0-25.704,0-51.408,0-78.336c0-9.792,1.227-18.36,3.672-28.152
	c2.448-12.24,9.792-20.808,19.584-28.152c6.12-4.896,14.688-8.565,19.584-14.688c3.672,0,6.12,2.448,9.792,3.672
	c8.568,4.896,15.912,12.24,20.811,20.808c2.445,3.672,4.896,6.12,9.792,6.12c6.12-2.448,8.565-4.896,8.565-9.792
	c0-1.224-1.224-2.447-1.224-4.896c-6.12-9.792-13.464-17.139-22.032-24.48c-3.672-2.448-7.344-4.896-12.24-7.344
	c4.896-9.792,8.568-19.584,9.792-29.376c1.227-11.016,1.227-20.808-2.445-31.824c8.565-3.672,17.136-4.896,24.479-9.792
	s13.464-9.792,19.584-17.136c1.227-2.448,0-4.896,0-7.344c-4.896-7.344-9.792-7.344-15.912-1.224
	c-8.565,8.568-17.136,13.464-28.149,15.912c-2.448,0-4.896,1.224-7.347,0c-6.117-9.792-14.688-19.584-24.479-25.704
	c-9.792-6.12-20.808-11.016-34.272-12.24c2.448-13.464,6.12-23.256,14.688-33.048c1.224-1.224,1.224-1.224,2.448-2.448
	c3.672-3.672,2.445-8.568,0-12.24c-3.672-2.448-8.568-2.448-12.24,0c-3.672,3.672-6.12,7.344-9.792,11.016
	c-6.12,8.568-9.792,19.584-12.24,30.6c0,1.224,0,2.448-1.224,3.672c-4.896,0-8.568-1.224-13.464-3.672
	c-13.464-6.12-24.48-15.912-30.603-29.376c-3.672-7.344-6.12-13.464-6.12-20.808c0-2.448,0-3.672-1.224-6.12
	c-1.224-4.896-4.896-8.568-9.792-8.568c-4.896,0-8.568,4.896-7.344,9.792c0,3.672,0,8.568,1.224,12.24
	c-4.896,4.896-11.016,8.568-17.136,11.016c-18.36,7.344-36.72,4.896-53.856-4.896c-3.672-2.448-7.344-6.12-11.016-8.568
	c-1.224-1.224-3.672-2.448-4.896-2.448c-2.448,0-3.672,1.224-6.12,2.448c-3.672,3.672-4.896,8.568-1.224,12.24
	c2.448,2.448,3.672,4.896,7.344,6.12c4.896,3.672,9.792,7.344,14.688,9.792c2.448,12.24-12.24,39.168-28.152,45.288
	c-11.016-15.912-25.704-25.704-42.84-30.6c-4.896,1.224-4.896,1.224-8.568,4.896c-1.224,7.344,0,9.792,7.344,12.24
	c9.792,3.672,19.584,9.792,26.928,18.36c0,0,1.224,1.224,1.224,2.448c-2.448,1.224-6.12,2.448-8.568,2.448
	c-7.344,0-14.688,1.224-22.032,2.448c-13.464,2.448-24.48,8.568-34.272,17.136c-1.224,1.224-1.224,1.224-2.448,2.448
	c-6.12,4.896-4.896,12.24,2.448,15.912c1.224,0,1.224,0,2.448,1.224c3.672,0,6.12-2.448,8.568-4.896
	c8.568-8.568,19.584-13.464,31.824-14.688c8.568-1.224,18.36,0,26.928-2.448c14.688-3.672,28.152-11.016,39.168-22.032
	c11.016-11.016,18.36-24.48,20.808-40.392c0,0,0,0,1.224-1.224c22.032,4.896,41.616-1.224,59.976-12.24
	c6.12,9.792,12.24,19.584,20.811,26.928c-8.568,11.016-14.688,24.48-15.912,37.944c-3.672,1.224-6.12,1.224-8.568,1.224
	c-13.464-1.224-25.704,2.448-37.944,8.568c-1.224,0-1.224,0-2.448,1.224c-3.672,2.448-6.12,6.12-3.672,11.016
	c1.224,3.672,6.12,6.12,9.792,4.896c2.448-1.224,6.12-2.448,8.568-3.672c11.016-4.896,22.032-6.12,33.048-3.672
	c1.227,2.448,1.227,6.12,2.448,9.792c3.672,12.24,9.792,23.256,17.136,33.048c2.448,2.448,4.896,3.674,7.347,4.896
	c4.896,0,8.565-3.672,9.792-8.568c0-3.672-2.448-6.12-4.896-8.565c-7.344-7.344-11.016-17.136-13.464-26.928
	c-3.672-15.912,0-31.824,8.568-45.288c1.224-2.448,2.445-3.672,4.896-4.896c4.896,1.224,8.568,3.672,13.464,4.896
	c6.12,1.224,12.24,2.448,19.584,2.448c12.24,0,23.256,2.448,33.048,9.792c4.896,3.672,9.792,7.344,14.688,12.24
	c7.344,8.568,11.016,17.136,13.464,26.928c1.224,3.672,0,6.12,1.224,9.792c-1.224,1.224-3.672,0-4.896,0
	c-13.464-2.448-26.928-1.224-40.394,3.672c-1.225,1.224-3.673,1.224-4.896,2.448c-3.672,3.672-3.672,6.12-1.224,11.016
	c2.445,3.675,4.896,4.896,9.792,3.675c4.896-1.227,9.792-3.675,14.688-3.675c7.344-1.224,14.688-1.224,22.032,1.227
	c1.224,0,1.224,1.224,2.448,1.224c-1.227,6.12-3.673,12.24-7.347,17.137c-6.12,8.567-14.688,14.688-23.256,19.584
	c-15.912,9.793-25.704,23.258-30.6,41.615c-3.672,11.019-3.672,22.032-3.672,33.049c0,24.479,0,50.186,0,74.663
	c0,1.227,0,3.673,0,6.12c-7.347,0-14.688,0-22.032,0c-1.224,0-2.448,0-3.672-1.224c-1.227-1.225,0-3.672,0-6.12
	c0-24.479,0-50.184,0-74.664c0-12.24-2.448-23.256-8.568-33.048c-8.565-18.36-22.032-30.601-41.616-39.168
	c-7.344-3.672-14.688-8.568-20.808-13.464c-1.224-1.227-2.448-3.672-6.12-4.896c-28.152,17.137-57.528,17.137-85.68,0
	c-1.224,0-2.448,0-3.672,1.227c-9.792,6.119-20.808,8.565-31.824,11.016c-15.912,2.448-29.376-1.224-44.064-7.344
	c-14.688-7.346-25.704-18.36-33.048-33.048c-4.896-9.792-7.344-19.584-8.568-30.602c-1.224-13.464,1.224-26.928,7.344-39.168
	c4.896-12.24,13.464-20.808,23.256-29.376c3.672-2.448,7.344-6.12,12.24-7.344c2.448-1.224,4.896-2.448,4.896-6.12
	c1.224-4.896,2.448-9.792,4.896-13.464c1.224-3.672,3.672-7.344,6.12-9.792c2.448-2.448,3.672-6.12,7.344-8.568
	c12.24-12.24,26.928-19.584,42.84-23.256c3.672-1.224,7.344,0,12.24,0c2.448,0,3.672,0,6.12,0
	c22.032-35.5,64.872-44.068,99.144-26.932c33.048-19.584,64.872-15.912,94.248,7.344c6.12-1.224,12.24-1.224,19.584-1.224
	c19.584,0,36.72,7.344,51.408,22.032c6.12,6.12,11.016,12.24,14.688,19.584c1.227,2.448,2.448,3.672,4.896,4.896
	c6.12,2.448,11.016,4.896,17.136,8.568c3.672,2.448,7.344,6.12,11.016,8.568c12.24,12.24,19.584,25.704,22.032,42.84
	c1.227,11.016,1.227,20.808-1.224,31.824C644.471,294.984,638.351,334.152,615.096,359.857z"/>
</svg>
