<?xml version="1.0" encoding="utf-8"?>
<!-- Generator: Adobe Illustrator 18.0.0, SVG Export Plug-In . SVG Version: 6.00 Build 0)  -->
<!DOCTYPE svg PUBLIC "-//W3C//DTD SVG 1.1//EN" "http://www.w3.org/Graphics/SVG/1.1/DTD/svg11.dtd">
<svg version="1.1" xmlns="http://www.w3.org/2000/svg" xmlns:xlink="http://www.w3.org/1999/xlink" x="0px" y="0px"
	 viewBox="0 0 50 50" enable-background="new 0 0 50 50" xml:space="preserve">
<g id="open">
	<g id="oncology">
		<path id="icon_2_" fill="#231F20" d="M25.1,7.6C15.5,7.6,7.7,15.4,7.7,25s7.8,17.4,17.4,17.4c9.6,0,17.4-7.8,17.4-17.4
			S34.7,7.6,25.1,7.6z M12.9,18.3h6.7v6.2h-6.7V18.3z M20.4,38.3c-1.6,0-2.9-1.3-2.9-2.9c0-1.6,1.3-2.9,2.9-2.9
			c1.6,0,2.9,1.3,2.9,2.9C23.3,37,22,38.3,20.4,38.3z M24.6,29.7c-1.6,0-2.9-1.3-2.9-2.9c0-1.6,1.3-2.9,2.9-2.9
			c1.6,0,2.9,1.3,2.9,2.9C27.5,28.5,26.2,29.7,24.6,29.7z M27.5,16.3c-1.6,0-2.9-1.3-2.9-2.9c0-1.6,1.3-2.9,2.9-2.9
			c1.6,0,2.9,1.3,2.9,2.9C30.3,15,29,16.3,27.5,16.3z M33.2,35.5c-1.6,0-2.9-1.3-2.9-2.9c0-1.6,1.3-2.9,2.9-2.9
			c1.6,0,2.9,1.3,2.9,2.9C36,34.2,34.8,35.5,33.2,35.5z M34.5,25.1c-1.6,0-2.9-1.3-2.9-2.9c0-1.6,1.3-2.9,2.9-2.9
			c1.6,0,2.9,1.3,2.9,2.9C37.4,23.8,36.1,25.1,34.5,25.1z"/>
	</g>
</g>
<g id="teardrop">
</g>
</svg>
