<?xml version="1.0" encoding="iso-8859-1"?>
<!-- Generator: Adobe Illustrator 15.0.2, SVG Export Plug-In . SVG Version: 6.00 Build 0)  -->
<!DOCTYPE svg PUBLIC "-//W3C//DTD SVG 1.1//EN" "http://www.w3.org/Graphics/SVG/1.1/DTD/svg11.dtd">
<svg version="1.1" id="Layer_1" xmlns="http://www.w3.org/2000/svg" xmlns:xlink="http://www.w3.org/1999/xlink" x="0px" y="0px"
	 width="47.518px" height="47.517px" viewBox="0 0 47.518 47.517" style="enable-background:new 0 0 47.518 47.517;"
	 xml:space="preserve">
<g>
	<circle style="fill:#B7B7B7;" cx="23.376" cy="25.537" r="2.72"/>
	<circle style="fill:#B7B7B7;" cx="19.414" cy="33.696" r="2.72"/>
	<rect x="12.241" y="17.414" style="fill:#B7B7B7;" width="6.323" height="5.939"/>
	<circle style="fill:#B7B7B7;" cx="26.097" cy="12.753" r="2.72"/>
	<circle style="fill:#B7B7B7;" cx="31.536" cy="30.977" r="2.72"/>
	<circle style="fill:#B7B7B7;" cx="32.802" cy="21.135" r="2.72"/>
	<path style="fill:#B7B7B7;" d="M23.76,0C10.639,0,0,10.636,0,23.758c0,13.121,10.639,23.759,23.76,23.759
		c13.123,0,23.758-10.638,23.758-23.759V0H23.76z M23.849,40.292c-9.132,0-16.534-7.402-16.534-16.533
		c0-9.132,7.402-16.534,16.534-16.534c9.131,0,16.533,7.402,16.533,16.534C40.382,32.89,32.979,40.292,23.849,40.292z"/>
</g>
</svg>
