<?xml version="1.0" encoding="UTF-8" standalone="no"?>
<svg width="48px" height="48px" viewBox="0 0 48 48" version="1.1" xmlns="http://www.w3.org/2000/svg" xmlns:xlink="http://www.w3.org/1999/xlink" xmlns:sketch="http://www.bohemiancoding.com/sketch/ns">
    <!-- Generator: Sketch 3.0.3 (7891) - http://www.bohemiancoding.com/sketch -->
    <title>oncology</title>
    <desc>Created with Sketch.</desc>
    <defs></defs>
    <g id="Page-1" stroke="none" stroke-width="1" fill="none" fill-rule="evenodd" sketch:type="MSPage">
        <g id="oncology" sketch:type="MSArtboardGroup" fill="#231F20">
            <g sketch:type="MSLayerGroup" transform="translate(7.000000, 7.000000)" id="pu-icon-oncology">
                <path d="M17.1,-0.4 C7.5,-0.4 -0.3,7.4 -0.3,17 C-0.3,26.6 7.5,34.4 17.1,34.4 C26.7,34.4 34.5,26.6 34.5,17 C34.5,7.4 26.7,-0.4 17.1,-0.4 L17.1,-0.4 Z M4.9,10.3 L11.6,10.3 L11.6,16.5 L4.9,16.5 L4.9,10.3 L4.9,10.3 Z M12.4,30.3 C10.8,30.3 9.5,29 9.5,27.4 C9.5,25.8 10.8,24.5 12.4,24.5 C14,24.5 15.3,25.8 15.3,27.4 C15.3,29 14,30.3 12.4,30.3 L12.4,30.3 Z M16.6,21.7 C15,21.7 13.7,20.4 13.7,18.8 C13.7,17.2 15,15.9 16.6,15.9 C18.2,15.9 19.5,17.2 19.5,18.8 C19.5,20.5 18.2,21.7 16.6,21.7 L16.6,21.7 Z M19.5,8.3 C17.9,8.3 16.6,7 16.6,5.4 C16.6,3.8 17.9,2.5 19.5,2.5 C21.1,2.5 22.4,3.8 22.4,5.4 C22.3,7 21,8.3 19.5,8.3 L19.5,8.3 Z M25.2,27.5 C23.6,27.5 22.3,26.2 22.3,24.6 C22.3,23 23.6,21.7 25.2,21.7 C26.8,21.7 28.1,23 28.1,24.6 C28,26.2 26.8,27.5 25.2,27.5 L25.2,27.5 Z M26.5,17.1 C24.9,17.1 23.6,15.8 23.6,14.2 C23.6,12.6 24.9,11.3 26.5,11.3 C28.1,11.3 29.4,12.6 29.4,14.2 C29.4,15.8 28.1,17.1 26.5,17.1 L26.5,17.1 Z" sketch:type="MSShapeGroup"></path>
            </g>
        </g>
    </g>
</svg>