<?xml version="1.0" encoding="iso-8859-1"?>
<!-- Generator: Adobe Illustrator 15.0.2, SVG Export Plug-In . SVG Version: 6.00 Build 0)  -->
<!DOCTYPE svg PUBLIC "-//W3C//DTD SVG 1.1//EN" "http://www.w3.org/Graphics/SVG/1.1/DTD/svg11.dtd">
<svg version="1.1" id="Layer_1" xmlns="http://www.w3.org/2000/svg" xmlns:xlink="http://www.w3.org/1999/xlink" x="0px" y="0px"
	 width="47.518px" height="47.518px" viewBox="0 0 47.518 47.518" style="enable-background:new 0 0 47.518 47.518;"
	 xml:space="preserve">
<path style="fill:#B7B7B7;" d="M23.76,0C10.639,0,0,10.637,0,23.758s10.639,23.76,23.76,23.76c13.123,0,23.758-10.639,23.758-23.76
	V0H23.76z M32.521,5.721c0.121-0.037,0.243-0.06,0.365-0.071c0.851-0.078,1.668,0.45,1.924,1.3c0.22,0.728-0.035,1.487-0.585,1.944
	c-0.184,0.152-0.399,0.271-0.642,0.345l-1.759,0.529L31.294,8.01C31.002,7.039,31.552,6.016,32.521,5.721z M22.33,3.756
	c0.693-0.738,1.855-0.775,2.596-0.08c0.738,0.693,0.775,1.855,0.081,2.594l-1.258,1.34l-1.34-1.258
	C21.671,5.658,21.635,4.494,22.33,3.756z M23.848,13.311c2.607,0,4.724,2.115,4.724,4.725c0,2.605-2.116,4.721-4.724,4.721
	c-2.608,0-4.723-2.115-4.723-4.721C19.125,15.426,21.239,13.311,23.848,13.311z M19.912,28.268c0,0.43-0.356,0.787-0.787,0.787
	c-0.43,0-0.787-0.357-0.787-0.787c0-0.432,0.357-0.787,0.787-0.787C19.556,27.48,19.912,27.836,19.912,28.268z M6.949,12.707
	c0.971-0.295,1.996,0.256,2.287,1.227l0.531,1.758l-1.757,0.531c-0.972,0.293-1.997-0.258-2.289-1.229
	C5.429,14.023,5.979,12.998,6.949,12.707z M3.756,25.188c-0.74-0.695-0.775-1.857-0.081-2.596c0.694-0.74,1.855-0.775,2.595-0.082
	l1.34,1.258l-1.258,1.338C5.657,25.846,4.494,25.881,3.756,25.188z M9.356,33.629c-0.231,0.986-1.22,1.6-2.206,1.367
	c-0.987-0.23-1.602-1.219-1.369-2.207s1.222-1.6,2.208-1.367l1.788,0.42L9.356,33.629z M12.521,7.15
	c0.229-0.986,1.219-1.6,2.204-1.369c0.989,0.232,1.602,1.221,1.368,2.207l-0.419,1.789l-1.786-0.42
	C12.899,9.127,12.287,8.139,12.521,7.15z M14.994,41.795c-0.97,0.293-1.995-0.256-2.289-1.227c-0.294-0.973,0.258-1.996,1.229-2.289
	l1.757-0.531l0,0h0.001l0.531,1.758C16.518,40.479,15.966,41.502,14.994,41.795z M25.414,43.466
	c-0.064,0.104-0.139,0.203-0.226,0.296c-0.694,0.738-1.858,0.775-2.598,0.08c-0.74-0.693-0.775-1.855-0.082-2.596l1.258-1.338
	l1.34,1.256c0.37,0.348,0.563,0.812,0.578,1.282C25.695,42.798,25.605,43.154,25.414,43.466z M18.473,32.205
	c-1.967,0-3.284-1.182-3.284-3.188c0-2.447,0.492-6.309,3.419-6.949c-0.196,0.467-0.27,0.971-0.27,1.475v2.498
	c-0.948,0.332-1.573,1.23-1.573,2.227c0,1.303,1.057,2.361,2.36,2.361s2.362-1.059,2.362-2.361c0-0.996-0.642-1.895-1.575-2.227
	v-2.498c0-0.404,0.037-0.811,0.307-1.143c1.035,0.812,2.312,1.279,3.629,1.279c1.316,0,2.595-0.467,3.629-1.279
	c0.27,0.332,0.307,0.738,0.307,1.143v0.789c-1.733,0-3.148,1.414-3.148,3.148v1.094c-0.246,0.223-0.394,0.543-0.394,0.873
	c0,0.652,0.53,1.182,1.181,1.182c0.651,0,1.182-0.529,1.182-1.182c0-0.33-0.148-0.65-0.394-0.873V27.48
	c0-0.861,0.713-1.574,1.573-1.574c0.862,0,1.576,0.713,1.576,1.574v1.094c-0.248,0.223-0.397,0.543-0.397,0.873
	c0,0.652,0.531,1.182,1.183,1.182c0.652,0,1.182-0.529,1.182-1.182c0-0.33-0.149-0.65-0.395-0.873V27.48
	c0-1.119-0.601-2.164-1.572-2.717c0-0.9,0.086-1.859-0.271-2.695c2.926,0.641,3.419,4.502,3.419,6.949
	c0,2.006-1.315,3.188-3.285,3.188H18.473z M34.997,40.367c-0.231,0.986-1.221,1.6-2.209,1.367c-0.987-0.232-1.598-1.221-1.366-2.207
	l0.419-1.789l1.79,0.422c0.862,0.202,1.438,0.983,1.414,1.838C35.042,40.12,35.026,40.244,34.997,40.367z M38.158,13.889
	c0.232-0.988,1.22-1.602,2.209-1.369c0.985,0.232,1.599,1.221,1.368,2.209c-0.232,0.986-1.222,1.6-2.208,1.367l-1.788-0.42
	L38.158,13.889z M40.568,34.811c-0.972,0.293-1.996-0.256-2.289-1.227l-0.531-1.758l1.758-0.531
	c0.973-0.293,1.997,0.256,2.289,1.229C42.088,33.494,41.538,34.518,40.568,34.811z M43.842,24.926
	c-0.694,0.74-1.855,0.775-2.596,0.082l-1.34-1.258l1.259-1.34c0.694-0.738,1.857-0.775,2.597-0.08
	C44.5,23.023,44.537,24.186,43.842,24.926z"/>
</svg>
