<?xml version="1.0" encoding="UTF-8" standalone="no"?>
<svg width="48px" height="48px" viewBox="0 0 48 48" version="1.1" xmlns="http://www.w3.org/2000/svg" xmlns:xlink="http://www.w3.org/1999/xlink" xmlns:sketch="http://www.bohemiancoding.com/sketch/ns">
    <!-- Generator: Sketch 3.0.3 (7891) - http://www.bohemiancoding.com/sketch -->
    <title>primarycare</title>
    <desc>Created with Sketch.</desc>
    <defs></defs>
    <g id="Page-1" stroke="none" stroke-width="1" fill="none" fill-rule="evenodd" sketch:type="MSPage">
        <g id="primarycare" sketch:type="MSArtboardGroup" fill="#231F20">
            <g sketch:type="MSLayerGroup" transform="translate(2.000000, 2.000000)">
                <g id="nodes" sketch:type="MSShapeGroup">
                    <path d="M29.9,5.4 C29.6,4.4 30.2,3.3 31.2,3 C32.2,2.7 33.3,3.3 33.6,4.3 C33.9,5.3 33.3,6.4 32.3,6.7 L30.4,7.3 L29.9,5.4 L29.9,5.4 Z" id="Shape"></path>
                    <path d="M20.6,3.7 C19.8,3 19.8,1.7 20.5,1 C21.2,0.2 22.5,0.2 23.2,0.9 C24,1.6 24,2.9 23.3,3.6 L22,5 L20.6,3.7 L20.6,3.7 Z" id="Shape"></path>
                    <path d="M11.6,6.8 C10.6,6.6 9.9,5.5 10.2,4.5 C10.4,3.5 11.5,2.8 12.5,3.1 C13.5,3.3 14.2,4.4 13.9,5.4 L13.5,7.3 L11.6,6.8 L11.6,6.8 Z" id="Shape"></path>
                    <path d="M5.4,14.1 C4.4,14.4 3.3,13.8 3,12.8 C2.7,11.8 3.3,10.7 4.3,10.4 C5.3,10.1 6.4,10.7 6.7,11.7 L7.3,13.6 L5.4,14.1 L5.4,14.1 Z" id="Shape"></path>
                    <path d="M3.7,23.4 C3,24.2 1.7,24.2 1,23.5 C0.2,22.8 0.2,21.5 0.9,20.8 C1.6,20 2.9,20 3.6,20.7 L5,22 L3.7,23.4 L3.7,23.4 Z" id="Shape"></path>
                    <path d="M6.8,32.4 C6.6,33.4 5.5,34.1 4.5,33.8 C3.5,33.6 2.8,32.5 3.1,31.5 C3.3,30.5 4.4,29.8 5.4,30.1 L7.3,30.5 L6.8,32.4 L6.8,32.4 Z" id="Shape"></path>
                    <path d="M14.1,38.6 C14.4,39.6 13.8,40.7 12.8,41 C11.8,41.3 10.7,40.7 10.4,39.7 C10.1,38.7 10.7,37.6 11.7,37.3 L13.5,36.7 L14.1,38.6 L14.1,38.6 Z" id="Shape"></path>
                    <path d="M23.4,40.3 C24.2,41 24.2,42.3 23.5,43 C22.8,43.8 21.5,43.8 20.8,43.1 C20,42.4 20,41.1 20.7,40.4 L22,39 L23.4,40.3 L23.4,40.3 Z" id="Shape"></path>
                    <path d="M32.4,37.2 C33.4,37.4 34.1,38.5 33.8,39.5 C33.6,40.5 32.5,41.2 31.5,40.9 C30.5,40.7 29.8,39.6 30.1,38.6 L30.5,36.7 L32.4,37.2 L32.4,37.2 Z" id="Shape"></path>
                    <path d="M38.6,29.9 C39.6,29.6 40.7,30.2 41,31.2 C41.3,32.2 40.7,33.3 39.7,33.6 C38.7,33.9 37.6,33.3 37.3,32.3 L36.7,30.5 L38.6,29.9 L38.6,29.9 Z" id="Shape"></path>
                    <path d="M40.3,20.6 C41,19.8 42.3,19.8 43,20.5 C43.8,21.2 43.8,22.5 43.1,23.2 C42.4,24 41.1,24 40.4,23.3 L39,22 L40.3,20.6 L40.3,20.6 Z" id="Shape"></path>
                    <path d="M37.2,11.6 C37.4,10.6 38.5,9.9 39.5,10.2 C40.5,10.4 41.2,11.5 40.9,12.5 C40.7,13.5 39.6,14.2 38.6,13.9 L36.7,13.5 L37.2,11.6 L37.2,11.6 Z" id="Shape"></path>
                    <path d="M29.9,5.4 C29.6,4.4 30.2,3.3 31.2,3 C32.2,2.7 33.3,3.3 33.6,4.3 C33.9,5.3 33.3,6.4 32.3,6.7 L30.4,7.3 L29.9,5.4 L29.9,5.4 Z" id="Shape"></path>
                    <path d="M20.6,3.7 C19.8,3 19.8,1.7 20.5,1 C21.2,0.2 22.5,0.2 23.2,0.9 C24,1.6 24,2.9 23.3,3.6 L22,5 L20.6,3.7 L20.6,3.7 Z" id="Shape"></path>
                    <path d="M11.6,6.8 C10.6,6.6 9.9,5.5 10.2,4.5 C10.4,3.5 11.5,2.8 12.5,3.1 C13.5,3.3 14.2,4.4 13.9,5.4 L13.5,7.3 L11.6,6.8 L11.6,6.8 Z" id="Shape"></path>
                    <path d="M5.4,14.1 C4.4,14.4 3.3,13.8 3,12.8 C2.7,11.8 3.3,10.7 4.3,10.4 C5.3,10.1 6.4,10.7 6.7,11.7 L7.3,13.6 L5.4,14.1 L5.4,14.1 Z" id="Shape"></path>
                    <path d="M3.7,23.4 C3,24.2 1.7,24.2 1,23.5 C0.2,22.8 0.2,21.5 0.9,20.8 C1.6,20 2.9,20 3.6,20.7 L5,22 L3.7,23.4 L3.7,23.4 Z" id="Shape"></path>
                    <path d="M6.8,32.4 C6.6,33.4 5.5,34.1 4.5,33.8 C3.5,33.6 2.8,32.5 3.1,31.5 C3.3,30.5 4.4,29.8 5.4,30.1 L7.3,30.5 L6.8,32.4 L6.8,32.4 Z" id="Shape"></path>
                    <path d="M14.1,38.6 C14.4,39.6 13.8,40.7 12.8,41 C11.8,41.3 10.7,40.7 10.4,39.7 C10.1,38.7 10.7,37.6 11.7,37.3 L13.5,36.7 L14.1,38.6 L14.1,38.6 Z" id="Shape"></path>
                    <path d="M23.4,40.3 C24.2,41 24.2,42.3 23.5,43 C22.8,43.8 21.5,43.8 20.8,43.1 C20,42.4 20,41.1 20.7,40.4 L22,39 L23.4,40.3 L23.4,40.3 Z" id="Shape"></path>
                    <path d="M32.4,37.2 C33.4,37.4 34.1,38.5 33.8,39.5 C33.6,40.5 32.5,41.2 31.5,40.9 C30.5,40.7 29.8,39.6 30.1,38.6 L30.5,36.7 L32.4,37.2 L32.4,37.2 Z" id="Shape"></path>
                </g>
                <g id="doctor" transform="translate(13.000000, 11.000000)" sketch:type="MSShapeGroup">
                    <path d="M14.7,19.9 L3.4,19.9 C1.3,19.9 -0.1,18.7 -0.1,16.5 C-0.1,13.9 0.4,9.9 3.5,9.2 C3.3,9.7 3.2,10.2 3.2,10.8 L3.2,13.4 C2.2,13.8 1.5,14.7 1.5,15.7 C1.5,17.1 2.6,18.2 4,18.2 C5.4,18.2 6.5,17.1 6.5,15.7 C6.5,14.7 5.8,13.7 4.8,13.4 L4.8,10.8 C4.8,10.4 4.8,9.9 5.1,9.6 C6.2,10.5 7.5,10.9 8.9,10.9 C10.3,10.9 11.6,10.4 12.7,9.6 C13,9.9 13,10.4 13,10.8 L13,11.6 C11.2,11.6 9.7,13.1 9.7,14.9 L9.7,16.1 C9.4,16.3 9.3,16.7 9.3,17 C9.3,17.7 9.9,18.2 10.5,18.2 C11.2,18.2 11.7,17.6 11.7,17 C11.7,16.7 11.5,16.3 11.3,16.1 L11.3,14.9 C11.3,14 12.1,13.2 13,13.2 C13.9,13.2 14.7,13.9 14.7,14.9 L14.7,16.1 C14.4,16.3 14.3,16.7 14.3,17 C14.3,17.7 14.9,18.2 15.5,18.2 C16.2,18.2 16.7,17.6 16.7,17 C16.7,16.7 16.5,16.3 16.3,16.1 L16.3,14.9 C16.3,13.7 15.7,12.6 14.6,12 C14.6,11.1 14.7,10 14.3,9.2 C17.4,9.9 17.9,13.9 17.9,16.5 C18.2,18.6 16.8,19.9 14.7,19.9 L14.7,19.9 Z" id="Shape"></path>
                    <path d="M4.1,16.6 C3.6,16.6 3.3,16.2 3.3,15.8 C3.3,15.3 3.7,15 4.1,15 C4.6,15 4.9,15.4 4.9,15.8 C5,16.2 4.6,16.6 4.1,16.6 L4.1,16.6 Z" id="Shape"></path>
                    <circle id="Oval" cx="9" cy="5" r="5"></circle>
                </g>
            </g>
        </g>
    </g>
</svg>