<?xml version="1.0" encoding="utf-8"?>
<!-- Generator: Adobe Illustrator 18.0.0, SVG Export Plug-In . SVG Version: 6.00 Build 0)  -->
<!DOCTYPE svg PUBLIC "-//W3C//DTD SVG 1.1//EN" "http://www.w3.org/Graphics/SVG/1.1/DTD/svg11.dtd">
<svg version="1.1" xmlns="http://www.w3.org/2000/svg" xmlns:xlink="http://www.w3.org/1999/xlink" x="0px" y="0px"
	 viewBox="0 0 50 50" enable-background="new 0 0 50 50" xml:space="preserve">
<g id="open">
	<g id="primarycare">
		<g id="icon_7_">
			<g id="nodes">
				<path fill="#231F20" d="M32.9,8.4c-0.3-1,0.3-2.1,1.3-2.4c1-0.3,2.1,0.3,2.4,1.3c0.3,1-0.3,2.1-1.3,2.4l-1.9,0.6L32.9,8.4z"/>
				<path fill="#231F20" d="M23.6,6.7c-0.8-0.7-0.8-2-0.1-2.7c0.7-0.8,2-0.8,2.7-0.1c0.8,0.7,0.8,2,0.1,2.7L25,8L23.6,6.7z"/>
				<path fill="#231F20" d="M14.6,9.8c-1-0.2-1.7-1.3-1.4-2.3c0.2-1,1.3-1.7,2.3-1.4c1,0.2,1.7,1.3,1.4,2.3l-0.4,1.9L14.6,9.8z"/>
				<path fill="#231F20" d="M8.4,17.1c-1,0.3-2.1-0.3-2.4-1.3c-0.3-1,0.3-2.1,1.3-2.4c1-0.3,2.1,0.3,2.4,1.3l0.6,1.9L8.4,17.1z"/>
				<path fill="#231F20" d="M6.7,26.4c-0.7,0.8-2,0.8-2.7,0.1c-0.8-0.7-0.8-2-0.1-2.7c0.7-0.8,2-0.8,2.7-0.1L8,25L6.7,26.4z"/>
				<path fill="#231F20" d="M9.8,35.4c-0.2,1-1.3,1.7-2.3,1.4c-1-0.2-1.7-1.3-1.4-2.3c0.2-1,1.3-1.7,2.3-1.4l1.9,0.4L9.8,35.4z"/>
				<path fill="#231F20" d="M17.1,41.6c0.3,1-0.3,2.1-1.3,2.4c-1,0.3-2.1-0.3-2.4-1.3c-0.3-1,0.3-2.1,1.3-2.4l1.8-0.6L17.1,41.6z"/>
				<path fill="#231F20" d="M26.4,43.3c0.8,0.7,0.8,2,0.1,2.7c-0.7,0.8-2,0.8-2.7,0.1s-0.8-2-0.1-2.7L25,42L26.4,43.3z"/>
				<path fill="#231F20" d="M35.4,40.2c1,0.2,1.7,1.3,1.4,2.3c-0.2,1-1.3,1.7-2.3,1.4c-1-0.2-1.7-1.3-1.4-2.3l0.4-1.9L35.4,40.2z"/>
				<path fill="#231F20" d="M41.6,32.9c1-0.3,2.1,0.3,2.4,1.3c0.3,1-0.3,2.1-1.3,2.4c-1,0.3-2.1-0.3-2.4-1.3l-0.6-1.8L41.6,32.9z"/>
				<path fill="#231F20" d="M43.3,23.6c0.7-0.8,2-0.8,2.7-0.1c0.8,0.7,0.8,2,0.1,2.7c-0.7,0.8-2,0.8-2.7,0.1L42,25L43.3,23.6z"/>
				<path fill="#231F20" d="M40.2,14.6c0.2-1,1.3-1.7,2.3-1.4c1,0.2,1.7,1.3,1.4,2.3c-0.2,1-1.3,1.7-2.3,1.4l-1.9-0.4L40.2,14.6z"/>
				<path fill="#231F20" d="M32.9,8.4c-0.3-1,0.3-2.1,1.3-2.4c1-0.3,2.1,0.3,2.4,1.3c0.3,1-0.3,2.1-1.3,2.4l-1.9,0.6L32.9,8.4z"/>
				<path fill="#231F20" d="M23.6,6.7c-0.8-0.7-0.8-2-0.1-2.7c0.7-0.8,2-0.8,2.7-0.1c0.8,0.7,0.8,2,0.1,2.7L25,8L23.6,6.7z"/>
				<path fill="#231F20" d="M14.6,9.8c-1-0.2-1.7-1.3-1.4-2.3c0.2-1,1.3-1.7,2.3-1.4c1,0.2,1.7,1.3,1.4,2.3l-0.4,1.9L14.6,9.8z"/>
				<path fill="#231F20" d="M8.4,17.1c-1,0.3-2.1-0.3-2.4-1.3c-0.3-1,0.3-2.1,1.3-2.4c1-0.3,2.1,0.3,2.4,1.3l0.6,1.9L8.4,17.1z"/>
				<path fill="#231F20" d="M6.7,26.4c-0.7,0.8-2,0.8-2.7,0.1c-0.8-0.7-0.8-2-0.1-2.7c0.7-0.8,2-0.8,2.7-0.1L8,25L6.7,26.4z"/>
				<path fill="#231F20" d="M9.8,35.4c-0.2,1-1.3,1.7-2.3,1.4c-1-0.2-1.7-1.3-1.4-2.3c0.2-1,1.3-1.7,2.3-1.4l1.9,0.4L9.8,35.4z"/>
				<path fill="#231F20" d="M17.1,41.6c0.3,1-0.3,2.1-1.3,2.4c-1,0.3-2.1-0.3-2.4-1.3c-0.3-1,0.3-2.1,1.3-2.4l1.8-0.6L17.1,41.6z"/>
				<path fill="#231F20" d="M26.4,43.3c0.8,0.7,0.8,2,0.1,2.7c-0.7,0.8-2,0.8-2.7,0.1c-0.8-0.7-0.8-2-0.1-2.7L25,42L26.4,43.3z"/>
				<path fill="#231F20" d="M35.4,40.2c1,0.2,1.7,1.3,1.4,2.3c-0.2,1-1.3,1.7-2.3,1.4c-1-0.2-1.7-1.3-1.4-2.3l0.4-1.9L35.4,40.2z"/>
			</g>
			<g id="doctor">
				<path fill="#231F20" d="M30.7,33.9H19.4c-2.1,0-3.5-1.2-3.5-3.4c0-2.6,0.5-6.6,3.6-7.3c-0.2,0.5-0.3,1-0.3,1.6v2.6
					c-1,0.4-1.7,1.3-1.7,2.3c0,1.4,1.1,2.5,2.5,2.5c1.4,0,2.5-1.1,2.5-2.5c0-1-0.7-2-1.7-2.3v-2.6c0-0.4,0-0.9,0.3-1.2
					c1.1,0.9,2.4,1.3,3.8,1.3c1.4,0,2.7-0.5,3.8-1.3c0.3,0.3,0.3,0.8,0.3,1.2v0.8c-1.8,0-3.3,1.5-3.3,3.3v1.2
					c-0.3,0.2-0.4,0.6-0.4,0.9c0,0.7,0.6,1.2,1.2,1.2c0.7,0,1.2-0.6,1.2-1.2c0-0.3-0.2-0.7-0.4-0.9v-1.2c0-0.9,0.8-1.7,1.7-1.7
					c0.9,0,1.7,0.7,1.7,1.7v1.2c-0.3,0.2-0.4,0.6-0.4,0.9c0,0.7,0.6,1.2,1.2,1.2c0.7,0,1.2-0.6,1.2-1.2c0-0.3-0.2-0.7-0.4-0.9v-1.2
					c0-1.2-0.6-2.3-1.7-2.9c0-0.9,0.1-2-0.3-2.8c3.1,0.7,3.6,4.7,3.6,7.3C34.2,32.6,32.8,33.9,30.7,33.9z"/>
				<path fill="#231F20" d="M20.1,30.6c-0.5,0-0.8-0.4-0.8-0.8c0-0.5,0.4-0.8,0.8-0.8c0.5,0,0.8,0.4,0.8,0.8
					C21,30.2,20.6,30.6,20.1,30.6z"/>
				<circle fill="#231F20" cx="25.1" cy="19" r="5"/>
			</g>
		</g>
	</g>
</g>
<g id="teardrop">
</g>
</svg>
