<?xml version="1.0" encoding="iso-8859-1"?>
<!-- Generator: Adobe Illustrator 15.0.2, SVG Export Plug-In . SVG Version: 6.00 Build 0)  -->
<!DOCTYPE svg PUBLIC "-//W3C//DTD SVG 1.1//EN" "http://www.w3.org/Graphics/SVG/1.1/DTD/svg11.dtd">
<svg version="1.1" id="Layer_1" xmlns="http://www.w3.org/2000/svg" xmlns:xlink="http://www.w3.org/1999/xlink" x="0px" y="0px"
	 width="47.518px" height="47.518px" viewBox="0 0 47.518 47.518" style="enable-background:new 0 0 47.518 47.518;"
	 xml:space="preserve">
<path style="fill:#B7B7B7;" d="M23.76,0C10.639,0,0,10.635,0,23.758c0,13.121,10.639,23.76,23.76,23.76
	c13.123,0,23.758-10.639,23.758-23.76V0H23.76z M21.384,35.184c-0.47,0-0.854-0.312-0.854-0.697c0,0-0.105-3.391-0.136-3.455
	c-0.663-1.193-0.51-3.414-0.704-3.881c-1.077-2.475-1.78-2.305-2.111-2.261c-0.664,0.468,0.648,1.604,0.786,2.003
	c1.904,5.206-2.485,6.699-2.981,6.912c-5.425,2.689-8.405-3.157-8.53-3.498C3.705,25.103,5.279,19.854,5.32,19.428
	c1.161-6.826,6.502-8.404,6.833-8.532c3.934-1.493,6.729,0.616,7.122,1.492c2.69,5.548-1.945,6.315-1.945,6.315
	c-0.166,0.895,0.413,1.92,0.703,2.347c1.516,1.409,1.88,2.128,2.182,2.868l0.294-4.914c0-0.386,0.382-0.699,0.854-0.7
	c0.473,0,0.854,0.312,0.854,0.697l0.021,15.482C22.239,34.869,21.857,35.182,21.384,35.184z M41.527,30.307
	c-0.125,0.341-3.106,6.188-8.53,3.498c-0.496-0.213-4.886-1.706-2.98-6.912c0.137-0.399,1.448-1.535,0.786-2.003
	c-0.332-0.044-1.035-0.214-2.111,2.261c-0.193,0.467-0.042,2.688-0.705,3.881c-0.03,0.064-0.136,3.455-0.136,3.455
	c0,0.385-0.384,0.697-0.854,0.697c-0.474-0.002-0.855-0.314-0.855-0.7l0.021-15.482c0.003-0.386,0.384-0.697,0.857-0.697
	c0.471,0.001,0.854,0.314,0.853,0.7l0.294,4.914c0.301-0.74,0.666-1.459,2.183-2.868c0.289-0.427,0.869-1.452,0.703-2.347
	c0,0-4.637-0.768-1.945-6.315c0.393-0.876,3.188-2.985,7.122-1.492c0.332,0.128,5.671,1.706,6.832,8.532
	C43.1,19.854,44.674,25.103,41.527,30.307z"/>
</svg>
