<?xml version="1.0" encoding="UTF-8" standalone="no"?>
<svg width="48px" height="48px" viewBox="0 0 48 48" version="1.1" xmlns="http://www.w3.org/2000/svg" xmlns:xlink="http://www.w3.org/1999/xlink" xmlns:sketch="http://www.bohemiancoding.com/sketch/ns">
    <!-- Generator: Sketch 3.0.3 (7891) - http://www.bohemiancoding.com/sketch -->
    <title>urology</title>
    <desc>Created with Sketch.</desc>
    <defs></defs>
    <g id="Page-1" stroke="none" stroke-width="1" fill="none" fill-rule="evenodd" sketch:type="MSPage">
        <g id="urology" sketch:type="MSArtboardGroup" fill="#231F20">
            <g sketch:type="MSLayerGroup" transform="translate(4.000000, 11.000000)">
                <path d="M18.4,9 C18.4,8.6 18,8.3 17.5,8.3 C17,8.3 16.6,8.6 16.6,9 L16.3,14.2 C16,13.4 15.6,12.7 14,11.2 C13.7,10.8 13.1,9.7 13.3,8.7 C13.3,8.7 18.2,7.9 15.3,2.1 C14.9,1.2 11.9,-1 7.8,0.5 C7.5,0.6 1.8,2.3 0.6,9.5 C0.6,9.9 -1.1,15.5 2.2,20.9 C2.3,21.3 5.5,27.4 11.2,24.6 C11.7,24.4 16.3,22.8 14.3,17.3 C14.2,16.9 12.8,15.7 13.5,15.2 C13.8,15.2 14.6,15 15.7,17.6 C15.9,18.1 15.7,20.4 16.4,21.7 C16.4,21.8 16.5,25.3 16.5,25.3 C16.5,25.7 16.9,26 17.4,26 C17.9,26 18.3,25.7 18.3,25.3 L18.4,9 L18.4,9 Z" id="kidney_1_" sketch:type="MSShapeGroup"></path>
                <path d="M22.5,9 C22.5,8.6 22.9,8.3 23.4,8.3 C23.9,8.3 24.3,8.6 24.3,9 L24.6,14.2 C24.9,13.4 25.3,12.7 26.9,11.2 C27.2,10.8 27.8,9.7 27.6,8.7 C27.6,8.7 22.7,7.9 25.6,2.1 C26,1.2 29,-1 33.1,0.5 C33.4,0.6 39.1,2.3 40.3,9.5 C40.3,9.9 42,15.5 38.7,20.9 C38.6,21.3 35.4,27.4 29.7,24.6 C29.2,24.4 24.6,22.8 26.6,17.3 C26.7,16.9 28.1,15.7 27.4,15.2 C27.1,15.2 26.3,15 25.2,17.6 C25,18.1 25.2,20.4 24.5,21.7 C24.5,21.8 24.4,25.3 24.4,25.3 C24.4,25.7 24,26 23.5,26 C23,26 22.6,25.7 22.6,25.3 L22.5,9 L22.5,9 Z" id="kidney" sketch:type="MSShapeGroup"></path>
            </g>
        </g>
    </g>
</svg>